<?xml version="1.0" encoding="utf-8"?>
<!-- Generator: Adobe Illustrator 16.0.0, SVG Export Plug-In . SVG Version: 6.00 Build 0)  -->
<!DOCTYPE svg PUBLIC "-//W3C//DTD SVG 1.1//EN" "http://www.w3.org/Graphics/SVG/1.1/DTD/svg11.dtd">
<svg version="1.1" id="Layer_2" xmlns="http://www.w3.org/2000/svg" xmlns:xlink="http://www.w3.org/1999/xlink" x="0px" y="0px"
	 width="1000px" height="200px" viewBox="-100 0 1000 200" enable-background="new -100 0 1000 200" xml:space="preserve">
<rect x="-100" y="-5" fill="#B2AFEE" width="1000" height="210"/>
<path opacity="0.15" fill="#FFFFFF" enable-background="new    " d="M755.148,205H50.558c0,0-13.558-11.55-13.558-48.825
	C37,118.9,68.407,77.95,69,50.125S43.558-5,43.558-5h711.59c0,0,7.63,30.975,5.852,55.125c-1.781,24.15-10.305,51.698-12,76.65
	C747.304,151.727,755.148,205,755.148,205z"/>
<path opacity="0.15" fill="#FFFFFF" enable-background="new    " d="M736.808,205H72.323c0,0-3.323-21-3.323-58.275
	c0-37.274,9.414-72.975,9.967-100.8C79.521,18.1,72.323-5,72.323-5h664.483c0,0-8.305,26.775-9.966,50.925
	c-1.662,24.15,15.979,64.296,14.396,89.25C739.654,160.127,736.808,205,736.808,205z"/>
<path fill="#FFFFFF" d="M699.836,205H97.054c0,0-6.054-21-6.054-58.275c0-37.274,8.653-72.975,9.162-100.8
	C100.671,18.1,94.054-5,94.054-5h610.782c0,0-10.635,26.775-12.161,50.925c-1.528,24.15,12.325,68.775,18.825,90.3
	C718.696,160.055,699.836,205,699.836,205z"/>
<path fill="#F3F1C9" d="M694.5,205h-592c0,0-6-21-6-58.275c0-37.274,8.5-72.975,9-100.8S99.5-5,99.5-5h600c0,0-7.5,26.775-9,50.925
	c-1.5,24.15,8.75,67.726,14.75,89.513C711.863,159.451,694.5,205,694.5,205z"/>
<linearGradient id="SVGID_1_" gradientUnits="userSpaceOnUse" x1="-266.3872" y1="741" x2="262.6211" y2="741" gradientTransform="matrix(1 0 0 1 405 -641)">
	<stop  offset="0" style="stop-color:#77EA5C"/>
	<stop  offset="1" style="stop-color:#65D44B"/>
</linearGradient>
<path fill="url(#SVGID_1_)" d="M656.073,205H142.07c0,0-5.57-35.175-2.57-58.275c2.898-22.319,18-71.925,17.71-100.8
	C156.973,22.286,142.07-5,142.07-5h514.003c0,0-17.349,34.125-17.71,50.925C638,62.725,666,114.699,667.5,135.175
	C669,155.651,656.073,205,656.073,205z"/>
<g>
	
		<linearGradient id="SVGID_2_" gradientUnits="userSpaceOnUse" x1="-269.4912" y1="741" x2="264.4863" y2="741" gradientTransform="matrix(1 0 0 1 405 -641)">
		<stop  offset="0" style="stop-color:#77EA5C"/>
		<stop  offset="1" style="stop-color:#65D44B"/>
	</linearGradient>
	<polygon fill="url(#SVGID_2_)" points="657.041,197.781 650.551,192.061 645.028,198.872 639.504,196.951 633.979,195.664 
		628.451,189.623 622.926,199.757 617.402,193.675 611.879,197.189 606.356,189.613 600.834,196.507 595.311,195.226 
		589.787,198.073 584.263,191.998 578.737,199.479 573.21,195.282 567.685,189.502 562.16,198.069 556.636,195.588 551.112,192.02 
		545.589,199.524 540.064,191.951 534.539,195.662 529.012,197.298 523.485,195.909 517.96,190.06 512.436,196.328 506.912,194.591 
		501.387,195.192 495.861,195.308 490.334,192.623 484.807,191.074 479.282,199.702 473.757,193.49 468.232,192.849 
		462.706,198.017 457.179,191.076 451.651,197.569 446.126,192.482 440.601,189.923 435.075,192.463 429.547,192.327 
		424.02,195.821 418.494,193.13 412.968,195.31 407.441,196.158 401.913,200 396.386,195.521 390.86,195.05 385.333,197.538 
		379.805,198.371 374.278,196.914 368.751,194.943 363.224,193.424 357.696,191.775 352.169,197.298 346.641,190.194 
		341.113,192.721 335.59,190.802 330.062,199.776 324.536,192.103 319.013,190.414 313.49,197.583 307.964,194.232 302.435,198.884 
		296.909,197.133 291.385,192.447 285.858,198.562 280.33,193.967 274.804,192.533 269.277,198.344 263.748,196.881 
		258.221,194.515 252.692,192.845 247.164,195.165 241.635,199.246 236.106,198.806 230.576,195.393 225.047,199.542 
		219.517,199.052 213.986,192.439 208.455,190.426 202.925,197.84 197.395,199.812 191.869,199.135 186.34,193.099 180.808,195.159 
		175.277,193.024 169.745,198.422 164.212,190.373 158.682,194.709 153.147,195.572 147.609,191.499 140.906,198.229 
		145.016,188.992 138.689,184.531 139.388,179.114 135.509,174.135 142.367,168.316 137.128,163.323 140.541,157.959 
		143.052,152.811 141.509,147.609 137.073,141.814 135.638,135.846 145.328,132.281 141.628,125.845 146.471,121.407 
		150.468,116.787 151.556,111.43 145.148,104.215 152.149,100.303 147.32,93.541 152.893,89.221 152.625,83.568 154.162,78.307 
		151.101,72.242 151.637,66.909 160.654,62.523 154.188,56.49 155.358,51.224 152.876,46.244 160.187,39.606 155.641,34.914 
		149.229,31.246 150.385,25.215 146.112,21.188 143.327,16.646 148.527,7.996 142.291,5.805 147.592,1.66 153.115,7.816 
		158.64,6.358 164.165,8.564 169.692,9.984 175.217,7.686 180.741,4.828 186.265,2.879 191.788,6.664 197.31,3.771 202.833,2.316 
		208.356,4.335 213.881,6.721 219.406,0 224.934,1.338 230.459,7.004 235.984,4.221 241.507,0.381 247.031,1.964 252.555,6.582 
		258.079,6.053 263.604,9.7 269.132,5.973 274.658,8.309 280.184,3.414 285.708,1.081 291.232,4.75 296.756,3.525 302.282,8.676 
		307.81,0.404 313.336,2.031 318.862,9.535 324.387,5.565 329.912,10.287 335.438,1.27 340.965,8.871 346.492,3.625 352.018,8.078 
		357.543,8.713 363.069,9.218 368.596,2.705 374.124,4.329 379.65,3.078 385.176,7.373 390.702,5.66 396.23,5.795 401.757,7.363 
		407.284,4.613 412.811,1.107 418.339,6.6 423.866,2.573 429.393,4.576 434.92,1.637 440.448,9.881 445.975,8.885 451.502,3.857 
		457.03,6.578 462.554,3.093 468.081,0.164 473.607,1.387 479.131,6.365 484.654,5.338 490.179,8.997 495.709,5.151 501.234,3.139 
		506.759,4.361 512.285,3.735 517.814,9.533 523.34,6.336 528.867,7.148 534.396,0.244 539.923,6.283 545.452,9.547 550.979,0.621 
		556.509,0.413 562.037,2.384 567.567,2.393 573.097,4.168 578.627,9.047 584.158,2.279 589.688,2.578 595.219,10.521 
		600.748,6.145 606.274,1.636 611.804,3.586 617.336,7.234 622.867,10.084 628.398,2.837 633.932,2.563 639.461,1.951 
		644.996,3.181 650.535,4.401 656.595,3.981 657.263,12.075 653.043,16.033 647.662,19.537 646.872,25.229 647.601,31.445 
		639.429,34.209 641.666,40.784 639.253,45.792 633.222,51.082 636.129,57.164 642.062,61.18 639.067,67.944 647.178,70.557 
		644.902,77.301 644.926,83.174 654.269,84.926 650.48,92.498 655.749,96.042 659.391,100.328 663.335,104.532 660.391,111.598 
		659.92,117.48 661.084,122.59 662.085,127.557 664.356,131.992 666.963,137.065 663.168,142.034 669.486,148.138 665.457,152.978 
		668.38,158.968 665.933,164.002 667.058,169.771 660.345,173.755 658.1,178.705 659.236,184.508 657.472,189.58 	"/>
</g>
<polygon fill="#4B4B41" points="509,205 422,205 420,136.75 425,52.75 422,-5 509,-5 506,93.7 "/>
<path opacity="0.2" fill="#231F20" enable-background="new    " d="M443,107.627c0,2.061-1.671,3.732-3.732,3.732H415.4
	c-2.062,0-3.732-1.672-3.732-3.732l0,0c0-2.061,1.671-3.732,3.732-3.732h23.867C441.329,103.896,443,105.566,443,107.627
	L443,107.627z"/>
<rect x="461" y="7" fill="#F3EB1E" width="5" height="26"/>
<rect x="461" y="57" fill="#F3EB1E" width="5" height="18.667"/>
<rect x="461.667" y="154.625" fill="#F3EB1E" width="5" height="18.667"/>
<rect x="462.167" y="100.333" fill="#F3EB1E" width="4" height="29.333"/>
<g>
	<g opacity="0.2">
		<g>
			<path d="M214.984,169.068c0,0-3.502-11.363,2.187-19.074c5.688-7.711,5.875-6.895,7.477-8.57
				c0.489,1.068,1.463,7.268,1.382,8.961C225.949,152.081,224.593,165.509,214.984,169.068z"/>
		</g>
		<g>
			<path d="M217.451,169.723c0,0-9.239-7.256-10.051-16.32c-0.813-9.062-0.192-8.506-0.121-10.666
				c0.976,0.602,5.382,5.037,6.352,6.431C214.601,150.559,221.8,161.952,217.451,169.723z"/>
		</g>
		<g>
			<path d="M218.681,163.705c0,0-7.26,7.246-15.629,4.291c-8.369-2.955-7.818-3.412-9.793-4.412
				c0.614-0.837,4.974-3.876,6.314-4.367C200.914,158.725,211.837,155.525,218.681,163.705z"/>
		</g>
		<g>
			<path d="M238.878,164.327c0,0-7.26,7.246-15.629,4.291c-8.368-2.955-7.818-3.413-9.794-4.412
				c0.614-0.837,4.974-3.876,6.314-4.368C221.111,159.348,232.035,156.146,238.878,164.327z"/>
		</g>
		<g>
			<path d="M216.369,160.502c0,0-2.975,11.364,1.856,19.076c4.832,7.711,4.99,6.893,6.351,8.57c0.415-1.068,1.243-7.269,1.174-8.961
				C225.681,177.491,224.529,164.062,216.369,160.502z"/>
		</g>
		<g>
			<path d="M216.603,161.832c0,0-9.219,7.281-9.348,17.245c-0.129,9.963,0.484,9.397,0.734,11.792
				c0.987-0.584,5.305-5.139,6.222-6.602C215.127,182.807,221.847,170.781,216.603,161.832z"/>
		</g>
		<g>
			<path d="M216.708,162.282c0,0-8.995,1.457-12.948,7.305c-3.953,5.847-3.323,5.703-4.085,7.195
				c0.888-0.041,5.545-1.399,6.726-1.98C207.581,174.22,216.745,169.188,216.708,162.282z"/>
		</g>
		<g>
			<path d="M216.708,163.115c0,0-8.995-1.458-12.948-7.305c-3.953-5.849-3.323-5.703-4.085-7.195c0.888,0.041,5.545,1.4,6.726,1.979
				C207.581,151.176,216.745,156.208,216.708,163.115z"/>
		</g>
		<g>
			<path d="M216.428,164.177c0,0,8.995-1.457,12.948-7.305c3.954-5.849,3.323-5.703,4.085-7.195
				c-0.888,0.041-5.544,1.399-6.725,1.98C225.556,152.239,216.392,157.271,216.428,164.177z"/>
		</g>
		<g>
			<path d="M216.428,162.925c0,0,8.995,1.457,12.948,7.306c3.954,5.848,3.323,5.703,4.085,7.194
				c-0.888-0.041-5.544-1.399-6.725-1.979C225.556,174.864,216.392,169.832,216.428,162.925z"/>
		</g>
	</g>
	<path fill="#1A4905" d="M222.324,140.016c0.476,1.041,1.427,7.082,1.347,8.733c-0.079,1.651-1.4,14.74-10.765,18.21
		c0,0-3.413-11.076,2.131-18.591C220.58,140.852,220.762,141.648,222.324,140.016"/>
	<g>
		<path fill="#2A660A" d="M215.31,167.595c0,0-9.004-7.071-9.796-15.905c-0.792-8.832-0.187-8.291-0.118-10.395
			c0.951,0.584,5.246,4.91,6.191,6.266C212.531,148.918,219.548,160.021,215.31,167.595z"/>
	</g>
	<g>
		<path fill="#193D06" d="M216.509,161.73c0,0-7.076,7.062-15.233,4.182c-8.156-2.88-7.62-3.326-9.545-4.301
			c0.599-0.815,4.847-3.777,6.154-4.256C199.191,156.876,209.838,153.758,216.509,161.73z"/>
	</g>
	<g>
		<path fill="#193D06" d="M236.193,162.336c0,0-7.076,7.062-15.233,4.184c-8.156-2.879-7.619-3.326-9.545-4.301
			c0.599-0.816,4.848-3.777,6.154-4.257C218.876,157.482,229.523,154.365,236.193,162.336z"/>
	</g>
	<g>
		<path fill="#2A660A" d="M214.254,158.609c0,0-2.899,11.076,1.81,18.592s4.863,6.719,6.189,8.353
			c0.405-1.04,1.212-7.081,1.145-8.733C223.331,175.167,222.208,162.08,214.254,158.609z"/>
	</g>
	<g>
		<path fill="#1A4905" d="M214.482,159.905c0,0-8.985,7.096-9.111,16.807s0.473,9.16,0.715,11.494
			c0.963-0.57,5.171-5.008,6.064-6.435C213.044,180.348,219.594,168.627,214.482,159.905z"/>
	</g>
	<g>
		<path fill="#429611" d="M214.586,160.344c0,0-8.766,1.42-12.62,7.12c-3.853,5.699-3.239,5.558-3.982,7.013
			c0.865-0.041,5.404-1.365,6.555-1.931S214.621,167.075,214.586,160.344z"/>
	</g>
	<g>
		<path fill="#57BF13" d="M214.586,161.155c0,0-8.766-1.421-12.62-7.12c-3.853-5.699-3.239-5.559-3.982-7.014
			c0.865,0.041,5.404,1.363,6.555,1.932C205.689,149.52,214.621,154.424,214.586,161.155z"/>
	</g>
	<g>
		<path fill="#429611" d="M214.312,162.191c0,0,8.767-1.42,12.62-7.121c3.853-5.698,3.239-5.56,3.982-7.012
			c-0.866,0.039-5.404,1.362-6.555,1.93C223.208,150.557,214.277,155.46,214.312,162.191z"/>
	</g>
	<g>
		<path fill="#57BF13" d="M214.312,160.971c0,0,8.767,1.42,12.62,7.12c3.853,5.699,3.239,5.558,3.982,7.013
			c-0.866-0.041-5.404-1.363-6.555-1.932C223.208,172.605,214.277,167.702,214.312,160.971z"/>
	</g>
</g>
<g>
	<g opacity="0.2">
		<g>
			<path d="M181.905,128.379c0,0-8.271-8.543-6.696-17.995c1.576-9.452,2.113-8.807,2.781-11.028
				c0.92,0.731,4.598,5.814,5.293,7.362C183.979,108.266,188.857,120.852,181.905,128.379z"/>
		</g>
		<g>
			<path d="M184.4,127.843c0,0-11.523-2.28-16.355-9.991s-4.027-7.498-4.942-9.453c1.142,0.093,7.081,2.052,8.576,2.854
				C173.174,112.053,184.755,118.945,184.4,127.843z"/>
		</g>
		<g>
			<path d="M182.769,121.922c0,0-3.188,9.75-11.987,10.908c-8.799,1.159-8.515,0.501-10.729,0.506
				c0.167-1.023,2.677-5.709,3.649-6.755C164.674,125.534,172.961,117.732,182.769,121.922z"/>
		</g>
		<g>
			<path d="M201.055,113.323c0,0-3.188,9.75-11.987,10.907c-8.798,1.16-8.516,0.502-10.729,0.506
				c0.168-1.024,2.677-5.709,3.649-6.754C182.96,116.936,191.248,109.133,201.055,113.323z"/>
		</g>
		<g>
			<path d="M179.256,120.115c0,0,2.499,11.479,10.3,16.162c7.802,4.685,7.572,3.884,9.545,4.762
				c-0.114-1.141-2.186-7.041-3.015-8.52C195.257,131.039,188.145,119.591,179.256,120.115z"/>
		</g>
		<g>
			<path d="M180.067,121.193c0,0-4.918,10.668-0.518,19.608c4.4,8.94,4.691,8.158,5.999,10.181c0.615-0.969,2.4-6.984,2.555-8.705
				C188.257,140.561,188.798,126.794,180.067,121.193z"/>
		</g>
		<g>
			<path d="M180.366,121.548c0,0-7.357,5.375-8.231,12.38c-0.874,7.004-0.377,6.59-0.381,8.266c0.772-0.438,4.309-3.76,5.098-4.812
				C177.64,136.326,183.528,127.688,180.366,121.548z"/>
		</g>
		<g>
			<path d="M180.743,122.29c0,0-8.678,2.776-14.853-0.644c-6.173-3.422-5.546-3.578-6.902-4.562c0.81-0.366,5.577-1.266,6.893-1.283
				C167.196,115.785,177.646,116.117,180.743,122.29z"/>
		</g>
		<g>
			<path d="M180.975,123.364c0,0,7.357-5.375,8.231-12.38c0.875-7.004,0.378-6.59,0.381-8.267c-0.773,0.438-4.309,3.761-5.097,4.813
				C183.701,108.585,177.812,117.225,180.975,123.364z"/>
		</g>
		<g>
			<path d="M180.407,122.248c0,0,8.678-2.777,14.853,0.645c6.174,3.42,5.547,3.576,6.903,4.562c-0.81,0.365-5.577,1.265-6.893,1.281
				S183.505,128.421,180.407,122.248z"/>
		</g>
	</g>
	<path fill="#1A4905" d="M175.28,99.152c0.896,0.713,4.481,5.668,5.159,7.177c0.679,1.508,5.432,13.772-1.343,21.11
		c0,0-8.062-8.325-6.526-17.537C174.105,100.689,174.628,101.318,175.28,99.152"/>
	<g>
		<path fill="#2A660A" d="M181.527,126.918c0,0-11.231-2.223-15.941-9.738c-4.709-7.515-3.924-7.306-4.816-9.213
			c1.112,0.09,6.901,1.999,8.358,2.78C170.586,111.527,181.873,118.247,181.527,126.918z"/>
	</g>
	<g>
		<path fill="#193D06" d="M179.938,121.146c0,0-3.107,9.502-11.684,10.631c-8.576,1.129-8.299,0.488-10.457,0.492
			c0.164-0.998,2.609-5.563,3.556-6.582C162.301,124.667,170.379,117.062,179.938,121.146z"/>
	</g>
	<g>
		<path fill="#193D06" d="M197.76,112.766c0,0-3.107,9.504-11.684,10.633c-8.575,1.129-8.299,0.487-10.457,0.492
			c0.164-0.998,2.609-5.562,3.557-6.582C180.124,116.288,188.201,108.684,197.76,112.766z"/>
	</g>
	<g>
		<path fill="#2A660A" d="M176.514,119.386c0,0,2.436,11.188,10.039,15.753c7.604,4.565,7.38,3.785,9.303,4.643
			c-0.111-1.111-2.129-6.862-2.938-8.307C192.108,130.033,185.177,118.875,176.514,119.386z"/>
	</g>
	<g>
		<path fill="#1A4905" d="M177.304,120.438c0,0-4.793,10.397-0.505,19.111c4.289,8.715,4.572,7.952,5.846,9.922
			c0.6-0.945,2.34-6.809,2.49-8.484C185.287,139.312,185.813,125.896,177.304,120.438z"/>
	</g>
	<g>
		<path fill="#429611" d="M177.596,120.782c0,0-7.171,5.237-8.023,12.065c-0.852,6.825-0.369,6.422-0.372,8.055
			c0.753-0.428,4.199-3.664,4.968-4.69S180.677,126.768,177.596,120.782z"/>
	</g>
	<g>
		<path fill="#57BF13" d="M177.963,121.505c0,0-8.458,2.707-14.476-0.627c-6.017-3.334-5.407-3.487-6.728-4.446
			c0.789-0.355,5.435-1.232,6.718-1.25C164.76,115.165,174.943,115.489,177.963,121.505z"/>
	</g>
	<g>
		<path fill="#429611" d="M178.188,122.553c0,0,7.171-5.238,8.023-12.066c0.852-6.825,0.368-6.422,0.372-8.055
			c-0.753,0.428-4.199,3.664-4.968,4.69C180.846,108.148,175.106,116.568,178.188,122.553z"/>
	</g>
	<g>
		<path fill="#57BF13" d="M177.635,121.465c0,0,8.458-2.707,14.477,0.627c6.017,3.333,5.406,3.487,6.728,4.446
			c-0.79,0.356-5.436,1.233-6.718,1.25C190.839,127.805,180.654,127.48,177.635,121.465z"/>
	</g>
</g>
<g>
	<g opacity="0.2">
		<g>
			<path d="M268.075,62c0,0-6.527-9.939-3.209-18.93c3.316-8.99,3.723-8.256,4.796-10.312c0.767,0.891,3.428,6.572,3.822,8.223
				C273.877,42.631,276.312,55.906,268.075,62z"/>
		</g>
		<g>
			<path d="M270.626,61.941c0,0-10.894-4.396-14.197-12.877c-3.304-8.479-2.552-8.117-3.085-10.209
				c1.104,0.304,6.572,3.34,7.891,4.406C262.554,44.329,272.64,53.268,270.626,61.941z"/>
		</g>
		<g>
			<path d="M270.132,55.818c0,0-4.957,8.98-13.817,8.472c-8.861-0.509-8.459-1.101-10.635-1.511c0.357-0.975,3.698-5.107,4.85-5.952
				C251.68,55.98,261.282,49.868,270.132,55.818z"/>
		</g>
		<g>
			<path d="M289.705,50.794c0,0-4.957,8.981-13.817,8.472c-8.86-0.509-8.459-1.102-10.635-1.511
				c0.356-0.975,3.698-5.108,4.849-5.953S280.854,44.843,289.705,50.794z"/>
		</g>
		<g>
			<path d="M267.02,53.387c0,0,0.306,11.743,7.093,17.805c6.787,6.062,6.711,5.231,8.486,6.464c0.101-1.142-0.829-7.326-1.367-8.935
				C280.693,67.111,275.849,54.536,267.02,53.387z"/>
		</g>
		<g>
			<path d="M267.614,54.598c0,0-6.828,9.56-4.179,19.166c2.649,9.605,3.082,8.893,3.988,11.122c0.786-0.836,3.665-6.411,4.138-8.071
				C272.035,75.155,275.143,61.734,267.614,54.598z"/>
		</g>
		<g>
			<path d="M267.841,55.001c0,0-8.233,3.903-10.403,10.621c-2.169,6.716-1.604,6.403-1.921,8.047
				c0.841-0.286,4.937-2.887,5.909-3.774C262.398,69.009,269.798,61.625,267.841,55.001z"/>
		</g>
		<g>
			<path d="M268.073,55.801c0,0-9.045,1.104-14.47-3.412c-5.424-4.516-4.779-4.552-5.926-5.772c0.864-0.208,5.715-0.199,7.011,0.03
				C255.983,46.875,266.186,49.158,268.073,55.801z"/>
		</g>
		<g>
			<path d="M268.099,56.9c0,0,8.234-3.903,10.403-10.62c2.169-6.718,1.604-6.403,1.921-8.048c-0.841,0.285-4.936,2.887-5.908,3.773
				C273.543,42.893,266.142,50.277,268.099,56.9z"/>
		</g>
		<g>
			<path d="M267.751,55.697c0,0,9.044-1.104,14.47,3.412c5.425,4.516,4.779,4.553,5.927,5.773c-0.864,0.208-5.715,0.199-7.011-0.029
				C279.841,64.623,269.639,62.341,267.751,55.697z"/>
		</g>
	</g>
	<path fill="#1A4905" d="M267.037,32.051c0.747,0.867,3.341,6.405,3.725,8.014c0.384,1.609,2.758,14.547-5.271,20.487
		c0,0-6.361-9.688-3.128-18.45C265.595,33.34,265.991,34.057,267.037,32.051"/>
	<g>
		<path fill="#2A660A" d="M267.977,60.494c0,0-10.616-4.285-13.836-12.549c-3.219-8.264-2.487-7.912-3.007-9.951
			c1.076,0.296,6.405,3.255,7.69,4.295C260.109,43.329,269.939,52.041,267.977,60.494z"/>
	</g>
	<g>
		<path fill="#193D06" d="M267.496,54.527c0,0-4.831,8.753-13.467,8.257c-8.636-0.496-8.244-1.073-10.365-1.474
			c0.348-0.949,3.604-4.978,4.726-5.802C249.512,54.686,258.87,48.727,267.496,54.527z"/>
	</g>
	<g>
		<path fill="#193D06" d="M286.571,49.63c0,0-4.831,8.753-13.467,8.259c-8.635-0.496-8.244-1.074-10.364-1.474
			c0.348-0.95,3.604-4.978,4.726-5.802S277.945,43.83,286.571,49.63z"/>
	</g>
	<g>
		<path fill="#2A660A" d="M264.462,52.157c0,0,0.299,11.444,6.913,17.353c6.615,5.908,6.542,5.1,8.27,6.301
			c0.099-1.112-0.807-7.141-1.332-8.709C277.789,65.534,273.067,53.277,264.462,52.157z"/>
	</g>
	<g>
		<path fill="#1A4905" d="M265.042,53.338c0,0-6.654,9.317-4.073,18.68c2.582,9.361,3.004,8.666,3.886,10.84
			c0.767-0.815,3.573-6.25,4.034-7.868C269.351,73.373,272.379,60.292,265.042,53.338z"/>
	</g>
	<g>
		<path fill="#429611" d="M265.263,53.73c0,0-8.024,3.805-10.139,10.352c-2.114,6.546-1.564,6.24-1.873,7.844
			c0.82-0.279,4.811-2.814,5.758-3.679C259.956,67.382,267.17,60.188,265.263,53.73z"/>
	</g>
	<g>
		<path fill="#57BF13" d="M265.489,54.51c0,0-8.815,1.076-14.103-3.326c-5.287-4.4-4.658-4.437-5.776-5.627
			c0.842-0.203,5.57-0.193,6.833,0.03C253.706,45.811,263.649,48.036,265.489,54.51z"/>
	</g>
	<g>
		<path fill="#429611" d="M265.515,55.582c0,0,8.024-3.805,10.139-10.352c2.114-6.545,1.563-6.24,1.873-7.844
			c-0.82,0.28-4.811,2.814-5.758,3.68C270.82,41.93,263.607,49.126,265.515,55.582z"/>
	</g>
	<g>
		<path fill="#57BF13" d="M265.175,54.409c0,0,8.815-1.076,14.103,3.325c5.287,4.401,4.658,4.438,5.776,5.627
			c-0.842,0.203-5.57,0.195-6.833-0.03C276.958,63.107,267.015,60.884,265.175,54.409z"/>
	</g>
</g>
<path fill="#EEEEEE" d="M439,104.627c0,2.061-1.671,3.732-3.732,3.732H411.4c-2.062,0-3.732-1.672-3.732-3.732l0,0
	c0-2.061,1.671-3.732,3.732-3.732h23.867C437.329,100.896,439,102.566,439,104.627L439,104.627z"/>
</svg>
