<?xml version="1.0" encoding="utf-8"?>
<!-- Generator: Adobe Illustrator 16.0.0, SVG Export Plug-In . SVG Version: 6.00 Build 0)  -->
<!DOCTYPE svg PUBLIC "-//W3C//DTD SVG 1.1//EN" "http://www.w3.org/Graphics/SVG/1.1/DTD/svg11.dtd">
<svg version="1.1" id="Layer_2" xmlns="http://www.w3.org/2000/svg" xmlns:xlink="http://www.w3.org/1999/xlink" x="0px" y="0px"
	 width="1000px" height="200px" viewBox="-100 0 1000 200" enable-background="new -100 0 1000 200" xml:space="preserve">
<rect x="-100" fill="#B2AFEE" width="1000" height="200"/>
<path opacity="0.15" fill="#FFFFFF" enable-background="new    " d="M755.148,200H43.558c0,0-6.558-11-6.558-46.5S68.407,79,69,52.5
	S43.558,0,43.558,0h711.59c0,0,7.63,29.5,5.852,52.5c-1.781,23-10.305,49.236-12,73C747.304,149.264,755.148,200,755.148,200z"/>
<path opacity="0.15" fill="#FFFFFF" enable-background="new    " d="M736.808,200H72.323c0,0-3.323-20-3.323-55.5
	s9.414-69.5,9.967-96C79.521,22,72.323,0,72.323,0h664.483c0,0-8.305,25.5-9.966,48.5c-1.662,23,15.979,61.234,14.396,85
	C739.654,157.264,736.808,200,736.808,200z"/>
<path fill="#FFFFFF" d="M704.836,200H94.054c0,0-3.054-20-3.054-55.5s8.653-69.5,9.162-96C100.671,22,94.054,0,94.054,0h610.782
	c0,0-10.635,25.5-12.161,48.5c-1.528,23,12.325,65.5,18.825,86C718.696,157.195,704.836,200,704.836,200z"/>
<path fill="#F3F1C9" d="M699.5,200h-600c0,0-3-20-3-55.5s8.5-69.5,9-96S99.5,0,99.5,0h600c0,0-7.5,25.5-9,48.5
	s8.75,64.5,14.75,85.25C711.863,156.62,699.5,200,699.5,200z"/>
<linearGradient id="SVGID_1_" gradientUnits="userSpaceOnUse" x1="-266.3872" y1="741" x2="262.6211" y2="741" gradientTransform="matrix(1 0 0 1 405 -641)">
	<stop  offset="0" style="stop-color:#77EA5C"/>
	<stop  offset="1" style="stop-color:#65D44B"/>
</linearGradient>
<path fill="url(#SVGID_1_)" d="M656.073,200H142.07c0,0-5.57-33.5-2.57-55.5c2.898-21.257,18-68.5,17.71-96
	C156.973,25.987,142.07,0,142.07,0h514.003c0,0-17.349,32.5-17.71,48.5C638,64.5,666,113.999,667.5,133.5S656.073,200,656.073,200z"
	/>
<g>
	
		<linearGradient id="SVGID_2_" gradientUnits="userSpaceOnUse" x1="-269.4912" y1="741.001" x2="264.4863" y2="741.001" gradientTransform="matrix(1 0 0 1 405 -641)">
		<stop  offset="0" style="stop-color:#77EA5C"/>
		<stop  offset="1" style="stop-color:#65D44B"/>
	</linearGradient>
	<polygon fill="url(#SVGID_2_)" points="657.041,198.041 650.551,192.305 645.028,199.135 639.504,197.21 633.979,195.919 
		628.451,189.861 622.926,200.021 617.402,193.924 611.879,197.448 606.356,189.852 600.834,196.764 595.311,195.479 
		589.787,198.334 584.263,192.243 578.737,199.744 573.21,195.535 567.685,189.74 562.16,198.331 556.636,195.843 551.112,192.264 
		545.589,199.79 540.064,192.195 534.539,195.917 529.012,197.557 523.485,196.164 517.96,190.3 512.436,196.584 506.912,194.843 
		501.387,195.445 495.861,195.561 490.334,192.869 484.807,191.316 479.282,199.967 473.757,193.739 468.232,193.096 
		462.706,198.277 457.179,191.318 451.651,197.828 446.126,192.729 440.601,190.162 435.075,192.71 429.547,192.573 424.02,196.076 
		418.494,193.377 412.968,195.562 407.441,196.414 401.913,200.266 396.386,195.775 390.86,195.303 385.333,197.797 
		379.805,198.634 374.278,197.172 368.751,195.195 363.224,193.672 357.696,192.02 352.169,197.557 346.641,190.434 
		341.113,192.967 335.59,191.044 330.062,200.041 324.536,192.348 319.013,190.655 313.49,197.843 307.964,194.482 302.435,199.146 
		296.909,197.391 291.385,192.693 285.858,198.825 280.33,194.218 274.804,192.78 269.277,198.605 263.748,197.139 258.221,194.766 
		252.692,193.093 247.164,195.418 241.635,199.511 236.106,199.068 230.576,195.646 225.047,199.807 219.517,199.314 
		213.986,192.686 208.455,190.666 202.925,198.1 197.395,200.076 191.869,199.398 186.34,193.346 180.808,195.412 175.277,193.271 
		169.745,198.684 164.212,190.613 158.682,194.962 153.147,195.827 147.609,191.742 140.906,198.49 145.016,189.229 
		138.689,184.756 139.388,179.324 135.509,174.333 142.367,168.498 137.128,163.492 140.541,158.113 143.052,152.952 
		141.509,147.736 137.073,141.926 135.638,135.941 145.328,132.368 141.628,125.914 146.471,121.465 150.468,116.833 
		151.556,111.462 145.148,104.227 152.149,100.305 147.32,93.526 152.893,89.194 152.625,83.527 154.162,78.25 151.101,72.17 
		151.637,66.823 160.654,62.426 154.188,56.377 155.358,51.096 152.876,46.103 160.187,39.448 155.641,34.743 149.229,31.065 
		150.385,25.018 146.112,20.981 143.327,16.428 148.527,7.754 142.291,5.557 147.592,1.401 153.115,7.573 158.64,6.112 
		164.165,8.324 169.692,9.748 175.217,7.443 180.741,4.578 186.265,2.623 191.788,6.419 197.31,3.518 202.833,2.059 208.356,4.083 
		213.881,6.475 219.406,-0.263 224.934,1.078 230.459,6.759 235.984,3.969 241.507,0.119 247.031,1.706 252.555,6.336 
		258.079,5.805 263.604,9.463 269.132,5.725 274.658,8.067 280.184,3.16 285.708,0.821 291.232,4.499 296.756,3.271 302.282,8.436 
		307.81,0.142 313.336,1.774 318.862,9.297 324.387,5.317 329.912,10.051 335.438,1.01 340.965,8.631 346.492,3.372 352.018,7.836 
		357.543,8.472 363.069,8.979 368.596,2.449 374.124,4.077 379.65,2.823 385.176,7.129 390.702,5.412 396.23,5.547 401.757,7.12 
		407.284,4.362 412.811,0.847 418.339,6.354 423.866,2.317 429.393,4.325 434.92,1.378 440.448,9.644 445.975,8.645 451.502,3.604 
		457.03,6.332 462.554,2.838 468.081,-0.099 473.607,1.128 479.131,6.118 484.654,5.089 490.179,8.758 495.709,4.902 501.234,2.884 
		506.759,4.11 512.285,3.482 517.814,9.296 523.34,6.089 528.867,6.904 534.396,-0.018 539.923,6.037 545.452,9.309 550.979,0.36 
		556.509,0.151 562.037,2.127 567.567,2.136 573.097,3.916 578.627,8.807 584.158,2.022 589.688,2.322 595.219,10.285 
		600.748,5.898 606.274,1.377 611.804,3.332 617.336,6.99 622.867,9.847 628.398,2.581 633.932,2.307 639.461,1.693 644.996,2.926 
		650.535,4.15 656.595,3.729 657.263,11.844 653.043,15.812 647.662,19.326 646.872,25.033 647.601,31.265 639.429,34.036 
		641.666,40.629 639.253,45.65 633.222,50.954 636.129,57.053 642.062,61.078 639.067,67.861 647.178,70.48 644.902,77.242 
		644.926,83.131 654.269,84.887 650.48,92.479 655.749,96.033 659.391,100.331 663.335,104.546 660.391,111.629 659.92,117.527 
		661.084,122.65 662.085,127.631 664.356,132.079 666.963,137.164 663.168,142.146 669.486,148.266 665.457,153.119 668.38,159.125 
		665.933,164.172 667.058,169.957 660.345,173.952 658.1,178.915 659.236,184.732 657.472,189.818 	"/>
</g>
<polygon fill="#4B4B41" points="509,200 422,200 420,135 425,55 422,0 509,0 506,94 "/>
<path opacity="0.2" fill="#231F20" enable-background="new    " d="M443,107.627c0,2.061-1.671,3.732-3.732,3.732H415.4
	c-2.062,0-3.732-1.672-3.732-3.732l0,0c0-2.061,1.671-3.732,3.732-3.732h23.867C441.329,103.896,443,105.566,443,107.627
	L443,107.627z"/>
<rect x="461" y="7" fill="#F3EB1E" width="5" height="26"/>
<rect x="461" y="57" fill="#F3EB1E" width="5" height="18.667"/>
<rect x="461.667" y="154.625" fill="#F3EB1E" width="5" height="18.667"/>
<rect x="462.167" y="100.333" fill="#F3EB1E" width="4" height="29.333"/>
<g>
	<g opacity="0.2">
		<g>
			<path d="M214.984,169.068c0,0-3.502-11.363,2.187-19.074c5.688-7.711,5.875-6.895,7.477-8.57
				c0.489,1.068,1.463,7.268,1.382,8.961C225.949,152.081,224.593,165.509,214.984,169.068z"/>
		</g>
		<g>
			<path d="M217.451,169.723c0,0-9.239-7.256-10.051-16.32c-0.813-9.062-0.192-8.506-0.121-10.666
				c0.976,0.602,5.382,5.037,6.352,6.431C214.601,150.559,221.8,161.952,217.451,169.723z"/>
		</g>
		<g>
			<path d="M218.681,163.705c0,0-7.26,7.246-15.629,4.291c-8.369-2.955-7.818-3.412-9.793-4.412
				c0.614-0.837,4.974-3.876,6.314-4.367C200.914,158.725,211.837,155.525,218.681,163.705z"/>
		</g>
		<g>
			<path d="M238.878,164.327c0,0-7.26,7.246-15.629,4.291c-8.368-2.955-7.818-3.413-9.794-4.412
				c0.614-0.837,4.974-3.876,6.314-4.368C221.111,159.348,232.035,156.146,238.878,164.327z"/>
		</g>
		<g>
			<path d="M216.369,160.502c0,0-2.975,11.364,1.856,19.076c4.832,7.711,4.99,6.893,6.351,8.57c0.415-1.068,1.243-7.269,1.174-8.961
				C225.681,177.491,224.529,164.062,216.369,160.502z"/>
		</g>
		<g>
			<path d="M216.603,161.832c0,0-9.219,7.281-9.348,17.245c-0.129,9.963,0.484,9.397,0.734,11.792
				c0.987-0.584,5.305-5.139,6.222-6.602C215.127,182.807,221.847,170.781,216.603,161.832z"/>
		</g>
		<g>
			<path d="M216.708,162.282c0,0-8.995,1.457-12.948,7.305c-3.953,5.847-3.323,5.703-4.085,7.195
				c0.888-0.041,5.545-1.399,6.726-1.98C207.581,174.22,216.745,169.188,216.708,162.282z"/>
		</g>
		<g>
			<path d="M216.708,163.115c0,0-8.995-1.458-12.948-7.305c-3.953-5.849-3.323-5.703-4.085-7.195c0.888,0.041,5.545,1.4,6.726,1.979
				C207.581,151.176,216.745,156.208,216.708,163.115z"/>
		</g>
		<g>
			<path d="M216.428,164.177c0,0,8.995-1.457,12.948-7.305c3.954-5.849,3.323-5.703,4.085-7.195
				c-0.888,0.041-5.544,1.399-6.725,1.98C225.556,152.239,216.392,157.271,216.428,164.177z"/>
		</g>
		<g>
			<path d="M216.428,162.925c0,0,8.995,1.457,12.948,7.306c3.954,5.848,3.323,5.703,4.085,7.194
				c-0.888-0.041-5.544-1.399-6.725-1.979C225.556,174.864,216.392,169.832,216.428,162.925z"/>
		</g>
	</g>
	<path fill="#1A4905" d="M222.324,140.016c0.476,1.041,1.427,7.082,1.347,8.733c-0.079,1.651-1.4,14.74-10.765,18.21
		c0,0-3.413-11.076,2.131-18.591C220.58,140.852,220.762,141.648,222.324,140.016"/>
	<g>
		<path fill="#2A660A" d="M215.31,167.595c0,0-9.004-7.071-9.796-15.905c-0.792-8.832-0.187-8.291-0.118-10.395
			c0.951,0.584,5.246,4.91,6.191,6.266C212.531,148.918,219.548,160.021,215.31,167.595z"/>
	</g>
	<g>
		<path fill="#193D06" d="M216.509,161.73c0,0-7.076,7.062-15.233,4.182c-8.156-2.88-7.62-3.326-9.545-4.301
			c0.599-0.815,4.847-3.777,6.154-4.256C199.191,156.876,209.838,153.758,216.509,161.73z"/>
	</g>
	<g>
		<path fill="#193D06" d="M236.193,162.336c0,0-7.076,7.062-15.233,4.184c-8.156-2.879-7.619-3.326-9.545-4.301
			c0.599-0.816,4.848-3.777,6.154-4.257C218.876,157.482,229.523,154.365,236.193,162.336z"/>
	</g>
	<g>
		<path fill="#2A660A" d="M214.254,158.609c0,0-2.899,11.076,1.81,18.592s4.863,6.719,6.189,8.353
			c0.405-1.04,1.212-7.081,1.145-8.733C223.331,175.167,222.208,162.08,214.254,158.609z"/>
	</g>
	<g>
		<path fill="#1A4905" d="M214.482,159.905c0,0-8.985,7.096-9.111,16.807s0.473,9.16,0.715,11.494
			c0.963-0.57,5.171-5.008,6.064-6.435C213.044,180.348,219.594,168.627,214.482,159.905z"/>
	</g>
	<g>
		<path fill="#429611" d="M214.586,160.344c0,0-8.766,1.42-12.62,7.12c-3.853,5.699-3.239,5.558-3.982,7.013
			c0.865-0.041,5.404-1.365,6.555-1.931S214.621,167.075,214.586,160.344z"/>
	</g>
	<g>
		<path fill="#57BF13" d="M214.586,161.155c0,0-8.766-1.421-12.62-7.12c-3.853-5.699-3.239-5.559-3.982-7.014
			c0.865,0.041,5.404,1.363,6.555,1.932C205.689,149.52,214.621,154.424,214.586,161.155z"/>
	</g>
	<g>
		<path fill="#429611" d="M214.312,162.191c0,0,8.767-1.42,12.62-7.121c3.853-5.698,3.239-5.56,3.982-7.012
			c-0.866,0.039-5.404,1.362-6.555,1.93C223.208,150.557,214.277,155.46,214.312,162.191z"/>
	</g>
	<g>
		<path fill="#57BF13" d="M214.312,160.971c0,0,8.767,1.42,12.62,7.12c3.853,5.699,3.239,5.558,3.982,7.013
			c-0.866-0.041-5.404-1.363-6.555-1.932C223.208,172.605,214.277,167.702,214.312,160.971z"/>
	</g>
</g>
<g>
	<g opacity="0.2">
		<g>
			<path d="M181.905,128.379c0,0-8.271-8.543-6.696-17.995c1.576-9.452,2.113-8.807,2.781-11.028
				c0.92,0.731,4.598,5.814,5.293,7.362C183.979,108.266,188.857,120.852,181.905,128.379z"/>
		</g>
		<g>
			<path d="M184.4,127.843c0,0-11.523-2.28-16.355-9.991s-4.027-7.498-4.942-9.453c1.142,0.093,7.081,2.052,8.576,2.854
				C173.174,112.053,184.755,118.945,184.4,127.843z"/>
		</g>
		<g>
			<path d="M182.769,121.922c0,0-3.188,9.75-11.987,10.908c-8.799,1.159-8.515,0.501-10.729,0.506
				c0.167-1.023,2.677-5.709,3.649-6.755C164.674,125.534,172.961,117.732,182.769,121.922z"/>
		</g>
		<g>
			<path d="M201.055,113.323c0,0-3.188,9.75-11.987,10.907c-8.798,1.16-8.516,0.502-10.729,0.506
				c0.168-1.024,2.677-5.709,3.649-6.754C182.96,116.936,191.248,109.133,201.055,113.323z"/>
		</g>
		<g>
			<path d="M179.256,120.115c0,0,2.499,11.479,10.3,16.162c7.802,4.685,7.572,3.884,9.545,4.762
				c-0.114-1.141-2.186-7.041-3.015-8.52C195.257,131.039,188.145,119.591,179.256,120.115z"/>
		</g>
		<g>
			<path d="M180.067,121.193c0,0-4.918,10.668-0.518,19.608c4.4,8.94,4.691,8.158,5.999,10.181c0.615-0.969,2.4-6.984,2.555-8.705
				C188.257,140.561,188.798,126.794,180.067,121.193z"/>
		</g>
		<g>
			<path d="M180.366,121.548c0,0-7.357,5.375-8.231,12.38c-0.874,7.004-0.377,6.59-0.381,8.266c0.772-0.438,4.309-3.76,5.098-4.812
				C177.64,136.326,183.528,127.688,180.366,121.548z"/>
		</g>
		<g>
			<path d="M180.743,122.29c0,0-8.678,2.776-14.853-0.644c-6.173-3.422-5.546-3.578-6.902-4.562c0.81-0.366,5.577-1.266,6.893-1.283
				C167.196,115.785,177.646,116.117,180.743,122.29z"/>
		</g>
		<g>
			<path d="M180.975,123.364c0,0,7.357-5.375,8.231-12.38c0.875-7.004,0.378-6.59,0.381-8.267c-0.773,0.438-4.309,3.761-5.097,4.813
				C183.701,108.585,177.812,117.225,180.975,123.364z"/>
		</g>
		<g>
			<path d="M180.407,122.248c0,0,8.678-2.777,14.853,0.645c6.174,3.42,5.547,3.576,6.903,4.562c-0.81,0.365-5.577,1.265-6.893,1.281
				S183.505,128.421,180.407,122.248z"/>
		</g>
	</g>
	<path fill="#1A4905" d="M175.28,99.153c0.896,0.712,4.481,5.667,5.159,7.176c0.679,1.508,5.432,13.772-1.343,21.11
		c0,0-8.062-8.325-6.526-17.537C174.105,100.689,174.628,101.318,175.28,99.153"/>
	<g>
		<path fill="#2A660A" d="M181.527,126.918c0,0-11.231-2.223-15.941-9.738c-4.709-7.515-3.924-7.306-4.816-9.213
			c1.112,0.09,6.901,1.999,8.358,2.78C170.586,111.527,181.873,118.247,181.527,126.918z"/>
	</g>
	<g>
		<path fill="#193D06" d="M179.938,121.146c0,0-3.107,9.502-11.684,10.631c-8.576,1.129-8.299,0.488-10.457,0.492
			c0.164-0.998,2.609-5.563,3.556-6.582C162.301,124.667,170.379,117.062,179.938,121.146z"/>
	</g>
	<g>
		<path fill="#193D06" d="M197.76,112.766c0,0-3.107,9.504-11.684,10.633c-8.575,1.129-8.299,0.487-10.457,0.492
			c0.164-0.998,2.609-5.562,3.557-6.582C180.124,116.288,188.201,108.684,197.76,112.766z"/>
	</g>
	<g>
		<path fill="#2A660A" d="M176.514,119.386c0,0,2.436,11.188,10.039,15.753c7.604,4.565,7.38,3.785,9.303,4.643
			c-0.111-1.111-2.129-6.862-2.938-8.307C192.108,130.033,185.177,118.875,176.514,119.386z"/>
	</g>
	<g>
		<path fill="#1A4905" d="M177.304,120.438c0,0-4.793,10.397-0.505,19.111c4.289,8.715,4.572,7.952,5.846,9.922
			c0.6-0.945,2.34-6.809,2.49-8.484C185.287,139.312,185.813,125.896,177.304,120.438z"/>
	</g>
	<g>
		<path fill="#429611" d="M177.596,120.782c0,0-7.171,5.237-8.023,12.065c-0.852,6.825-0.369,6.422-0.372,8.055
			c0.753-0.428,4.199-3.664,4.968-4.69S180.677,126.768,177.596,120.782z"/>
	</g>
	<g>
		<path fill="#57BF13" d="M177.963,121.505c0,0-8.458,2.707-14.476-0.627c-6.017-3.334-5.407-3.487-6.728-4.446
			c0.789-0.355,5.435-1.232,6.718-1.25C164.76,115.165,174.943,115.489,177.963,121.505z"/>
	</g>
	<g>
		<path fill="#429611" d="M178.188,122.553c0,0,7.171-5.238,8.023-12.066c0.852-6.825,0.368-6.422,0.372-8.055
			c-0.753,0.428-4.199,3.664-4.968,4.69C180.846,108.148,175.106,116.568,178.188,122.553z"/>
	</g>
	<g>
		<path fill="#57BF13" d="M177.635,121.465c0,0,8.458-2.707,14.477,0.627c6.017,3.333,5.406,3.487,6.728,4.446
			c-0.79,0.356-5.436,1.233-6.718,1.25C190.839,127.805,180.654,127.48,177.635,121.465z"/>
	</g>
</g>
<g>
	<g opacity="0.2">
		<g>
			<path d="M268.075,62c0,0-6.527-9.94-3.209-18.93c3.316-8.99,3.723-8.256,4.796-10.312c0.767,0.89,3.428,6.572,3.822,8.223
				C273.877,42.631,276.312,55.906,268.075,62z"/>
		</g>
		<g>
			<path d="M270.626,61.941c0,0-10.894-4.396-14.197-12.876c-3.304-8.479-2.552-8.118-3.085-10.21
				c1.104,0.304,6.572,3.34,7.891,4.407C262.554,44.329,272.64,53.267,270.626,61.941z"/>
		</g>
		<g>
			<path d="M270.132,55.819c0,0-4.957,8.98-13.817,8.471c-8.861-0.509-8.459-1.101-10.635-1.511c0.357-0.975,3.698-5.107,4.85-5.952
				C251.68,55.981,261.282,49.868,270.132,55.819z"/>
		</g>
		<g>
			<path d="M289.705,50.794c0,0-4.957,8.981-13.817,8.472c-8.86-0.509-8.459-1.102-10.635-1.511
				c0.356-0.975,3.698-5.108,4.849-5.953C271.253,50.957,280.854,44.843,289.705,50.794z"/>
		</g>
		<g>
			<path d="M267.02,53.387c0,0,0.306,11.743,7.093,17.805c6.787,6.061,6.711,5.231,8.486,6.463c0.101-1.142-0.829-7.326-1.367-8.934
				C280.693,67.112,275.849,54.536,267.02,53.387z"/>
		</g>
		<g>
			<path d="M267.614,54.598c0,0-6.828,9.559-4.179,19.166c2.649,9.605,3.082,8.892,3.988,11.122
				c0.786-0.836,3.665-6.412,4.138-8.072C272.035,75.155,275.143,61.734,267.614,54.598z"/>
		</g>
		<g>
			<path d="M267.841,55.001c0,0-8.233,3.903-10.403,10.621c-2.169,6.716-1.604,6.403-1.921,8.047
				c0.841-0.286,4.937-2.887,5.909-3.774C262.398,69.009,269.798,61.625,267.841,55.001z"/>
		</g>
		<g>
			<path d="M268.073,55.801c0,0-9.045,1.104-14.47-3.412c-5.424-4.516-4.779-4.552-5.926-5.773c0.864-0.208,5.715-0.199,7.011,0.03
				C255.983,46.875,266.186,49.158,268.073,55.801z"/>
		</g>
		<g>
			<path d="M268.099,56.9c0,0,8.234-3.903,10.403-10.62c2.169-6.717,1.604-6.403,1.921-8.048c-0.841,0.286-4.936,2.887-5.908,3.774
				C273.543,42.893,266.142,50.277,268.099,56.9z"/>
		</g>
		<g>
			<path d="M267.751,55.697c0,0,9.044-1.104,14.47,3.413c5.425,4.515,4.779,4.552,5.927,5.773c-0.864,0.208-5.715,0.199-7.011-0.03
				C279.841,64.623,269.639,62.341,267.751,55.697z"/>
		</g>
	</g>
	<path fill="#1A4905" d="M267.037,32.051c0.747,0.867,3.341,6.405,3.725,8.014c0.384,1.609,2.758,14.547-5.271,20.487
		c0,0-6.361-9.688-3.128-18.45C265.595,33.34,265.991,34.056,267.037,32.051"/>
	<g>
		<path fill="#2A660A" d="M267.977,60.494c0,0-10.616-4.285-13.836-12.549c-3.219-8.264-2.487-7.912-3.007-9.951
			c1.076,0.296,6.405,3.255,7.69,4.295C260.109,43.329,269.939,52.041,267.977,60.494z"/>
	</g>
	<g>
		<path fill="#193D06" d="M267.496,54.527c0,0-4.831,8.753-13.467,8.257c-8.636-0.496-8.244-1.073-10.365-1.473
			c0.348-0.95,3.604-4.978,4.726-5.802C249.512,54.686,258.87,48.727,267.496,54.527z"/>
	</g>
	<g>
		<path fill="#193D06" d="M286.571,49.63c0,0-4.831,8.753-13.467,8.258c-8.635-0.496-8.244-1.074-10.364-1.473
			c0.348-0.95,3.604-4.978,4.726-5.802C268.588,49.789,277.945,43.83,286.571,49.63z"/>
	</g>
	<g>
		<path fill="#2A660A" d="M264.462,52.157c0,0,0.299,11.445,6.913,17.353c6.615,5.908,6.542,5.1,8.27,6.3
			c0.099-1.112-0.807-7.14-1.332-8.708C277.789,65.534,273.067,53.277,264.462,52.157z"/>
	</g>
	<g>
		<path fill="#1A4905" d="M265.042,53.338c0,0-6.654,9.317-4.073,18.679c2.582,9.362,3.004,8.667,3.886,10.84
			c0.767-0.815,3.573-6.25,4.034-7.868C269.351,73.373,272.379,60.292,265.042,53.338z"/>
	</g>
	<g>
		<path fill="#429611" d="M265.263,53.731c0,0-8.024,3.804-10.139,10.351c-2.114,6.546-1.564,6.24-1.873,7.844
			c0.82-0.279,4.811-2.814,5.758-3.679C259.956,67.382,267.17,60.187,265.263,53.731z"/>
	</g>
	<g>
		<path fill="#57BF13" d="M265.489,54.51c0,0-8.815,1.076-14.103-3.326c-5.287-4.401-4.658-4.437-5.776-5.627
			c0.842-0.203,5.57-0.194,6.833,0.03C253.706,45.811,263.649,48.036,265.489,54.51z"/>
	</g>
	<g>
		<path fill="#429611" d="M265.515,55.582c0,0,8.024-3.805,10.139-10.351c2.114-6.546,1.563-6.241,1.873-7.844
			c-0.82,0.28-4.811,2.814-5.758,3.679C270.82,41.929,263.607,49.126,265.515,55.582z"/>
	</g>
	<g>
		<path fill="#57BF13" d="M265.175,54.409c0,0,8.815-1.076,14.103,3.326c5.287,4.401,4.658,4.437,5.776,5.626
			c-0.842,0.203-5.57,0.195-6.833-0.03C276.958,63.108,267.015,60.884,265.175,54.409z"/>
	</g>
</g>
<path fill="#EEEEEE" d="M439,104.627c0,2.061-1.671,3.732-3.732,3.732H411.4c-2.062,0-3.732-1.672-3.732-3.732l0,0
	c0-2.061,1.671-3.732,3.732-3.732h23.867C437.329,100.896,439,102.566,439,104.627L439,104.627z"/>
</svg>
