<?xml version="1.0" encoding="utf-8"?>
<!-- Generator: Adobe Illustrator 16.0.0, SVG Export Plug-In . SVG Version: 6.00 Build 0)  -->
<!DOCTYPE svg PUBLIC "-//W3C//DTD SVG 1.1//EN" "http://www.w3.org/Graphics/SVG/1.1/DTD/svg11.dtd">
<svg version="1.1" id="Layer_1" xmlns="http://www.w3.org/2000/svg" xmlns:xlink="http://www.w3.org/1999/xlink" x="0px" y="0px"
	 viewBox="0 0 146.99 271.399" enable-background="new 0 0 146.99 271.399"
	 xml:space="preserve">
<rect x="27.99" y="24.399" opacity="0.2" width="119" height="247"/>
<path fill="#27AAE1" d="M128.211,220.303v-63.945h1.623c4.277,0,7.763-5.169,7.763-11.534h-9.386V34.337
	c0-13.957-7.839-25.951-19.081-31.316C105.107,1.098,100.657,0,95.959,0H38.618c-6.894,0-13.289,2.337-18.537,6.266
	c-8.29,6.216-13.714,16.461-13.714,28.072v110.486H0c0,5.662,2.752,10.349,6.367,11.332v64.147
	c0,26.595,14.432,34.339,32.251,34.339h57.341C113.759,254.642,128.211,246.897,128.211,220.303z"/>
<path fill="#EF4136" d="M128.211,220.303v-63.945h1.623c4.277,0,7.763-5.169,7.763-11.534h-9.386V34.337
	c0-13.957-7.839-25.951-19.081-31.316C105.107,1.098,100.657,0,95.959,0H38.618c-6.894,0-13.289,2.337-18.537,6.266
	c-8.29,6.216-13.714,16.461-13.714,28.072v110.486H0c0,5.662,2.752,10.349,6.367,11.332v64.147
	c0,26.595,14.432,34.339,32.251,34.339h57.341C113.759,254.642,128.211,246.897,128.211,220.303z M92.846,62.604H72.911H60.68
	H39.936H34.03c0,0-5.036-25.964,5.467-34.079h0.438h32.976h19.935h1.265c10.489,8.115,5.45,34.079,5.45,34.079H92.846z
	 M115.187,80.799v23.169v3.246v23.164c0,5.119-4.151,9.256-9.276,9.256v-32.42v-3.246V71.532
	C111.035,71.532,115.187,75.683,115.187,80.799z M20.081,107.214v-3.24V71.532c5.125,0,9.276,4.15,9.276,9.267v23.175v3.24v23.164
	c0,5.119-4.151,9.261-9.276,9.261V107.214z M64.497,172.621v-0.032c-13.494-0.186-22.268-1.219-27.971-2.549
	c-6.269-1.451-8.796-3.275-9.763-4.734c-0.009-0.021-0.025-0.031-0.034-0.061c-0.171-0.27-0.291-0.533-0.37-0.773
	c-0.328-1.017,0.054-1.711,0.054-1.711L37.6,145.224c3.009,2.379,22.38,3.133,29.693,3.33c7.317-0.197,26.676-0.951,29.688-3.33
	l11.182,17.537c0,0,0.382,0.694,0.067,1.711c-0.086,0.235-0.203,0.491-0.374,0.754c-0.019,0.037-0.028,0.059-0.05,0.08
	c-0.958,1.459-3.485,3.283-9.775,4.734c-5.678,1.33-14.451,2.363-27.945,2.549v0.032c-0.947,0-1.886,0-2.793-0.009
	C66.377,172.621,65.458,172.621,64.497,172.621z M54.593,242.718v-59.359H64.61v59.359H54.593z M74.588,242.718v-59.359h10.01
	v59.359H74.588z"/>
<g>
	<rect x="54.593" y="183.358" width="10.018" height="59.359"/>
	<rect x="74.588" y="183.358" width="10.01" height="59.359"/>
</g>
</svg>
