<?xml version="1.0" encoding="utf-8"?>
<!-- Generator: Adobe Illustrator 16.0.0, SVG Export Plug-In . SVG Version: 6.00 Build 0)  -->
<!DOCTYPE svg PUBLIC "-//W3C//DTD SVG 1.1//EN" "http://www.w3.org/Graphics/SVG/1.1/DTD/svg11.dtd">
<svg version="1.1" id="Layer_1" xmlns="http://www.w3.org/2000/svg" xmlns:xlink="http://www.w3.org/1999/xlink" x="0px" y="0px"
	 viewBox="0 0 214.765 168.594" enable-background="new 0 0 214.765 168.594"
	 xml:space="preserve">
<path opacity="0.2" fill-rule="evenodd" clip-rule="evenodd" fill="#FFFFFF" d="M53.464,10.44
	C75.905,26.535,172.842-2.454,188.417,50.885s39.129,63.732,17.867,91.994c-26.407,35.101-183.5,48.5-202.464-54.659
	C-9.093,17.973,11.541-19.624,53.464,10.44z"/>
<path opacity="0.2" fill-rule="evenodd" clip-rule="evenodd" fill="#FFFFFF" d="M81.531,10.44
	c18.701,13.412,78.666,0.648,91.645,45.098s62.793,46.44-0.892,84.188C108.601,177.472,4.946,144.402,19.345,86.65
	S46.596-14.613,81.531,10.44z"/>
<radialGradient id="SVGID_1_" cx="91.3979" cy="55.3613" r="69.9406" gradientUnits="userSpaceOnUse">
	<stop  offset="0" style="stop-color:#F3F0C9"/>
	<stop  offset="0.2347" style="stop-color:#FFFFFF"/>
	<stop  offset="1" style="stop-color:#F3F0C9"/>
</radialGradient>
<path fill-rule="evenodd" clip-rule="evenodd" fill="url(#SVGID_1_)" d="M89.1,19.879c15.585,11.177,60.559,2.496,71.375,39.537
	s65.88,34.507,12.81,65.963S32.663,133.742,44.663,85.616C56.662,37.49,59.988-0.999,89.1,19.879z"/>
<g>
	<linearGradient id="SVGID_2_" gradientUnits="userSpaceOnUse" x1="59.1816" y1="82.6929" x2="169.1157" y2="82.6929">
		<stop  offset="0" style="stop-color:#8BC758"/>
		<stop  offset="1" style="stop-color:#75C04F"/>
	</linearGradient>
	<polygon fill-rule="evenodd" clip-rule="evenodd" fill="url(#SVGID_2_)" points="88.004,33.644 92.332,38.508 97.852,44.083
		105.661,43.109 113.314,43.259 117.424,52.386 123.157,56.271 129.549,59.004 134.833,63.465 143.876,66.431 142.848,75.154
		141.084,84.108 148.507,88.116 156.33,88.072 161.164,96.066 169.116,93.875 165.098,99.464 163.959,107.119 156.993,110.044
		152.164,114.835 146.69,119.312 141.882,125.281 136.137,131.226 127.15,126.652 120.252,127.625 113.226,130.216 106.417,126.234
		98.096,131.742 91.387,127.888 86.547,120.686 75.837,125.178 73.268,115.692 69.858,109.256 61.18,106.884 60.086,99.23
		60.664,92.144 61.854,85.635 62.893,78.022 64.206,70.517 59.182,62.045 69.909,56.053 70.877,48.717 72.346,41.976 71.001,33.69
		77.753,35.781 	"/>
</g>
<g>
	<g opacity="0.2">
		<g>
			<path d="M116.012,68.77c0,0-2.895-13.722,4.61-22.168c7.508-8.447,7.639-7.467,9.701-9.264c0.459,1.307,0.939,8.691,0.662,10.673
				C130.708,49.993,127.677,65.618,116.012,68.77z"/>
		</g>
		<g>
			<path d="M118.839,69.801c0,0-10.074-9.51-10.057-20.242c0.016-10.731,0.686-10.012,1-12.539c1.082,0.809,5.781,6.492,6.772,8.231
				C117.543,46.99,124.779,61.142,118.839,69.801z"/>
		</g>
		<g>
			<path d="M120.927,62.866c0,0-9.303,7.732-18.814,3.365c-9.511-4.368-8.815-4.845-11.029-6.23c0.811-0.917,6.257-4.02,7.883-4.453
				C100.594,55.112,113.767,52.526,120.927,62.866z"/>
		</g>
		<g>
			<path d="M144.582,65.761c0,0-9.303,7.732-18.815,3.365c-9.511-4.367-8.816-4.846-11.029-6.23c0.812-0.917,6.258-4.02,7.884-4.453
				C124.249,58.008,137.42,55.421,144.582,65.761z"/>
		</g>
		<g>
			<path d="M118.556,58.857c0,0-4.713,13.028,0.135,22.602c4.85,9.573,5.123,8.63,6.542,10.745c0.601-1.21,2.237-8.4,2.339-10.398
				C127.671,79.808,127.759,63.914,118.556,58.857z"/>
		</g>
		<g>
			<path d="M118.687,60.443c0,0-11.607,7.563-12.826,19.251c-1.219,11.688-0.438,11.09-0.4,13.928
				c1.221-0.58,6.78-5.466,8.013-7.086C114.708,84.919,123.888,71.515,118.687,60.443z"/>
		</g>
		<g>
			<path d="M118.763,60.983c0,0-10.72,0.748-15.989,7.192c-5.27,6.443-4.515,6.341-5.569,8.012c1.049,0.047,6.662-1.05,8.111-1.604
				C106.765,74.026,118.066,69.099,118.763,60.983z"/>
		</g>
		<g>
			<path d="M118.674,61.961c0,0-10.407-2.675-14.424-9.967c-4.017-7.291-3.292-7.053-4.027-8.888
				c1.038,0.144,6.361,2.238,7.687,3.047C109.234,46.962,119.457,53.854,118.674,61.961z"/>
		</g>
		<g>
			<path d="M118.232,63.179c0,0,10.719-0.747,15.987-7.192c5.271-6.443,4.516-6.342,5.57-8.012c-1.047-0.047-6.662,1.049-8.11,1.605
				C130.23,50.136,118.927,55.064,118.232,63.179z"/>
		</g>
		<g>
			<path d="M118.366,61.708c0,0,10.406,2.675,14.423,9.967c4.017,7.291,3.293,7.054,4.027,8.888
				c-1.037-0.144-6.361-2.238-7.686-3.047C127.804,76.708,117.582,69.815,118.366,61.708z"/>
		</g>
	</g>
	<path fill="#284922" d="M127.744,35.434c0.448,1.273,0.918,8.47,0.646,10.402c-0.27,1.932-3.224,17.161-14.594,20.232
		c0,0-2.822-13.373,4.494-21.605S125.736,37.185,127.744,35.434"/>
	<g>
		<path fill="#2F6733" d="M116.55,67.073c0,0-9.816-9.269-9.8-19.729c0.016-10.459,0.669-9.758,0.975-12.221
			c1.055,0.788,5.636,6.328,6.601,8.022S122.339,58.634,116.55,67.073z"/>
	</g>
	<g>
		<path fill="#243D1C" d="M118.587,60.314c0,0-9.066,7.537-18.338,3.28c-9.27-4.257-8.591-4.722-10.748-6.073
			c0.79-0.894,6.097-3.918,7.684-4.34C98.771,52.758,111.608,50.237,118.587,60.314z"/>
	</g>
	<g>
		<path fill="#243D1C" d="M141.642,63.135c0,0-9.067,7.537-18.34,3.28c-9.269-4.255-8.591-4.723-10.748-6.073
			c0.791-0.894,6.098-3.917,7.682-4.34C121.824,55.58,134.662,53.058,141.642,63.135z"/>
	</g>
	<g>
		<path fill="#2F6733" d="M116.275,56.407c0,0-4.591,12.697,0.133,22.029c4.725,9.33,4.992,8.411,6.374,10.473
			c0.587-1.18,2.183-8.188,2.28-10.136C125.16,76.826,125.244,61.335,116.275,56.407z"/>
	</g>
	<g>
		<path fill="#284922" d="M116.404,57.953c0,0-11.312,7.371-12.501,18.763c-1.189,11.391-0.427,10.809-0.392,13.574
			c1.191-0.565,6.611-5.328,7.811-6.905C112.524,81.808,121.473,68.744,116.404,57.953z"/>
	</g>
	<g>
		<path fill="#449744" d="M116.479,58.48c0,0-10.448,0.729-15.585,7.01c-5.135,6.28-4.399,6.18-5.427,7.808
			c1.021,0.047,6.493-1.023,7.906-1.564C104.784,71.191,115.797,66.389,116.479,58.48z"/>
	</g>
	<g>
		<path fill="#5CBA47" d="M116.392,59.433c0,0-10.143-2.607-14.059-9.714c-3.914-7.105-3.209-6.875-3.925-8.663
			c1.013,0.14,6.2,2.181,7.491,2.97C107.19,44.815,117.153,51.532,116.392,59.433z"/>
	</g>
	<g>
		<path fill="#449744" d="M115.958,60.62c0,0,10.448-0.729,15.584-7.009c5.138-6.281,4.399-6.182,5.43-7.81
			c-1.022-0.046-6.494,1.022-7.905,1.564C127.654,47.908,116.638,52.71,115.958,60.62z"/>
	</g>
	<g>
		<path fill="#5CBA47" d="M116.089,59.187c0,0,10.144,2.607,14.059,9.714c3.915,7.106,3.208,6.875,3.926,8.663
			c-1.014-0.141-6.201-2.182-7.491-2.971C125.291,73.805,115.328,67.088,116.089,59.187z"/>
	</g>
</g>
<g>
	<g opacity="0.2">
		<g>
			<path d="M132.655,115.561c0,0-2.2-10.428,3.503-16.847c5.705-6.419,5.807-5.675,7.372-7.04c0.35,0.993,0.716,6.604,0.504,8.11
				C143.824,101.291,141.52,113.165,132.655,115.561z"/>
		</g>
		<g>
			<path d="M134.802,116.344c0,0-7.654-7.227-7.643-15.383c0.013-8.155,0.521-7.609,0.762-9.529
				c0.822,0.615,4.393,4.934,5.146,6.256C133.818,99.009,139.317,109.764,134.802,116.344z"/>
		</g>
		<g>
			<path d="M136.39,111.074c0,0-7.07,5.875-14.299,2.557c-7.227-3.319-6.699-3.682-8.381-4.734c0.616-0.697,4.756-3.056,5.99-3.385
				C120.937,105.182,130.949,103.217,136.39,111.074z"/>
		</g>
		<g>
			<path d="M154.366,113.273c0,0-7.07,5.876-14.299,2.557c-7.228-3.318-6.7-3.682-8.382-4.734c0.616-0.697,4.756-3.055,5.992-3.384
				S148.923,105.416,154.366,113.273z"/>
		</g>
		<g>
			<path d="M134.587,108.027c0,0-3.58,9.9,0.104,17.176s3.893,6.559,4.971,8.166c0.456-0.92,1.699-6.385,1.777-7.902
				C141.515,123.948,141.582,111.87,134.587,108.027z"/>
		</g>
		<g>
			<path d="M134.687,109.232c0,0-8.821,5.748-9.747,14.63c-0.925,8.882-0.333,8.427-0.305,10.585
				c0.927-0.441,5.153-4.154,6.09-5.385C131.664,127.832,138.64,117.646,134.687,109.232z"/>
		</g>
		<g>
			<path d="M134.746,109.643c0,0-8.146,0.568-12.151,5.466s-3.431,4.819-4.232,6.089c0.796,0.035,5.062-0.797,6.165-1.22
				C125.626,119.555,134.215,115.811,134.746,109.643z"/>
		</g>
		<g>
			<path d="M134.677,110.387c0,0-7.909-2.033-10.961-7.574c-3.053-5.541-2.502-5.361-3.061-6.755
				c0.789,0.109,4.834,1.701,5.842,2.315C127.502,98.988,135.273,104.226,134.677,110.387z"/>
		</g>
		<g>
			<path d="M134.341,111.312c0,0,8.146-0.568,12.149-5.467c4.005-4.896,3.432-4.818,4.233-6.088
				c-0.795-0.036-5.062,0.797-6.162,1.22C143.458,101.4,134.871,105.145,134.341,111.312z"/>
		</g>
		<g>
			<path d="M134.443,110.194c0,0,7.908,2.032,10.961,7.574c3.053,5.54,2.502,5.36,3.061,6.754c-0.789-0.108-4.835-1.7-5.841-2.315
				C141.617,121.593,133.847,116.355,134.443,110.194z"/>
		</g>
	</g>
	<path fill="#284922" d="M141.571,90.227c0.34,0.968,0.696,6.437,0.491,7.905c-0.205,1.468-2.451,13.041-11.092,15.376
		c0,0-2.144-10.162,3.416-16.42C139.947,90.832,140.043,91.558,141.571,90.227"/>
	<g>
		<path fill="#2F6733" d="M133.064,114.271c0,0-7.461-7.045-7.447-14.993c0.012-7.948,0.508-7.415,0.74-9.287
			c0.801,0.599,4.282,4.81,5.016,6.097C132.105,97.376,137.462,107.857,133.064,114.271z"/>
	</g>
	<g>
		<path fill="#243D1C" d="M134.613,109.135c0,0-6.893,5.727-13.937,2.492c-7.046-3.234-6.529-3.589-8.169-4.615
			c0.602-0.68,4.634-2.977,5.839-3.298S129.308,101.477,134.613,109.135z"/>
	</g>
	<g>
		<path fill="#243D1C" d="M152.132,111.277c0,0-6.891,5.729-13.938,2.494c-7.044-3.234-6.529-3.59-8.168-4.615
			c0.6-0.68,4.635-2.978,5.838-3.299C137.071,105.537,146.828,103.62,152.132,111.277z"/>
	</g>
	<g>
		<path fill="#2F6733" d="M132.854,106.166c0,0-3.489,9.648,0.103,16.74c3.59,7.091,3.791,6.393,4.842,7.959
			c0.447-0.896,1.66-6.223,1.734-7.703C139.607,121.683,139.669,109.91,132.854,106.166z"/>
	</g>
	<g>
		<path fill="#284922" d="M132.953,107.34c0,0-8.597,5.602-9.5,14.259c-0.904,8.657-0.324,8.214-0.299,10.316
			c0.906-0.431,5.024-4.05,5.938-5.248C130.003,125.469,136.804,115.541,132.953,107.34z"/>
	</g>
	<g>
		<path fill="#449744" d="M133.009,107.74c0,0-7.939,0.555-11.843,5.328c-3.903,4.771-3.345,4.695-4.125,5.934
			c0.775,0.035,4.934-0.777,6.008-1.189C124.122,117.4,132.492,113.751,133.009,107.74z"/>
	</g>
	<g>
		<path fill="#5CBA47" d="M132.944,108.465c0,0-7.709-1.981-10.685-7.383c-2.975-5.399-2.438-5.225-2.982-6.582
			c0.77,0.105,4.712,1.657,5.692,2.257C125.951,97.355,133.521,102.461,132.944,108.465z"/>
	</g>
	<g>
		<path fill="#449744" d="M132.615,109.367c0,0,7.939-0.555,11.843-5.326c3.903-4.773,3.343-4.697,4.126-5.936
			c-0.777-0.035-4.936,0.777-6.008,1.189C141.501,99.707,133.13,103.355,132.615,109.367z"/>
	</g>
	<g>
		<path fill="#5CBA47" d="M132.713,108.277c0,0,7.708,1.982,10.685,7.383c2.975,5.4,2.438,5.225,2.981,6.582
			c-0.769-0.105-4.711-1.656-5.692-2.256C139.707,119.387,132.134,114.282,132.713,108.277z"/>
	</g>
</g>
<g>
	<g opacity="0.2">
		<g>
			<path d="M94.381,109.8c0,0-1.227-5.815,1.953-9.396c3.182-3.579,3.238-3.164,4.111-3.926c0.195,0.554,0.399,3.684,0.281,4.523
				C100.61,101.842,99.326,108.464,94.381,109.8z"/>
		</g>
		<g>
			<path d="M95.579,110.236c0,0-4.269-4.03-4.262-8.578c0.007-4.549,0.291-4.244,0.425-5.314c0.458,0.343,2.45,2.751,2.87,3.488
				C95.03,100.569,98.097,106.567,95.579,110.236z"/>
		</g>
		<g>
			<path d="M96.464,107.298c0,0-3.943,3.276-7.974,1.426c-4.03-1.852-3.736-2.054-4.674-2.641c0.344-0.389,2.652-1.704,3.341-1.888
				C87.846,104.012,93.43,102.916,96.464,107.298z"/>
		</g>
		<g>
			<path d="M106.49,108.524c0,0-3.943,3.277-7.975,1.426c-4.031-1.851-3.737-2.054-4.675-2.641c0.344-0.389,2.652-1.703,3.342-1.887
				S103.454,104.143,106.49,108.524z"/>
		</g>
		<g>
			<path d="M95.459,105.599c0,0-1.997,5.521,0.058,9.579c2.054,4.057,2.171,3.657,2.772,4.554c0.255-0.513,0.948-3.561,0.991-4.407
				S99.36,107.742,95.459,105.599z"/>
		</g>
		<g>
			<path d="M95.515,106.271c0,0-4.919,3.206-5.436,8.159c-0.516,4.953-0.186,4.699-0.17,5.903c0.517-0.246,2.874-2.317,3.396-3.003
				C93.829,116.644,97.719,110.963,95.515,106.271z"/>
		</g>
		<g>
			<path d="M95.547,106.499c0,0-4.543,0.317-6.777,3.049s-1.913,2.688-2.36,3.396c0.444,0.02,2.823-0.444,3.438-0.68
				C90.461,112.027,95.251,109.939,95.547,106.499z"/>
		</g>
		<g>
			<path d="M95.509,106.914c0,0-4.411-1.134-6.113-4.224c-1.703-3.09-1.396-2.99-1.707-3.768c0.44,0.062,2.696,0.949,3.258,1.292
				C91.508,100.558,95.841,103.479,95.509,106.914z"/>
		</g>
		<g>
			<path d="M95.322,107.431c0,0,4.543-0.317,6.776-3.049c2.232-2.73,1.913-2.687,2.36-3.396c-0.443-0.02-2.823,0.445-3.437,0.681
				C100.407,101.902,95.617,103.991,95.322,107.431z"/>
		</g>
		<g>
			<path d="M95.378,106.807c0,0,4.41,1.134,6.112,4.225c1.703,3.09,1.396,2.989,1.707,3.767c-0.44-0.061-2.696-0.948-3.257-1.291
				C99.379,113.164,95.046,110.243,95.378,106.807z"/>
		</g>
	</g>
	<path fill="#284922" d="M99.354,95.671c0.189,0.54,0.388,3.59,0.273,4.409c-0.114,0.818-1.367,7.272-6.186,8.575
		c0,0-1.195-5.668,1.905-9.157C98.448,96.009,98.501,96.414,99.354,95.671"/>
	<g>
		<path fill="#2F6733" d="M94.609,109.081c0,0-4.161-3.929-4.153-8.361c0.007-4.433,0.283-4.136,0.413-5.18
			c0.446,0.334,2.388,2.683,2.797,3.4S97.062,105.504,94.609,109.081z"/>
	</g>
	<g>
		<path fill="#243D1C" d="M95.473,106.216c0,0-3.844,3.194-7.772,1.391c-3.93-1.804-3.642-2.002-4.556-2.574
			c0.335-0.379,2.584-1.66,3.256-1.839C87.074,103.014,92.515,101.945,95.473,106.216z"/>
	</g>
	<g>
		<path fill="#243D1C" d="M105.244,107.411c0,0-3.843,3.194-7.772,1.391c-3.929-1.804-3.642-2.002-4.556-2.573
			c0.334-0.379,2.585-1.661,3.256-1.84C96.844,104.21,102.285,103.141,105.244,107.411z"/>
	</g>
	<g>
		<path fill="#2F6733" d="M94.492,104.561c0,0-1.946,5.381,0.057,9.336c2.002,3.954,2.114,3.565,2.7,4.438
			c0.25-0.5,0.926-3.47,0.968-4.296C98.258,113.214,98.293,106.648,94.492,104.561z"/>
	</g>
	<g>
		<path fill="#284922" d="M94.547,105.215c0,0-4.794,3.124-5.298,7.952c-0.504,4.828-0.181,4.581-0.167,5.754
			c0.505-0.24,2.802-2.259,3.312-2.927C92.903,115.325,96.696,109.789,94.547,105.215z"/>
	</g>
	<g>
		<path fill="#449744" d="M94.579,105.438c0,0-4.428,0.31-6.605,2.972c-2.177,2.661-1.865,2.618-2.3,3.309
			c0.433,0.02,2.751-0.434,3.351-0.663C89.623,110.826,94.291,108.791,94.579,105.438z"/>
	</g>
	<g>
		<path fill="#5CBA47" d="M94.542,105.843c0,0-4.299-1.105-5.958-4.117s-1.359-2.914-1.664-3.671
			c0.429,0.059,2.628,0.924,3.175,1.259C90.643,99.647,94.864,102.494,94.542,105.843z"/>
	</g>
	<g>
		<path fill="#449744" d="M94.359,106.346c0,0,4.428-0.31,6.604-2.971c2.177-2.662,1.864-2.619,2.301-3.31
			c-0.434-0.02-2.752,0.434-3.351,0.663C99.315,100.959,94.646,102.993,94.359,106.346z"/>
	</g>
	<g>
		<path fill="#5CBA47" d="M94.414,105.738c0,0,4.298,1.105,5.958,4.117c1.659,3.012,1.359,2.914,1.663,3.671
			c-0.429-0.06-2.628-0.924-3.175-1.259C98.314,111.934,94.091,109.087,94.414,105.738z"/>
	</g>
</g>
</svg>
