<?xml version="1.0" encoding="utf-8"?>
<!-- Generator: Adobe Illustrator 16.0.0, SVG Export Plug-In . SVG Version: 6.00 Build 0)  -->
<!DOCTYPE svg PUBLIC "-//W3C//DTD SVG 1.1//EN" "http://www.w3.org/Graphics/SVG/1.1/DTD/svg11.dtd">
<svg version="1.1" id="Layer_1" xmlns="http://www.w3.org/2000/svg" xmlns:xlink="http://www.w3.org/1999/xlink" x="0px" y="0px"
	 viewBox="0 0 330.333 330.332" enable-background="new 0 0 330.333 330.332"
	 xml:space="preserve">
<path fill-rule="evenodd" clip-rule="evenodd" fill="#FFFFFF" d="M165.166,0c91.219,0,165.167,73.947,165.167,165.166
	c0,91.221-73.948,165.166-165.167,165.166S0,256.387,0,165.166C0,73.947,73.947,0,165.166,0z"/>
<path fill-rule="evenodd" clip-rule="evenodd" fill="#7F85F4" d="M165.166,10.371c-85.491,0-154.795,69.304-154.795,154.795
	c0,25.425,6.131,49.418,16.994,70.582c2.623-13.853,2.161-25.887,9.323-58.848c15.048-69.244,96.759-35.054,109.032-30.312
	c12.273,4.549,96.091,33.087,62.937,94.052c-25.282,46.489-31.064,41.774-43.422,79.319
	c85.458-0.036,154.727-69.325,154.727-154.794C319.961,79.675,250.656,10.371,165.166,10.371z"/>
<path fill-rule="evenodd" clip-rule="evenodd" fill="#161616" d="M198.443,224.419c-30.277,43.038-47.279,66.929-98.412,47.977
	c-0.439-0.163-0.864-0.354-1.281-0.559c-0.45-0.117-0.896-0.249-1.335-0.412c-51.133-18.952-52.112-48.637-43.369-100.526
	c5.75-34.127,64.09-18.709,87.387-10.074C164.462,169.359,218.733,195.576,198.443,224.419z"/>
<path fill-rule="evenodd" clip-rule="evenodd" fill="#FDEF59" d="M92.278,161.716c7.642,2.598,8.828,7.201,8.204,15.058
	c-1.237,15.59-4.985,16.911-17.613,12.616c-7.643-2.598-11.732-10.899-9.133-18.541S84.636,159.118,92.278,161.716z"/>
<path fill-rule="evenodd" clip-rule="evenodd" fill="#FDEF59" d="M176.001,193.991c-7.513-2.952-11.392-0.203-15.989,6.197
	c-9.124,12.701-7.117,16.131,5.299,21.01c7.512,2.951,15.996-0.746,18.948-8.258C187.21,205.429,183.515,196.944,176.001,193.991z"
	/>
<path fill-rule="evenodd" clip-rule="evenodd" fill="#EC6F36" d="M137.122,222.199c-9.665-1.778-15.03,14.798-24.966,11.115
	c-4.759-1.764-2.788-20.267-7.583-23.179c-8.897-5.404-18.858-3.452-17.438-8.017c1.421-4.563,18.707,2.333,20.62-11.313
	c1.866-13.307-1.445-12.338,0.305-14.478c1.75-2.14,11.805-1.506,25.434,3.546c0.244,0.09,0.477,0.183,0.702,0.275
	c0.232,0.076,0.469,0.158,0.713,0.249c13.629,5.052,21.669,11.124,21.602,13.888c-0.068,2.764-1.947-0.129-9.205,11.179
	c-7.443,11.597,10.162,17.632,8.265,22.021C153.673,231.873,147.359,224.084,137.122,222.199z"/>
<circle fill-rule="evenodd" clip-rule="evenodd" fill="#161616" cx="93.087" cy="176.094" r="4.568"/>
<circle fill-rule="evenodd" clip-rule="evenodd" fill="#161616" cx="167.246" cy="204.451" r="4.567"/>
<g>
	<path fill-rule="evenodd" clip-rule="evenodd" fill="#6A6FD9" d="M27.364,235.748c0.509-2.688,0.901-5.31,1.256-8.027
		c-1.667,0.072-3.328,0.146-4.986,0.221C24.808,230.583,26.05,233.188,27.364,235.748z"/>
	<path fill-rule="evenodd" clip-rule="evenodd" fill="#6A6FD9" d="M307.276,226.608c-29.63-1.029-60.509-1.702-92.3-1.978
		c-1.217,5.067-3.27,10.4-6.32,16.01c-25.282,46.489-31.064,41.774-43.422,79.319C228.862,319.933,283.506,281.511,307.276,226.608z
		"/>
</g>
<g>
	<path fill-rule="evenodd" clip-rule="evenodd" fill="#428715" d="M248.837,55.191c4.009,0.982,8.134,1.429,11.898,0.969
		c-15.442-5.297-28.096-19.265-35.539-33.182c-0.121-0.226-0.24-0.455-0.361-0.681c-6.376-2.667-12.971-4.914-19.746-6.718
		c6.193,14.11,19.72,28.897,32.668,35.481C241.03,52.725,244.878,54.221,248.837,55.191z"/>
	<path fill-rule="evenodd" clip-rule="evenodd" fill="#428715" d="M182.935,35.96c3.515,7.913,6.347,15.823,10.188,23.611
		c5.941,12.047,13.523,20.509,22.106,30.458c-3.707-4.482-6.016-9.965-7.967-15.439c-2.197-6.168-5.442-11.84-8.04-17.945
		c-5.571-13.098-8.104-26.833-15.21-39.088c-1.359-2.344-3.026-4.723-4.865-6.55c-0.631-0.057-1.261-0.119-1.894-0.168
		c0.769,3.027,0.255,6.632,0.731,9.579C178.861,25.834,180.723,30.978,182.935,35.96z"/>
	<path fill-rule="evenodd" clip-rule="evenodd" fill="#428715" d="M215.181,55.845c-3.771-7.47-6.935-15.339-10.051-23.006
		c-2.538-6.245-4.624-12.524-6.553-18.841c-2.971-0.653-5.972-1.225-9.003-1.705c1.392,7,3.237,13.16,5.674,20.102
		c4.082,11.627,9.141,24.002,17.537,33.321c4.638,5.148,9.815,9.736,14.421,14.902C225.487,72.5,218.939,63.295,215.181,55.845z"/>
	<path fill-rule="evenodd" clip-rule="evenodd" fill="#428715" d="M234.106,27.223c5.763,8.049,15.056,16.73,24.044,21.084
		c-2.427-5.102-8.559-10.114-11.957-15.02c-0.013-0.018-0.023-0.036-0.036-0.054c-4.127-2.539-8.384-4.888-12.756-7.038
		C233.641,26.535,233.865,26.886,234.106,27.223z"/>
	<path fill-rule="evenodd" clip-rule="evenodd" fill="#428715" d="M169.107,51.119c-2.174,8.355-3.088,17.244-4.258,25.703
		c-1.278,9.243-0.684,17.851,0.778,26.977c0.935,5.828,0.862,10.695,3.64,16.142c1.838,3.604,3.712,6.798,4.928,10.538
		c1.243-15.748-5.065-31.23-4.289-46.75c0.443-8.859,1.442-17.62,1.128-26.518c-0.156-4.44,1.024-8.361,0.089-12.383
		c0.448-1.775,0.73-3.607,0.577-5.258c0.247-1.62,0.477-3.22,0.736-4.757c0.301-1.79,0.577-3.592,0.848-5.397
		c1.488,12.64,4.326,25.918,5.514,31.47c1.674,7.823,5.269,14.296,6.363,22.519c0.919,6.9,0.97,13.499,1.307,20.304
		c3.36-12.06,6.859-21.274,2.847-34.301c-2.517-8.175-4.608-16.313-7.253-24.493c-2.043-6.313-4.166-11.784-8.392-18.073
		c0.58-3.851,1.193-7.702,2.044-11.483c0.174-0.533,0.302-1.074,0.38-1.62c0.041-0.169,0.076-0.341,0.119-0.509
		c0.204-0.81,0.425-1.614,0.642-2.42c-0.885-0.066-1.774-0.118-2.664-0.169c-0.228,0.902-0.447,1.804-0.659,2.707
		c-24.741,9.376-43.149,33.861-56.08,56.118c-2.696,4.643-5.126,9.371-7.562,14.024c5.769-1.764,11.876-10.663,16.199-15.011
		c5.431-5.463,11.803-9.904,17.204-15.427c9.271-9.48,18.07-19.46,26.737-29.247c0.52-0.588,1.103-1.244,1.694-1.95
		c-0.422,2.224-0.818,4.47-1.189,6.754c-0.594,3.644-1.187,7.288-1.855,10.919c-20.068,16.028-37.271,42.85-32.497,69.241
		c5.802-10.698,12.603-20.913,18.761-31.517C159.815,68.859,166.09,60.134,169.107,51.119z"/>
	<path fill-rule="evenodd" clip-rule="evenodd" fill="#428715" d="M126.968,40.602c6.501-5.196,12.033-11.591,18.841-16.456
		c6.494-4.64,13.341-9.062,19.956-13.767c-0.2-0.001-0.398-0.008-0.599-0.008c-9.27,0-18.348,0.817-27.169,2.379
		c-9.544,9.496-15.971,20.562-22.909,32.509c-3.149,5.425-8.502,13.807-9.121,19.91c1.996-4.104,5.988-7.939,8.727-11.562
		C118.392,48.714,122.173,44.433,126.968,40.602z"/>
</g>
<g>
	<path fill-rule="evenodd" clip-rule="evenodd" fill="#61D117" d="M308.716,107.163c-1.485-2.581-2.931-5.078-4.104-7.403
		c-2.115-4.19-4.036-8.506-5.868-12.842c-5.326-9.073-11.548-17.558-18.548-25.328c1.21,4.915,2.688,9.602,4.483,14.719
		c4.082,11.627,9.141,24.002,17.537,33.321c3.664,4.068,7.655,7.796,11.446,11.726C312.238,116.522,310.586,111.788,308.716,107.163
		z"/>
	<path fill-rule="evenodd" clip-rule="evenodd" fill="#61D117" d="M288.653,100.56c-5.571-13.098-8.104-26.833-15.21-39.088
		c-1.816-3.133-4.184-6.328-6.774-8.187c0.362-1.328,0.761-2.648,1.147-3.971c-0.735-0.651-1.475-1.297-2.222-1.935
		c-0.985,3.311-1.859,6.592-2.632,9.882c-24.74,9.376-43.149,33.861-56.08,56.118c-2.695,4.643-5.125,9.371-7.562,14.024
		c5.769-1.764,11.877-10.663,16.199-15.011c5.431-5.463,11.803-9.904,17.203-15.427c9.271-9.48,18.07-19.46,26.737-29.247
		c0.52-0.588,1.103-1.244,1.694-1.95c-0.422,2.224-0.818,4.47-1.189,6.754c-0.594,3.644-1.187,7.288-1.855,10.919
		c-20.068,16.028-37.271,42.85-32.497,69.241c5.803-10.698,12.603-20.913,18.761-31.517c4.873-8.393,11.147-17.118,14.165-26.133
		c-2.174,8.355-3.088,17.244-4.258,25.703c-1.278,9.243-0.684,17.851,0.778,26.977c0.935,5.828,0.862,10.695,3.64,16.142
		c1.838,3.604,3.712,6.798,4.928,10.538c1.243-15.748-5.065-31.23-4.289-46.75c0.443-8.859,1.442-17.62,1.128-26.518
		c-0.156-4.44,1.024-8.361,0.089-12.383c0.447-1.775,0.73-3.607,0.577-5.258c0.247-1.62,0.477-3.22,0.736-4.757
		c0.301-1.79,0.577-3.592,0.848-5.397c1.488,12.64,4.326,25.918,5.514,31.47c1.674,7.823,5.269,14.296,6.363,22.519
		c0.919,6.9,0.97,13.499,1.307,20.304c3.36-12.06,6.859-21.274,2.847-34.301c-2.517-8.175-4.608-16.313-7.253-24.493
		c-2.043-6.313-4.166-11.784-8.392-18.073c0.58-3.851,1.193-7.702,2.044-11.483c0.174-0.533,0.302-1.074,0.38-1.62
		c0.041-0.169,0.076-0.341,0.119-0.509c0.266-1.053,0.554-2.099,0.835-3.147c1.087,3.165,0.42,7.142,0.937,10.336
		c0.877,5.417,2.738,10.561,4.95,15.543c3.515,7.913,6.347,15.823,10.188,23.611c5.941,12.047,13.523,20.509,22.106,30.458
		c-3.707-4.482-6.016-9.965-7.967-15.439C294.496,112.337,291.251,106.665,288.653,100.56z"/>
	<path fill-rule="evenodd" clip-rule="evenodd" fill="#61D117" d="M217.098,19.309c-3.937,2.904-7.867,5.811-11.876,8.599
		c-4.527,3.149-9.121,7.393-12.711,11.388c11.577-5.87,23.711-10.77,35.868-15.465C224.693,22.18,220.93,20.673,217.098,19.309z"/>
	<path fill-rule="evenodd" clip-rule="evenodd" fill="#61D117" d="M232.461,52.053c-12.465,10.442-19.849,23.187-27.941,37.122
		c-3.148,5.425-8.501,13.807-9.12,19.91c1.995-4.104,5.987-7.939,8.727-11.562c3.697-4.894,7.479-9.175,12.273-13.006
		c6.501-5.196,12.032-11.591,18.842-16.456c9.782-6.989,20.357-13.487,29.733-21.205c-3.365-2.842-6.849-5.548-10.45-8.099
		C246.617,42.221,239.112,46.481,232.461,52.053z"/>
	<path fill-rule="evenodd" clip-rule="evenodd" fill="#61D117" d="M229.062,51.509c7.879-4.342,15.776-9.047,23.189-14.328
		c-5.336-3.638-10.908-6.956-16.695-9.915c-0.43,0.234-0.855,0.458-1.288,0.701c-17.966,10.071-36.571,23.257-52.04,36.917
		c-5.479,4.838-11.598,9.391-16.778,14.363c10.598-3.641,21.05-10.559,31.739-14.869C207.659,60.155,219.193,56.946,229.062,51.509z
		"/>
	<path fill-rule="evenodd" clip-rule="evenodd" fill="#61D117" d="M191.082,12.543c-0.055,0.085-0.115,0.17-0.168,0.256
		c0.085-0.083,0.187-0.157,0.274-0.238C191.153,12.554,191.117,12.549,191.082,12.543z"/>
</g>
<g>
	<path fill-rule="evenodd" clip-rule="evenodd" fill="#61D117" d="M55.739,75.812c1.095-8.223,4.689-14.695,6.363-22.519
		c0.249-1.163,0.573-2.682,0.939-4.446c-3.717,3.266-7.276,6.708-10.665,10.312c-0.264,0.885-0.518,1.77-0.791,2.656
		c-4.014,13.026-0.514,22.241,2.846,34.301C54.77,89.312,54.82,82.713,55.739,75.812z"/>
	<path fill-rule="evenodd" clip-rule="evenodd" fill="#61D117" d="M97.608,45.46c5.4,5.522,11.772,9.964,17.204,15.427
		c4.322,4.348,10.43,13.247,16.198,15.011c-2.437-4.653-4.866-9.382-7.562-14.024c-7.09-12.204-15.832-25.073-26.357-35.759
		c-3.991,1.958-7.888,4.08-11.677,6.362C89.408,36.86,93.456,41.214,97.608,45.46z"/>
	<path fill-rule="evenodd" clip-rule="evenodd" fill="#61D117" d="M104.719,101.177c4.292-23.729-9.186-47.802-26.534-64.068
		c-2.955,2.011-5.838,4.117-8.642,6.322c0.159,1.988,0.399,4.026,0.322,6.189c-0.312,8.897,0.686,17.658,1.129,26.518
		c0.776,15.52-5.532,31.002-4.289,46.75c1.217-3.74,3.09-6.934,4.928-10.538c2.777-5.446,2.705-10.313,3.64-16.142
		c1.462-9.126,2.058-17.733,0.778-26.977c-1.17-8.459-2.084-17.348-4.258-25.703c3.018,9.015,9.293,17.74,14.165,26.133
		C92.116,80.264,98.916,90.479,104.719,101.177z"/>
	<path fill-rule="evenodd" clip-rule="evenodd" fill="#61D117" d="M148.104,13.377c-0.691-0.61-1.395-1.218-2.098-1.826
		c-3.896,0.481-7.747,1.106-11.547,1.871c10.233,4.33,20.261,10.828,30.423,14.318C159.702,22.768,153.583,18.215,148.104,13.377z"
		/>
	<path fill-rule="evenodd" clip-rule="evenodd" fill="#61D117" d="M114.274,18.942c-3.772,1.313-7.478,2.768-11.11,4.358
		c3.554,3.286,7,6.697,10.769,9.709c4.795,3.831,8.575,8.112,12.273,13.006c2.739,3.623,6.731,7.459,8.728,11.562
		c-0.619-6.104-5.973-14.485-9.121-19.91C122.012,31.124,118.362,24.847,114.274,18.942z"/>
</g>
</svg>
