<?xml version="1.0" encoding="utf-8"?>
<!-- Generator: Adobe Illustrator 16.0.0, SVG Export Plug-In . SVG Version: 6.00 Build 0)  -->
<!DOCTYPE svg PUBLIC "-//W3C//DTD SVG 1.1//EN" "http://www.w3.org/Graphics/SVG/1.1/DTD/svg11.dtd">
<svg version="1.1" id="Layer_1" xmlns="http://www.w3.org/2000/svg" xmlns:xlink="http://www.w3.org/1999/xlink" x="0px" y="0px"
	 width="180.907px" height="169.842px" viewBox="0 0 180.907 169.842" enable-background="new 0 0 180.907 169.842"
	 xml:space="preserve">
<path opacity="0.2" d="M179.869,55.705c0.451-0.772,0.785-1.52,0.916-2.105c0.434-1.949-1.457-6.068-2.914-7.433
	c-0.539-0.505-1.507-0.899-2.605-1.159c0.227-0.686,0.376-1.323,0.412-1.841c0.072-1.038-0.453-2.483-1.23-3.897
	c0.537-0.921,0.936-1.812,1.09-2.512c0.518-2.323-1.736-7.237-3.473-8.864c-1.738-1.627-7.197-2.292-9.414-1.423
	c-0.098,0.039-0.199,0.09-0.303,0.142c-0.332-0.336-0.656-0.625-0.957-0.831c-1.961-1.35-7.459-1.19-9.52,0s-4.949,5.872-4.76,8.245
	c0.037,0.479,0.17,1.053,0.377,1.673c-1.35,1.877-2.453,4.291-2.334,5.785c0.09,1.132,0.71,2.787,1.556,4.34
	c-6.102,3.221-11.317,8.802-11.317,8.802c0.003-4.968-0.401-9.949-0.963-13.378c0.009-0.023,0.019-0.048,0.027-0.072
	c1.429,0.066,2.872-0.078,3.719-0.431c0.555-0.23,1.152-0.769,1.717-1.453c1.203-0.069,2.344-0.285,3.043-0.626
	c1.664-0.812,3.576-4.569,3.703-6.417c0.057-0.807-0.352-1.933-0.957-3.033c0.418-0.717,0.729-1.41,0.85-1.955
	c0.402-1.808-1.354-5.631-2.705-6.897c-1.35-1.266-5.6-1.783-7.324-1.107c-0.076,0.03-0.156,0.071-0.234,0.11
	c-0.26-0.262-0.512-0.486-0.746-0.646c-0.307-0.211-0.727-0.372-1.212-0.491c-0.535-1.502-1.416-3.032-2.169-3.737
	c-1.303-1.22-5.396-1.718-7.057-1.067c-0.072,0.028-0.15,0.068-0.227,0.106c-0.25-0.252-0.492-0.468-0.718-0.622
	c-1.47-1.012-5.591-0.893-7.136,0c-1.546,0.891-3.709,4.401-3.568,6.18c0.028,0.359,0.129,0.79,0.281,1.254
	c-1.01,1.407-1.836,3.216-1.748,4.336c0.105,1.326,1.178,3.61,2.356,5.059c-0.573,1.074-0.951,2.181-0.89,2.957
	c0.028,0.359,0.129,0.79,0.281,1.254c-1.01,1.408-1.836,3.216-1.748,4.337c0.142,1.778,2.024,5.286,3.568,6.18
	c0.521,0.303,1.324,0.486,2.217,0.571c0.551,0.997,1.2,1.86,1.819,2.271c1.488,0.982,5.476,1.107,7.124,0.422
	c0.324-0.135,0.665-0.389,1.004-0.709c-0.154,6.897-1.652,12.816-2.604,15.92c0.553-3.485-2.635-10.375-5.113-12.696
	c-2.538-2.378-10.517-3.349-13.755-2.079c-0.143,0.056-0.293,0.133-0.442,0.207c-0.486-0.492-0.96-0.912-1.399-1.214
	c-2.864-1.972-10.898-1.739-13.911,0c-3.012,1.738-7.229,8.579-6.956,12.047c0.057,0.7,0.252,1.54,0.551,2.445
	c-5.42-4.116-8.453-8.924-10.031-13.542c0.09,0.075,0.18,0.164,0.269,0.223c1.716,1.134,6.315,1.277,8.216,0.488
	c0.615-0.257,1.279-0.855,1.906-1.614c1.337-0.079,2.604-0.317,3.381-0.696c1.85-0.902,3.974-5.076,4.115-7.128
	c0.062-0.896-0.393-2.147-1.064-3.37c0.466-0.796,0.808-1.566,0.943-2.172c0.446-2.008-1.502-6.256-3.004-7.663
	c-1.239-1.161-4.666-1.752-6.904-1.503c0.009-0.621-0.29-1.448-0.74-2.265c0.327-0.559,0.567-1.098,0.661-1.523
	c0.315-1.409-1.052-4.389-2.106-5.375c-1.053-0.987-4.365-1.391-5.709-0.863c-0.059,0.023-0.122,0.056-0.184,0.085
	c-0.201-0.203-0.398-0.378-0.582-0.503c-1.188-0.818-4.522-0.722-5.772,0c-1.25,0.722-3.001,3.562-2.887,5.001
	c0.022,0.29,0.104,0.639,0.229,1.014c-0.818,1.139-1.486,2.603-1.415,3.509c0.021,0.274,0.107,0.607,0.22,0.958
	c-1.394-0.608-4.264-0.48-5.407,0.18c-1.251,0.722-3.002,3.562-2.888,5.001c0.022,0.29,0.104,0.639,0.229,1.015
	c-0.818,1.139-1.487,2.602-1.415,3.509c0.115,1.439,1.639,4.277,2.887,5c0.422,0.245,1.072,0.394,1.794,0.463
	c0.446,0.807,0.972,1.506,1.472,1.837c1.205,0.795,4.432,0.896,5.765,0.342c0.17-0.07,0.346-0.188,0.522-0.324
	c-0.196,3.463-0.08,6.764,0.234,9.86c-3.868-1.515-8.143-2.739-12.801-3.454c0.222-0.536,0.376-1.052,0.402-1.437
	c0.036-0.524-0.229-1.257-0.623-1.972c0.273-0.467,0.473-0.917,0.552-1.271c0.263-1.176-0.879-3.662-1.757-4.486
	c-0.88-0.823-3.643-1.159-4.765-0.72c-0.049,0.02-0.102,0.046-0.153,0.071c-0.168-0.17-0.332-0.315-0.484-0.42
	c-0.992-0.684-3.774-0.602-4.817,0s-2.504,2.972-2.409,4.172c0.02,0.243,0.088,0.533,0.191,0.848
	c-0.683,0.949-1.24,2.17-1.182,2.928c0.055,0.675,0.484,1.714,1.031,2.605c-0.232,0.033-0.449,0.076-0.619,0.143
	c-0.049,0.02-0.101,0.046-0.152,0.071c-0.168-0.17-0.333-0.315-0.484-0.42c-0.992-0.683-3.775-0.603-4.818,0
	c-1.043,0.602-2.504,2.972-2.408,4.172c0.019,0.242,0.087,0.533,0.189,0.847c-0.682,0.95-1.24,2.171-1.18,2.928
	c0.096,1.201,1.366,3.569,2.408,4.172c0.353,0.205,0.895,0.328,1.497,0.387c0.372,0.673,0.811,1.256,1.228,1.532
	c0.545,0.359,1.584,0.544,2.6,0.567c0.001,0.031-0.004,0.066-0.002,0.097c0.163,2.052,2.335,6.097,4.114,7.127
	c0.603,0.35,1.528,0.562,2.557,0.66c0.636,1.149,1.386,2.146,2.099,2.618c1.716,1.133,6.315,1.277,8.215,0.487
	c0.616-0.256,1.281-0.854,1.906-1.614c1.338-0.078,2.605-0.317,3.382-0.695c1.849-0.902,3.974-5.077,4.114-7.129
	c0.062-0.896-0.391-2.146-1.063-3.369c0.466-0.796,0.808-1.566,0.942-2.172c0.047-0.21,0.062-0.449,0.061-0.702
	c1.387,0.976,2.752,2.126,4.041,3.482c0.461,1.772,0.965,3.405,1.474,4.894c-1.937,1.562-4.268,5.544-4.1,7.656
	c0.037,0.469,0.167,1.028,0.366,1.633c-0.68,0.947-1.292,2.033-1.713,3.064c-0.46,0.407-0.928,0.883-1.395,1.398
	c-1.254-0.05-2.414,0.06-3.177,0.359c-0.095,0.037-0.196,0.09-0.295,0.138c-0.325-0.327-0.642-0.608-0.935-0.81
	c-1.912-1.317-7.275-1.16-9.286,0c-2.011,1.161-4.827,5.728-4.644,8.042c0.037,0.467,0.168,1.028,0.367,1.632
	c-1.314,1.833-2.391,4.186-2.275,5.646c0.184,2.314,2.635,6.878,4.643,8.041c0.68,0.394,1.724,0.633,2.885,0.744
	c0.718,1.297,1.562,2.422,2.368,2.955c0.005,0.004,0.012,0.006,0.017,0.01c-0.148,0.769-0.214,1.485-0.164,2.117
	c0.083,1.038,0.397,2.303,0.866,3.66c-0.57-0.167-1.226-0.287-1.935-0.354c-0.735-1.331-1.603-2.482-2.428-3.028
	c-1.985-1.312-7.306-1.479-9.503-0.564c-0.713,0.297-1.481,0.988-2.206,1.867c-1.546,0.089-3.011,0.367-3.91,0.805
	c-1.892,0.923-4.027,4.8-4.612,7.328c-0.64,0.08-1.21,0.206-1.637,0.384c-0.598,0.248-1.242,0.829-1.85,1.565
	c-1.296,0.075-2.524,0.309-3.278,0.675c-1.795,0.876-3.854,4.923-3.992,6.914c-0.06,0.87,0.381,2.082,1.033,3.268
	c-0.451,0.772-0.785,1.519-0.915,2.106c-0.434,1.947,1.457,6.066,2.913,7.432c0.539,0.505,1.508,0.898,2.605,1.158
	c-0.227,0.687-0.377,1.324-0.412,1.842c-0.072,1.037,0.453,2.484,1.231,3.896c-0.539,0.922-0.935,1.812-1.092,2.513
	c-0.517,2.323,1.738,7.236,3.474,8.863c1.738,1.628,7.198,2.292,9.414,1.423c0.098-0.037,0.2-0.09,0.303-0.141
	c0.333,0.335,0.657,0.624,0.957,0.83c1.961,1.35,7.459,1.19,9.521,0c2.062-1.189,4.948-5.871,4.76-8.244
	c-0.038-0.479-0.172-1.054-0.376-1.673c1.348-1.878,2.451-4.291,2.332-5.786c-0.09-1.131-0.711-2.786-1.557-4.338
	c1.186-0.626,2.339-1.338,3.426-2.084c-0.447,0.862-0.769,1.771-0.811,2.388c-0.042,0.593,0.258,1.417,0.701,2.224
	c-0.308,0.523-0.533,1.032-0.623,1.431c-0.182,0.818,0.24,2.198,0.822,3.353c-1.599,1.048-3.323,4.512-3.443,6.263
	c-0.057,0.809,0.352,1.933,0.957,3.034c-0.42,0.715-0.728,1.408-0.85,1.953c-0.401,1.809,1.354,5.633,2.704,6.898
	c1.353,1.266,5.601,1.783,7.325,1.107c0.076-0.03,0.156-0.07,0.235-0.109c0.259,0.26,0.511,0.484,0.745,0.645
	c1.23,0.848,4.251,0.93,6.215,0.444c0.742,0.031,1.432-0.029,1.883-0.206c0.057-0.023,0.115-0.053,0.173-0.082
	c0.19,0.191,0.374,0.356,0.547,0.475c1.118,0.769,4.252,0.678,5.427,0c1.176-0.679,2.821-3.348,2.713-4.701
	c-0.021-0.273-0.096-0.602-0.214-0.953c0.567-0.79,1.056-1.744,1.248-2.533c0.194-0.072,0.376-0.149,0.526-0.236
	c1.546-0.893,3.709-4.403,3.568-6.181c-0.028-0.358-0.129-0.79-0.282-1.254c1.011-1.408,1.837-3.217,1.749-4.338
	c-0.142-1.778-2.024-5.286-3.568-6.18c-0.521-0.304-1.324-0.486-2.217-0.571c-0.551-0.998-1.2-1.861-1.819-2.27
	c-1.487-0.984-5.476-1.108-7.124-0.423c-0.299,0.124-0.609,0.347-0.922,0.629c-0.025-0.047-0.052-0.093-0.079-0.14
	c0.072-2.721,0.354-5.282,0.724-7.577c0.285,0.255,0.57,0.488,0.854,0.676c3.973,2.624,14.618,2.956,19.016,1.128
	c0.662-0.275,1.35-0.728,2.04-1.303c0.064,0.303,0.147,0.621,0.259,0.96c-1.314,1.831-2.39,4.185-2.275,5.644
	c0.184,2.314,2.635,6.879,4.644,8.043c0.679,0.393,1.724,0.633,2.885,0.742c0.718,1.299,1.562,2.423,2.368,2.957
	c1.936,1.277,7.126,1.439,9.271,0.549c0.694-0.289,1.444-0.965,2.151-1.822c1.508-0.088,2.938-0.357,3.814-0.784
	c1.244-0.608,2.596-2.528,3.521-4.471c0.832,1.371,1.814,2.567,2.711,3.087c0.679,0.395,1.724,0.634,2.885,0.744
	c0.717,1.297,1.562,2.422,2.367,2.955c1.937,1.278,7.128,1.44,9.271,0.549c0.695-0.288,1.445-0.963,2.152-1.822
	c1.508-0.087,2.938-0.356,3.814-0.783c2.088-1.02,4.484-5.729,4.645-8.044c0.068-1.012-0.443-2.423-1.203-3.802
	c0.525-0.898,0.914-1.767,1.064-2.451c0.264-1.18-0.209-3.043-0.96-4.784c2.509-0.333,4.752-0.884,6.298-1.635
	c5.121-2.498,11.002-14.057,11.395-19.74c0.172-2.484-1.086-5.946-2.947-9.331c1.289-2.205,2.238-4.337,2.611-6.014
	c0.865-3.887-1.512-10.795-4.439-15.938c0.409-0.336,0.821-0.754,1.221-1.238c1.547-0.089,3.012-0.367,3.912-0.806
	c1.889-0.922,4.025-4.8,4.611-7.327c0.64-0.08,1.21-0.206,1.637-0.384c0.598-0.248,1.24-0.828,1.848-1.565
	c1.297-0.075,2.525-0.309,3.279-0.675c1.795-0.875,3.854-4.924,3.992-6.914C180.961,58.103,180.521,56.89,179.869,55.705z"/>
<g>
	<g>
		<g>
			<path fill="#33BF11" d="M53.316,80.943c0.525-0.898,0.912-1.767,1.064-2.452c0.504-2.265-1.694-7.059-3.389-8.646
				c-1.695-1.586-7.021-2.236-9.183-1.388c-0.095,0.037-0.196,0.09-0.295,0.138c-0.325-0.328-0.642-0.608-0.935-0.81
				c-1.911-1.317-7.275-1.161-9.286,0c-2.011,1.161-4.827,5.728-4.644,8.042c0.037,0.467,0.168,1.028,0.367,1.632
				c-1.315,1.833-2.391,4.186-2.275,5.646c0.184,2.314,2.634,6.878,4.643,8.041c0.679,0.394,1.723,0.633,2.884,0.744
				c0.718,1.297,1.563,2.422,2.368,2.955c1.936,1.277,7.126,1.44,9.271,0.549c0.694-0.287,1.444-0.964,2.151-1.821
				c1.508-0.087,2.938-0.358,3.815-0.784c2.087-1.02,4.483-5.729,4.643-8.043C54.587,83.733,54.075,82.321,53.316,80.943z"/>
		</g>
		<g>
			<path fill="#41D118" d="M50.516,81.304c0.408-0.697,0.708-1.371,0.826-1.902c0.392-1.758-1.315-5.479-2.63-6.71
				c-1.314-1.232-5.45-1.735-7.126-1.078c-0.075,0.029-0.152,0.069-0.23,0.108c-0.251-0.254-0.498-0.475-0.725-0.629
				c-1.484-1.022-5.647-0.9-7.208,0c-1.56,0.9-3.745,4.446-3.604,6.242c0.029,0.364,0.13,0.798,0.286,1.267
				c-1.021,1.421-1.856,3.249-1.767,4.379c0.143,1.798,2.044,5.34,3.604,6.243c0.525,0.305,1.335,0.49,2.238,0.576
				c0.556,1.008,1.213,1.881,1.837,2.293c1.503,0.992,5.531,1.118,7.195,0.428c0.54-0.225,1.122-0.748,1.67-1.414
				c1.17-0.066,2.279-0.279,2.96-0.609c1.62-0.789,3.48-4.445,3.604-6.243C51.503,83.469,51.104,82.375,50.516,81.304z"/>
		</g>
		<g>
			<path fill="#4BD81D" d="M47.688,81.099c0.311-0.531,0.54-1.045,0.629-1.448c0.299-1.341-1.002-4.174-2.003-5.112
				c-1.001-0.939-4.152-1.323-5.429-0.823c-0.056,0.022-0.116,0.054-0.176,0.083c-0.19-0.195-0.378-0.359-0.552-0.481
				c-1.13-0.776-4.302-0.685-5.49,0c-1.19,0.687-2.854,3.388-2.747,4.756c0.022,0.277,0.1,0.607,0.217,0.966
				c-0.777,1.084-1.414,2.475-1.345,3.336c0.107,1.368,1.556,4.068,2.746,4.756c0.4,0.23,1.018,0.373,1.705,0.439
				c0.423,0.768,0.924,1.433,1.399,1.748c1.146,0.756,4.214,0.852,5.481,0.324c0.411-0.17,0.855-0.57,1.272-1.078
				c0.892-0.051,1.736-0.211,2.256-0.463c1.233-0.602,2.65-3.387,2.745-4.755C48.439,82.749,48.137,81.914,47.688,81.099z"/>
		</g>
		<g>
			<path fill="#6DEA39" d="M45.504,81.382c0.218-0.374,0.38-0.735,0.443-1.021c0.21-0.942-0.707-2.939-1.411-3.601
				c-0.707-0.662-2.925-0.931-3.825-0.579c-0.039,0.017-0.081,0.039-0.123,0.058c-0.135-0.136-0.268-0.253-0.389-0.338
				c-0.797-0.547-3.032-0.484-3.868,0c-0.837,0.483-2.011,2.387-1.934,3.351c0.015,0.195,0.069,0.426,0.153,0.68
				c-0.548,0.762-0.997,1.742-0.949,2.351c0.077,0.964,1.097,2.865,1.935,3.35c0.282,0.162,0.717,0.263,1.201,0.31
				c0.299,0.541,0.651,1.008,0.987,1.229c0.806,0.534,2.967,0.601,3.861,0.229c0.29-0.119,0.601-0.399,0.896-0.756
				c0.628-0.037,1.223-0.15,1.59-0.329c0.868-0.424,1.867-2.385,1.935-3.35C46.033,82.544,45.82,81.958,45.504,81.382z"/>
		</g>
	</g>
	<g>
		<path fill="#492A04" d="M55.981,63.816c0,0-13.356-22.177-5.054-48.709c1.263-2.527,7.039-0.408,5.054,3.045
			s-5.07,19.99,9.829,31.305S68.797,73.538,55.981,63.816z"/>
	</g>
	<g>
		<path fill="#492A04" d="M74.057,57.445c0,0-15.959-20.384-43.709-22.083c-2.811,0.28-2.89,6.432,1.044,5.807
			s20.485,2.388,25.746,20.342C62.399,79.464,78.573,72.884,74.057,57.445z"/>
	</g>
	<g>
		<g>
			<path fill="#33BF11" d="M74.392,67.118c0.526-0.898,0.913-1.766,1.065-2.451c0.503-2.266-1.695-7.059-3.39-8.646
				s-7.021-2.236-9.183-1.388c-0.095,0.037-0.196,0.088-0.295,0.137c-0.325-0.327-0.641-0.608-0.935-0.81
				c-1.912-1.317-7.275-1.161-9.286,0c-2.011,1.161-4.827,5.728-4.643,8.042c0.037,0.468,0.167,1.028,0.366,1.632
				c-1.314,1.832-2.39,4.186-2.275,5.645c0.184,2.314,2.635,6.878,4.644,8.042c0.679,0.393,1.724,0.633,2.885,0.744
				c0.717,1.297,1.563,2.422,2.368,2.955c1.936,1.278,7.126,1.441,9.27,0.55c0.694-0.288,1.444-0.965,2.152-1.822
				c1.508-0.087,2.938-0.357,3.814-0.784c2.087-1.019,4.484-5.729,4.644-8.043C75.664,69.908,75.151,68.496,74.392,67.118z"/>
		</g>
		<g>
			<path fill="#41D118" d="M71.593,67.48c0.408-0.698,0.708-1.372,0.825-1.903c0.392-1.757-1.314-5.478-2.629-6.709
				c-1.315-1.232-5.45-1.735-7.127-1.078c-0.075,0.029-0.152,0.068-0.229,0.108c-0.251-0.254-0.497-0.474-0.724-0.63
				c-1.485-1.021-5.647-0.9-7.209,0c-1.559,0.9-3.745,4.446-3.603,6.242c0.029,0.364,0.13,0.798,0.286,1.268
				c-1.021,1.42-1.856,3.248-1.766,4.379c0.142,1.797,2.044,5.34,3.603,6.243c0.526,0.305,1.336,0.491,2.238,0.577
				c0.558,1.007,1.213,1.88,1.838,2.292c1.504,0.993,5.531,1.118,7.195,0.428c0.54-0.226,1.121-0.749,1.67-1.415
				c1.171-0.067,2.279-0.279,2.961-0.61c1.62-0.789,3.479-4.444,3.604-6.243C72.579,69.645,72.181,68.549,71.593,67.48z"/>
		</g>
		<g>
			<path fill="#4BD81D" d="M68.765,67.275c0.311-0.532,0.54-1.046,0.629-1.449c0.299-1.341-1.001-4.174-2.003-5.112
				c-1.002-0.939-4.152-1.322-5.43-0.823c-0.057,0.023-0.116,0.054-0.175,0.083c-0.191-0.195-0.378-0.36-0.553-0.48
				c-1.13-0.777-4.301-0.686-5.49,0c-1.19,0.687-2.854,3.387-2.747,4.755c0.022,0.277,0.1,0.607,0.218,0.965
				c-0.778,1.084-1.415,2.475-1.345,3.337c0.107,1.369,1.556,4.068,2.746,4.756c0.401,0.23,1.018,0.373,1.705,0.439
				c0.424,0.769,0.925,1.433,1.4,1.748c1.145,0.755,4.214,0.851,5.481,0.324c0.411-0.169,0.854-0.57,1.272-1.077
				c0.891-0.051,1.737-0.212,2.256-0.464c1.234-0.602,2.65-3.387,2.745-4.754C69.517,68.923,69.214,68.089,68.765,67.275z"/>
		</g>
		<g>
			<path fill="#6DEA39" d="M66.581,67.558c0.218-0.374,0.38-0.736,0.442-1.021c0.211-0.943-0.706-2.939-1.411-3.601
				c-0.706-0.663-2.924-0.931-3.824-0.578c-0.04,0.016-0.082,0.038-0.124,0.058c-0.135-0.137-0.267-0.253-0.388-0.338
				c-0.797-0.547-3.031-0.483-3.868,0c-0.838,0.484-2.011,2.387-1.935,3.351c0.016,0.195,0.07,0.427,0.153,0.68
				c-0.549,0.762-0.997,1.743-0.948,2.351c0.077,0.963,1.097,2.865,1.935,3.35c0.282,0.163,0.717,0.263,1.201,0.309
				c0.299,0.541,0.651,1.009,0.986,1.23c0.807,0.533,2.968,0.6,3.861,0.228c0.291-0.119,0.601-0.399,0.895-0.756
				c0.629-0.037,1.224-0.15,1.591-0.328c0.868-0.424,1.867-2.385,1.934-3.351C67.11,68.72,66.896,68.134,66.581,67.558z"/>
		</g>
	</g>
	<g>
		<g>
			<path fill="#33BF11" d="M102.399,125.32c0.527-0.896,0.914-1.766,1.065-2.45c0.505-2.266-1.694-7.059-3.389-8.646
				c-1.695-1.585-7.021-2.235-9.183-1.388c-0.096,0.037-0.196,0.09-0.295,0.139c-0.325-0.328-0.642-0.609-0.936-0.811
				c-1.911-1.317-7.275-1.161-9.286,0c-2.011,1.16-4.827,5.728-4.643,8.042c0.037,0.468,0.167,1.028,0.367,1.633
				c-1.315,1.831-2.39,4.185-2.275,5.644c0.184,2.314,2.634,6.879,4.643,8.043c0.679,0.393,1.723,0.633,2.885,0.742
				c0.717,1.299,1.562,2.423,2.368,2.957c1.936,1.277,7.126,1.439,9.271,0.549c0.694-0.289,1.444-0.965,2.151-1.822
				c1.508-0.088,2.938-0.357,3.814-0.784c2.087-1.02,4.483-5.729,4.645-8.044C103.671,128.111,103.159,126.7,102.399,125.32z"/>
		</g>
		<g>
			<path fill="#41D118" d="M99.601,125.683c0.408-0.697,0.708-1.372,0.826-1.903c0.391-1.759-1.316-5.479-2.631-6.71
				s-5.449-1.734-7.127-1.077c-0.074,0.028-0.152,0.068-0.229,0.106c-0.251-0.252-0.496-0.473-0.724-0.629
				c-1.484-1.021-5.646-0.9-7.209,0c-1.559,0.9-3.745,4.445-3.603,6.242c0.029,0.363,0.13,0.799,0.286,1.268
				c-1.021,1.421-1.855,3.248-1.766,4.379c0.143,1.797,2.044,5.34,3.603,6.244c0.526,0.304,1.336,0.49,2.239,0.576
				c0.556,1.007,1.213,1.879,1.837,2.292c1.504,0.993,5.531,1.119,7.195,0.428c0.539-0.225,1.121-0.749,1.67-1.414
				c1.171-0.067,2.279-0.279,2.961-0.61c1.62-0.788,3.479-4.444,3.604-6.242C100.587,127.847,100.188,126.752,99.601,125.683z"/>
		</g>
		<g>
			<path fill="#4BD81D" d="M96.772,125.477c0.311-0.531,0.541-1.046,0.63-1.448c0.298-1.34-1.003-4.175-2.003-5.111
				c-1.004-0.939-4.152-1.322-5.431-0.823c-0.056,0.022-0.116,0.055-0.175,0.083c-0.191-0.194-0.379-0.359-0.553-0.48
				c-1.131-0.776-4.301-0.685-5.49,0c-1.189,0.688-2.854,3.388-2.746,4.756c0.021,0.277,0.1,0.607,0.217,0.966
				c-0.777,1.083-1.414,2.476-1.345,3.336c0.107,1.369,1.556,4.067,2.745,4.756c0.401,0.231,1.019,0.374,1.705,0.44
				c0.425,0.768,0.925,1.432,1.4,1.746c1.145,0.758,4.214,0.852,5.48,0.325c0.411-0.17,0.855-0.569,1.272-1.077
				c0.892-0.052,1.737-0.212,2.257-0.463c1.233-0.603,2.649-3.387,2.745-4.756C97.524,127.126,97.222,126.292,96.772,125.477z"/>
		</g>
		<g>
			<path fill="#6DEA39" d="M94.589,125.761c0.219-0.374,0.379-0.736,0.442-1.021c0.211-0.942-0.706-2.939-1.411-3.601
				c-0.705-0.662-2.925-0.931-3.824-0.578c-0.039,0.016-0.081,0.038-0.123,0.058c-0.136-0.137-0.268-0.254-0.39-0.338
				c-0.796-0.548-3.03-0.484-3.867,0c-0.839,0.483-2.011,2.387-1.935,3.352c0.016,0.193,0.07,0.426,0.153,0.679
				c-0.548,0.763-0.996,1.742-0.948,2.351c0.077,0.963,1.098,2.866,1.935,3.35c0.282,0.162,0.718,0.264,1.2,0.311
				c0.3,0.541,0.651,1.008,0.987,1.229c0.807,0.532,2.968,0.6,3.86,0.229c0.291-0.119,0.603-0.401,0.896-0.757
				c0.629-0.037,1.223-0.15,1.59-0.329c0.868-0.424,1.867-2.384,1.934-3.351C95.118,126.923,94.904,126.335,94.589,125.761z"/>
		</g>
	</g>
	<g>
		<g>
			<path fill="#33BF11" d="M129.12,125.58c0.525-0.898,0.914-1.767,1.064-2.451c0.506-2.266-1.693-7.059-3.389-8.646
				c-1.693-1.586-7.021-2.235-9.184-1.387c-0.094,0.036-0.195,0.088-0.293,0.137c-0.326-0.327-0.641-0.608-0.936-0.811
				c-1.912-1.316-7.275-1.16-9.285,0c-2.012,1.162-4.828,5.729-4.644,8.043c0.036,0.467,0.167,1.028,0.366,1.633
				c-1.314,1.831-2.391,4.185-2.275,5.644c0.184,2.314,2.635,6.878,4.644,8.042c0.679,0.395,1.724,0.634,2.885,0.744
				c0.717,1.297,1.562,2.422,2.367,2.955c1.937,1.278,7.128,1.44,9.271,0.549c0.695-0.288,1.445-0.963,2.152-1.822
				c1.508-0.087,2.938-0.356,3.814-0.783c2.088-1.02,4.484-5.729,4.645-8.044C130.392,128.37,129.88,126.958,129.12,125.58z"/>
		</g>
		<g>
			<path fill="#41D118" d="M126.321,125.941c0.408-0.697,0.709-1.371,0.826-1.902c0.391-1.758-1.314-5.479-2.631-6.71
				c-1.314-1.231-5.449-1.735-7.127-1.077c-0.074,0.029-0.152,0.068-0.229,0.107c-0.252-0.254-0.498-0.474-0.725-0.629
				c-1.485-1.022-5.647-0.9-7.209,0c-1.559,0.899-3.745,4.445-3.604,6.241c0.029,0.363,0.131,0.798,0.286,1.268
				c-1.021,1.421-1.856,3.247-1.767,4.379c0.143,1.798,2.045,5.34,3.604,6.243c0.525,0.305,1.336,0.491,2.238,0.576
				c0.557,1.008,1.213,1.881,1.838,2.293c1.504,0.992,5.531,1.119,7.195,0.428c0.539-0.225,1.121-0.748,1.67-1.414
				c1.17-0.066,2.279-0.279,2.961-0.61c1.619-0.789,3.48-4.444,3.604-6.242C127.308,128.107,126.909,127.01,126.321,125.941z"/>
		</g>
		<g>
			<path fill="#4BD81D" d="M123.493,125.736c0.311-0.531,0.541-1.045,0.629-1.448c0.299-1.341-1-4.175-2.002-5.112
				c-1.004-0.938-4.152-1.321-5.43-0.822c-0.057,0.022-0.117,0.054-0.176,0.083c-0.191-0.194-0.379-0.36-0.553-0.479
				c-1.131-0.777-4.302-0.686-5.49,0c-1.189,0.686-2.854,3.387-2.746,4.755c0.021,0.277,0.1,0.608,0.218,0.966
				c-0.778,1.084-1.415,2.475-1.345,3.336c0.107,1.369,1.556,4.068,2.745,4.756c0.401,0.231,1.019,0.373,1.705,0.44
				c0.424,0.768,0.925,1.432,1.399,1.747c1.146,0.756,4.215,0.852,5.48,0.324c0.412-0.17,0.855-0.569,1.273-1.077
				c0.891-0.052,1.738-0.212,2.256-0.463c1.234-0.603,2.65-3.388,2.746-4.757C124.245,127.385,123.942,126.552,123.493,125.736z"/>
		</g>
		<g>
			<path fill="#6DEA39" d="M121.31,126.02c0.219-0.374,0.381-0.737,0.443-1.021c0.209-0.942-0.707-2.939-1.412-3.601
				c-0.705-0.662-2.924-0.931-3.824-0.578c-0.039,0.016-0.082,0.039-0.123,0.058c-0.135-0.138-0.268-0.254-0.389-0.339
				c-0.797-0.547-3.031-0.483-3.868,0c-0.838,0.484-2.011,2.389-1.935,3.352c0.016,0.194,0.07,0.427,0.153,0.68
				c-0.549,0.763-0.997,1.742-0.948,2.351c0.076,0.964,1.097,2.865,1.935,3.35c0.282,0.163,0.717,0.264,1.2,0.311
				c0.299,0.541,0.651,1.007,0.986,1.229c0.808,0.533,2.969,0.601,3.861,0.229c0.291-0.118,0.602-0.399,0.896-0.757
				c0.629-0.035,1.223-0.15,1.59-0.328c0.869-0.424,1.867-2.385,1.934-3.351C121.839,127.182,121.626,126.595,121.31,126.02z"/>
		</g>
	</g>
	<g>
		<path fill="#492A04" d="M56.594,109.937c0,0-5.1,12.989-2.813,26.827c-0.121,2.405-4.453,4.452-6.257,1.204
			c-1.806-3.25-3.488-24.896,0.122-32.303C51.253,98.258,59.046,106.333,56.594,109.937z"/>
	</g>
	<g>
		<path fill="#492A04" d="M45.514,120.57c0,0-10.626,11.381-19.29,11.02s-8.904-2.16-8.904-2.16s-1.685-2.172,0.842-4.578
			c2.166,0.842,13.923-0.074,18.453-3.706c4.529-3.634,9.448-9.594,9.535-10.101C46.237,110.54,47.837,119.898,45.514,120.57z"/>
	</g>
	<g>
		<path fill="#492A04" d="M106.053,53.064c0,0,5.1-12.989,2.813-26.828c0.121-2.406,4.452-4.452,6.258-1.203
			c1.805,3.249,3.486,24.895-0.122,32.301C111.393,64.742,103.601,56.669,106.053,53.064z"/>
	</g>
	<g>
		<path fill="#492A04" d="M117.132,42.431c0,0,10.627-11.381,19.289-11.02c8.664,0.361,8.906,2.16,8.906,2.16
			s1.684,2.172-0.844,4.579c-2.166-0.843-13.924,0.074-18.453,3.707c-4.529,3.633-9.447,9.593-9.533,10.1
			C116.409,52.462,114.81,43.104,117.132,42.431z"/>
	</g>
	<g>
		<g>
			<path fill="#33BF11" d="M143.97,87.638c1.289-2.205,2.238-4.337,2.611-6.014c1.238-5.562-4.16-17.326-8.316-21.222
				c-4.158-3.896-17.232-5.485-22.537-3.407c-0.234,0.092-0.48,0.217-0.726,0.339c-0.796-0.805-1.573-1.494-2.292-1.989
				c-4.693-3.23-17.857-2.849-22.793,0c-4.935,2.85-11.846,14.059-11.396,19.739c0.09,1.148,0.412,2.524,0.902,4.007
				c-3.227,4.495-5.869,10.271-5.585,13.851c0.451,5.681,6.464,16.885,11.396,19.738c1.666,0.965,4.229,1.553,7.079,1.826
				c1.761,3.186,3.837,5.943,5.812,7.25c4.754,3.141,17.49,3.537,22.754,1.352c1.705-0.71,3.545-2.367,5.279-4.472
				c3.703-0.214,7.209-0.88,9.365-1.928c5.121-2.498,11.002-14.057,11.395-19.74C147.089,94.485,145.831,91.023,143.97,87.638z"/>
		</g>
		<g>
			<path fill="#41D118" d="M137.097,88.527c1-1.711,1.738-3.366,2.027-4.668c0.961-4.316-3.229-13.447-6.457-16.469
				c-3.225-3.024-13.373-4.259-17.49-2.644c-0.18,0.07-0.372,0.169-0.562,0.262c-0.617-0.625-1.221-1.16-1.778-1.543
				c-3.644-2.507-13.859-2.211-17.689,0c-3.83,2.212-9.193,10.911-8.845,15.319c0.07,0.891,0.32,1.959,0.7,3.111
				c-2.505,3.489-4.555,7.971-4.334,10.75c0.349,4.408,5.017,13.102,8.844,15.319c1.292,0.747,3.28,1.204,5.493,1.416
				c1.367,2.472,2.979,4.612,4.511,5.627c3.69,2.438,13.575,2.745,17.659,1.048c1.324-0.551,2.752-1.835,4.098-3.471
				c2.875-0.166,5.594-0.681,7.268-1.494c3.977-1.938,8.539-10.91,8.846-15.321C139.519,93.84,138.542,91.152,137.097,88.527z"/>
		</g>
		<g>
			<path fill="#4BD81D" d="M130.157,88.023c0.762-1.303,1.324-2.564,1.545-3.555c0.732-3.29-2.461-10.245-4.918-12.547
				c-2.459-2.305-10.189-3.244-13.326-2.016c-0.137,0.054-0.284,0.129-0.429,0.201c-0.47-0.476-0.93-0.883-1.356-1.177
				c-2.774-1.909-10.558-1.684-13.476,0c-2.917,1.687-7.004,8.313-6.738,11.671c0.055,0.68,0.243,1.491,0.534,2.37
				c-1.908,2.658-3.471,6.072-3.302,8.189c0.265,3.358,3.821,9.982,6.737,11.672c0.984,0.568,2.499,0.916,4.186,1.078
				c1.041,1.883,2.269,3.515,3.436,4.288c2.811,1.856,10.342,2.091,13.453,0.796c1.01-0.418,2.098-1.396,3.123-2.643
				c2.189-0.127,4.262-0.519,5.537-1.139c3.027-1.476,6.506-8.311,6.738-11.673C132.001,92.072,131.259,90.025,130.157,88.023z"/>
		</g>
		<g>
			<path fill="#6DEA39" d="M124.796,88.72c0.537-0.92,0.932-1.807,1.088-2.504c0.516-2.318-1.732-7.218-3.465-8.84
				c-1.732-1.624-7.176-2.284-9.385-1.419c-0.098,0.04-0.202,0.091-0.303,0.142c-0.332-0.335-0.656-0.623-0.956-0.829
				c-1.954-1.345-7.438-1.187-9.493,0c-2.055,1.187-4.934,5.856-4.746,8.221c0.039,0.478,0.171,1.05,0.377,1.67
				c-1.346,1.872-2.445,4.278-2.327,5.77c0.188,2.364,2.692,7.032,4.747,8.222c0.693,0.398,1.76,0.645,2.947,0.759
				c0.734,1.327,1.598,2.475,2.42,3.021c1.98,1.307,7.286,1.473,9.477,0.561c0.711-0.294,1.479-0.982,2.201-1.86
				c1.541-0.089,3.002-0.366,3.898-0.804c2.135-1.039,4.584-5.854,4.748-8.221C126.095,91.572,125.571,90.128,124.796,88.72z"/>
		</g>
	</g>
	<g>
		<g>
			<path fill="#33BF11" d="M93.1,92.54c1.078-1.845,1.872-3.624,2.183-5.026c1.035-4.649-3.476-14.48-6.95-17.736
				c-3.476-3.255-14.4-4.584-18.834-2.847c-0.195,0.077-0.401,0.182-0.606,0.283c-0.666-0.672-1.314-1.248-1.916-1.661
				c-3.923-2.7-14.923-2.381-19.047,0c-4.124,2.381-9.901,11.748-9.525,16.496c0.077,0.959,0.344,2.108,0.754,3.348
				c-2.696,3.758-4.905,8.584-4.668,11.576c0.376,4.748,5.402,14.111,9.524,16.497c1.392,0.806,3.534,1.298,5.917,1.523
				c1.472,2.663,3.206,4.968,4.856,6.061c3.973,2.624,14.618,2.956,19.015,1.128c1.425-0.592,2.964-1.977,4.414-3.736
				c3.094-0.179,6.023-0.733,7.825-1.611c4.281-2.086,9.195-11.747,9.524-16.497C95.707,98.261,94.656,95.367,93.1,92.54z"/>
		</g>
		<g>
			<path fill="#41D118" d="M87.356,93.281c0.836-1.43,1.452-2.812,1.695-3.9c0.803-3.607-2.699-11.237-5.396-13.764
				c-2.696-2.527-11.176-3.559-14.617-2.21c-0.15,0.06-0.311,0.142-0.47,0.22c-0.517-0.522-1.021-0.968-1.487-1.289
				c-3.044-2.096-11.582-1.85-14.783,0c-3.2,1.847-7.684,9.118-7.392,12.802c0.059,0.745,0.267,1.636,0.586,2.599
				c-2.094,2.916-3.807,6.662-3.623,8.985c0.292,3.683,4.192,10.949,7.392,12.802c1.08,0.625,2.741,1.008,4.591,1.183
				c1.142,2.066,2.489,3.855,3.769,4.702c3.083,2.038,11.346,2.296,14.758,0.878c1.106-0.46,2.3-1.536,3.425-2.899
				c2.401-0.141,4.675-0.572,6.073-1.252c3.323-1.619,7.137-9.117,7.392-12.803C89.38,97.722,88.563,95.475,87.356,93.281z"/>
		</g>
		<g>
			<path fill="#4BD81D" d="M81.557,92.861c0.637-1.09,1.107-2.143,1.291-2.972c0.612-2.749-2.056-8.562-4.11-10.485
				c-2.055-1.926-8.516-2.712-11.136-1.685c-0.115,0.045-0.237,0.108-0.358,0.168c-0.393-0.397-0.777-0.739-1.133-0.982
				c-2.319-1.597-8.824-1.408-11.262,0c-2.438,1.407-5.853,6.946-5.632,9.753c0.045,0.568,0.205,1.246,0.447,1.979
				c-1.596,2.223-2.9,5.077-2.759,6.846c0.222,2.807,3.194,8.342,5.631,9.754c0.822,0.475,2.089,0.766,3.497,0.901
				c0.871,1.574,1.896,2.938,2.872,3.583c2.349,1.553,8.643,1.748,11.243,0.666c0.843-0.35,1.752-1.166,2.61-2.209
				c1.829-0.105,3.562-0.432,4.627-0.95c2.531-1.235,5.437-6.946,5.631-9.757C83.099,96.245,82.477,94.533,81.557,92.861z"/>
		</g>
		<g>
			<path fill="#6DEA39" d="M77.077,93.443c0.448-0.768,0.779-1.51,0.909-2.093c0.431-1.937-1.448-6.031-2.895-7.388
				c-1.448-1.356-5.998-1.908-7.845-1.186c-0.081,0.033-0.167,0.076-0.253,0.119c-0.277-0.281-0.547-0.521-0.798-0.693
				c-1.633-1.125-6.215-0.993-7.934,0c-1.717,0.992-4.124,4.894-3.967,6.871c0.033,0.398,0.143,0.878,0.314,1.394
				c-1.124,1.565-2.043,3.576-1.944,4.822c0.156,1.976,2.251,5.877,3.967,6.87c0.58,0.334,1.471,0.539,2.464,0.637
				c0.612,1.107,1.334,2.067,2.022,2.522c1.655,1.093,6.089,1.231,7.919,0.468c0.594-0.245,1.235-0.82,1.838-1.554
				c1.289-0.075,2.509-0.306,3.259-0.672c1.783-0.868,3.83-4.893,3.967-6.871C78.163,95.826,77.725,94.621,77.077,93.443z"/>
		</g>
	</g>
	<g>
		<g>
			<path fill="#33BF11" d="M105.205,54.673c0.786-1.346,1.366-2.647,1.595-3.67c0.755-3.395-2.539-10.575-5.077-12.952
				s-10.517-3.349-13.755-2.079c-0.143,0.056-0.293,0.132-0.442,0.207c-0.486-0.492-0.96-0.912-1.399-1.214
				c-2.864-1.972-10.899-1.739-13.911,0c-3.012,1.738-7.23,8.58-6.956,12.047c0.056,0.701,0.251,1.54,0.551,2.445
				c-1.97,2.744-3.582,6.269-3.409,8.454c0.276,3.467,3.946,10.306,6.955,12.047c1.017,0.589,2.581,0.948,4.321,1.115
				c1.075,1.944,2.342,3.627,3.548,4.424c2.901,1.917,10.675,2.16,13.886,0.825c1.041-0.432,2.166-1.443,3.224-2.729
				c2.26-0.13,4.399-0.536,5.714-1.176c3.127-1.525,6.717-8.58,6.957-12.049C107.108,58.852,106.341,56.739,105.205,54.673z"/>
		</g>
		<g>
			<path fill="#41D118" d="M101.011,55.216c0.609-1.045,1.061-2.055,1.237-2.85c0.586-2.634-1.972-8.207-3.94-10.052
				c-1.97-1.846-8.162-2.599-10.676-1.614c-0.11,0.043-0.227,0.103-0.343,0.161c-0.378-0.381-0.745-0.708-1.086-0.942
				c-2.224-1.53-8.459-1.35-10.797,0c-2.337,1.349-5.611,6.659-5.398,9.35c0.043,0.544,0.195,1.195,0.428,1.897
				c-1.529,2.13-2.78,4.866-2.645,6.562c0.213,2.691,3.062,7.997,5.398,9.35c0.788,0.457,2.002,0.735,3.353,0.864
				c0.833,1.509,1.817,2.815,2.752,3.434c2.252,1.488,8.285,1.676,10.777,0.641c0.809-0.336,1.681-1.12,2.502-2.118
				c1.754-0.102,3.414-0.417,4.435-0.913c2.427-1.183,5.214-6.659,5.399-9.352C102.488,58.458,101.892,56.818,101.011,55.216z"/>
		</g>
		<g>
			<path fill="#4BD81D" d="M96.774,54.909c0.466-0.797,0.809-1.565,0.943-2.171c0.447-2.008-1.502-6.253-3.002-7.658
				c-1.5-1.406-6.219-1.98-8.133-1.23c-0.084,0.034-0.173,0.079-0.262,0.123c-0.287-0.291-0.568-0.54-0.827-0.718
				c-1.694-1.166-6.444-1.028-8.226,0c-1.78,1.028-4.275,5.073-4.113,7.123c0.033,0.415,0.149,0.91,0.326,1.446
				c-1.164,1.623-2.117,3.708-2.015,4.999c0.162,2.05,2.333,6.093,4.113,7.123c0.601,0.348,1.525,0.56,2.554,0.659
				c0.635,1.15,1.384,2.144,2.097,2.616c1.715,1.134,6.312,1.277,8.211,0.487c0.616-0.255,1.28-0.854,1.905-1.614
				c1.337-0.077,2.602-0.316,3.379-0.695c1.85-0.9,3.971-5.072,4.113-7.125C97.901,57.379,97.446,56.129,96.774,54.909z"/>
		</g>
		<g>
			<path fill="#6DEA39" d="M93.503,55.333c0.327-0.561,0.569-1.103,0.664-1.528c0.314-1.414-1.059-4.405-2.115-5.395
				c-1.057-0.991-4.38-1.395-5.729-0.866c-0.059,0.023-0.123,0.056-0.185,0.086c-0.202-0.205-0.399-0.38-0.583-0.506
				c-1.192-0.82-4.539-0.724-5.793,0c-1.255,0.725-3.013,3.574-2.898,5.019c0.024,0.292,0.104,0.641,0.23,1.018
				c-0.821,1.143-1.492,2.611-1.42,3.521c0.115,1.443,1.644,4.292,2.898,5.018c0.423,0.244,1.074,0.394,1.799,0.464
				c0.447,0.81,0.976,1.511,1.478,1.842c1.209,0.798,4.447,0.9,5.783,0.343c0.435-0.18,0.902-0.6,1.343-1.135
				c0.942-0.054,1.832-0.224,2.38-0.491c1.303-0.634,2.798-3.572,2.898-5.018C94.296,57.074,93.977,56.193,93.503,55.333z"/>
		</g>
	</g>
	<g>
		<g>
			<path fill="#33BF11" d="M156.187,27.075c0.537-0.921,0.936-1.812,1.09-2.512c0.518-2.323-1.736-7.237-3.473-8.864
				c-1.738-1.627-7.197-2.292-9.414-1.423c-0.098,0.039-0.199,0.09-0.303,0.142c-0.332-0.336-0.656-0.625-0.957-0.831
				c-1.961-1.35-7.459-1.19-9.52,0s-4.949,5.872-4.76,8.245c0.037,0.479,0.17,1.053,0.377,1.673
				c-1.35,1.877-2.453,4.291-2.334,5.785c0.188,2.373,2.699,7.052,4.76,8.245c0.695,0.403,1.766,0.648,2.957,0.763
				c0.734,1.331,1.602,2.482,2.428,3.028c1.984,1.312,7.305,1.478,9.504,0.564c0.711-0.297,1.48-0.988,2.205-1.868
				c1.545-0.089,3.01-0.367,3.91-0.805c2.139-1.043,4.596-5.872,4.76-8.245C157.489,29.935,156.964,28.488,156.187,27.075z"/>
		</g>
		<g>
			<path fill="#41D118" d="M153.315,27.446c0.418-0.715,0.725-1.406,0.848-1.95c0.4-1.803-1.35-5.616-2.697-6.879
				c-1.348-1.263-5.586-1.779-7.305-1.104c-0.076,0.03-0.156,0.071-0.236,0.11c-0.258-0.261-0.51-0.484-0.742-0.645
				c-1.521-1.047-5.789-0.923-7.389,0s-3.84,4.557-3.695,6.398c0.029,0.373,0.135,0.818,0.293,1.299
				c-1.045,1.458-1.902,3.33-1.811,4.49c0.146,1.842,2.096,5.473,3.695,6.399c0.539,0.312,1.369,0.503,2.293,0.591
				c0.572,1.033,1.244,1.927,1.885,2.351c1.541,1.018,5.67,1.146,7.375,0.438c0.553-0.23,1.15-0.767,1.713-1.449
				c1.199-0.07,2.336-0.286,3.035-0.625c1.66-0.809,3.566-4.557,3.693-6.399C154.327,29.665,153.919,28.542,153.315,27.446z"/>
		</g>
		<g>
			<path fill="#4BD81D" d="M150.417,27.236c0.318-0.545,0.553-1.072,0.645-1.486c0.307-1.374-1.027-4.279-2.053-5.241
				c-1.027-0.962-4.258-1.355-5.566-0.842c-0.059,0.022-0.119,0.054-0.18,0.084c-0.195-0.199-0.389-0.369-0.566-0.492
				c-1.158-0.797-4.41-0.703-5.629,0c-1.219,0.704-2.926,3.473-2.814,4.875c0.023,0.284,0.104,0.623,0.223,0.99
				c-0.797,1.11-1.447,2.537-1.379,3.421c0.111,1.402,1.598,4.169,2.814,4.874c0.412,0.238,1.045,0.383,1.748,0.451
				c0.436,0.787,0.947,1.467,1.436,1.791c1.174,0.775,4.32,0.873,5.619,0.333c0.422-0.174,0.875-0.584,1.305-1.104
				c0.912-0.053,1.779-0.217,2.312-0.476c1.264-0.617,2.717-3.472,2.814-4.876C151.187,28.927,150.876,28.072,150.417,27.236z"/>
		</g>
		<g>
			<path fill="#6DEA39" d="M148.179,27.526c0.223-0.384,0.389-0.755,0.453-1.046c0.217-0.968-0.723-3.014-1.447-3.691
				c-0.723-0.679-2.998-0.955-3.92-0.593c-0.041,0.017-0.084,0.038-0.127,0.059c-0.139-0.14-0.273-0.26-0.398-0.346
				c-0.816-0.562-3.105-0.496-3.965,0s-2.061,2.446-1.982,3.434c0.016,0.2,0.07,0.439,0.158,0.697
				c-0.562,0.782-1.023,1.787-0.973,2.41c0.078,0.987,1.125,2.937,1.982,3.434c0.289,0.167,0.736,0.27,1.23,0.317
				c0.307,0.554,0.668,1.033,1.012,1.26c0.826,0.546,3.043,0.616,3.959,0.235c0.297-0.123,0.615-0.411,0.918-0.777
				c0.645-0.038,1.254-0.153,1.629-0.336c0.891-0.434,1.914-2.445,1.982-3.434C148.72,28.718,148.501,28.115,148.179,27.526z"/>
		</g>
	</g>
	<g>
		<g>
			<path fill="#33BF11" d="M150.802,51.501c0.537-0.921,0.936-1.812,1.092-2.512c0.516-2.324-1.738-7.237-3.475-8.864
				s-7.197-2.292-9.414-1.423c-0.096,0.039-0.199,0.091-0.303,0.142c-0.332-0.336-0.656-0.625-0.957-0.831
				c-1.961-1.35-7.459-1.19-9.52,0c-2.061,1.19-4.947,5.872-4.76,8.244c0.037,0.479,0.172,1.053,0.377,1.673
				c-1.348,1.878-2.451,4.291-2.334,5.785c0.189,2.373,2.701,7.052,4.76,8.245c0.695,0.403,1.766,0.648,2.957,0.762
				c0.736,1.331,1.602,2.482,2.428,3.028c1.986,1.312,7.305,1.478,9.504,0.564c0.711-0.295,1.48-0.987,2.205-1.867
				c1.547-0.089,3.012-0.367,3.912-0.805c2.137-1.043,4.594-5.871,4.76-8.245C152.104,54.361,151.579,52.915,150.802,51.501z"/>
		</g>
		<g>
			<path fill="#41D118" d="M147.931,51.873c0.418-0.716,0.727-1.407,0.848-1.95c0.4-1.803-1.35-5.616-2.697-6.879
				c-1.348-1.263-5.586-1.779-7.305-1.104c-0.076,0.029-0.156,0.07-0.236,0.11c-0.256-0.261-0.51-0.484-0.742-0.645
				c-1.521-1.047-5.789-0.924-7.389,0c-1.6,0.923-3.84,4.557-3.693,6.398c0.029,0.373,0.133,0.818,0.293,1.299
				c-1.047,1.458-1.904,3.33-1.811,4.49c0.145,1.842,2.094,5.473,3.693,6.398c0.539,0.313,1.369,0.503,2.295,0.592
				c0.57,1.033,1.242,1.926,1.883,2.35c1.541,1.018,5.67,1.147,7.375,0.438c0.555-0.23,1.15-0.767,1.713-1.45
				c1.201-0.069,2.336-0.285,3.035-0.625c1.66-0.81,3.566-4.557,3.695-6.399C148.942,54.091,148.534,52.969,147.931,51.873z"/>
		</g>
		<g>
			<path fill="#4BD81D" d="M145.032,51.663c0.318-0.545,0.555-1.072,0.645-1.486c0.307-1.374-1.027-4.279-2.053-5.241
				c-1.027-0.962-4.256-1.355-5.566-0.842c-0.059,0.022-0.119,0.054-0.18,0.084c-0.195-0.199-0.387-0.369-0.564-0.492
				c-1.16-0.797-4.41-0.703-5.629,0c-1.219,0.705-2.928,3.473-2.814,4.875c0.021,0.284,0.102,0.623,0.223,0.99
				c-0.797,1.11-1.449,2.537-1.379,3.421c0.109,1.402,1.596,4.169,2.814,4.875c0.41,0.237,1.043,0.382,1.748,0.45
				c0.434,0.787,0.947,1.468,1.434,1.791c1.176,0.775,4.32,0.874,5.619,0.333c0.422-0.175,0.877-0.584,1.305-1.104
				c0.914-0.053,1.781-0.217,2.312-0.476c1.266-0.617,2.717-3.471,2.814-4.875C145.804,53.353,145.493,52.498,145.032,51.663z"/>
		</g>
		<g>
			<path fill="#6DEA39" d="M142.794,51.953c0.223-0.384,0.389-0.754,0.453-1.046c0.217-0.968-0.723-3.015-1.445-3.692
				c-0.725-0.678-2.998-0.954-3.922-0.592c-0.039,0.016-0.082,0.038-0.125,0.059c-0.139-0.14-0.273-0.26-0.4-0.346
				c-0.816-0.562-3.105-0.496-3.965,0c-0.857,0.496-2.061,2.446-1.982,3.434c0.018,0.201,0.072,0.439,0.158,0.697
				c-0.562,0.782-1.021,1.787-0.973,2.41c0.078,0.987,1.125,2.937,1.982,3.434c0.289,0.167,0.736,0.27,1.232,0.317
				c0.307,0.554,0.666,1.033,1.01,1.261c0.828,0.546,3.043,0.615,3.959,0.234c0.297-0.123,0.617-0.41,0.918-0.776
				c0.645-0.038,1.254-0.153,1.629-0.336c0.891-0.434,1.914-2.445,1.982-3.434C143.335,53.144,143.116,52.542,142.794,51.953z"/>
		</g>
	</g>
	<g>
		<g>
			<path fill="#33BF11" d="M161.608,43.511c0.451-0.773,0.785-1.52,0.916-2.106c0.434-1.948-1.457-6.068-2.914-7.432
				c-1.455-1.364-6.033-1.921-7.893-1.193c-0.08,0.033-0.168,0.077-0.252,0.12c-0.281-0.282-0.553-0.524-0.805-0.697
				c-1.643-1.131-6.254-0.998-7.98,0c-1.729,0.998-4.15,4.923-3.992,6.913c0.031,0.402,0.145,0.883,0.316,1.403
				c-1.131,1.575-2.055,3.597-1.957,4.851c0.158,1.989,2.266,5.912,3.992,6.913c0.582,0.338,1.48,0.544,2.479,0.639
				c0.617,1.116,1.344,2.082,2.035,2.54c1.664,1.1,6.125,1.239,7.969,0.473c0.598-0.248,1.24-0.829,1.848-1.565
				c1.297-0.076,2.525-0.309,3.279-0.675c1.795-0.875,3.854-4.923,3.992-6.913C162.7,45.908,162.261,44.696,161.608,43.511z"/>
		</g>
		<g>
			<path fill="#41D118" d="M159.202,43.822c0.35-0.6,0.609-1.179,0.709-1.635c0.338-1.512-1.129-4.709-2.26-5.768
				c-1.131-1.059-4.684-1.491-6.125-0.926c-0.064,0.025-0.131,0.059-0.197,0.092c-0.217-0.219-0.428-0.406-0.623-0.541
				c-1.275-0.878-4.854-0.774-6.195,0c-1.34,0.774-3.219,3.821-3.098,5.365c0.025,0.312,0.111,0.686,0.246,1.089
				c-0.877,1.222-1.596,2.792-1.518,3.765c0.121,1.543,1.756,4.588,3.098,5.365c0.451,0.263,1.148,0.422,1.922,0.497
				c0.479,0.866,1.043,1.615,1.58,1.97c1.293,0.854,4.754,0.963,6.186,0.368c0.463-0.193,0.963-0.644,1.434-1.216
				c1.008-0.058,1.959-0.239,2.545-0.523c1.393-0.679,2.992-3.821,3.098-5.366C160.05,45.682,159.708,44.741,159.202,43.822z"/>
		</g>
		<g>
			<path fill="#4BD81D" d="M156.772,43.646c0.266-0.457,0.463-0.898,0.541-1.246c0.256-1.151-0.861-3.587-1.723-4.394
				c-0.861-0.807-3.568-1.136-4.666-0.706c-0.049,0.019-0.1,0.045-0.152,0.07c-0.164-0.167-0.324-0.31-0.475-0.412
				c-0.971-0.668-3.697-0.59-4.719,0c-1.021,0.59-2.453,2.911-2.359,4.087c0.02,0.238,0.086,0.522,0.188,0.831
				c-0.67,0.93-1.215,2.126-1.156,2.868c0.092,1.176,1.338,3.496,2.357,4.087c0.346,0.199,0.877,0.321,1.467,0.379
				c0.365,0.659,0.795,1.229,1.203,1.501c0.984,0.649,3.623,0.732,4.711,0.279c0.354-0.146,0.734-0.49,1.094-0.926
				c0.768-0.044,1.494-0.181,1.939-0.399c1.061-0.517,2.279-2.91,2.359-4.087C157.419,45.063,157.157,44.346,156.772,43.646z"/>
		</g>
		<g>
			<path fill="#6DEA39" d="M154.896,43.889c0.188-0.322,0.326-0.633,0.381-0.877c0.18-0.811-0.607-2.527-1.215-3.095
				c-0.605-0.569-2.512-0.8-3.287-0.497c-0.033,0.014-0.07,0.032-0.105,0.049c-0.115-0.117-0.229-0.218-0.334-0.29
				c-0.684-0.471-2.605-0.416-3.324,0c-0.721,0.415-1.729,2.05-1.664,2.879c0.016,0.167,0.061,0.368,0.133,0.584
				c-0.471,0.656-0.855,1.499-0.814,2.021c0.066,0.829,0.943,2.462,1.662,2.879c0.242,0.14,0.617,0.226,1.033,0.267
				c0.256,0.464,0.559,0.866,0.848,1.057c0.693,0.458,2.551,0.516,3.318,0.197c0.248-0.103,0.516-0.344,0.77-0.651
				c0.541-0.032,1.053-0.128,1.365-0.282c0.748-0.364,1.605-2.05,1.664-2.879C155.349,44.888,155.165,44.383,154.896,43.889z"/>
		</g>
	</g>
	<g>
		<g>
			<path fill="#33BF11" d="M127.421,17.022c0.418-0.717,0.729-1.41,0.85-1.955c0.402-1.808-1.354-5.631-2.705-6.897
				c-1.35-1.266-5.6-1.783-7.324-1.107c-0.076,0.03-0.156,0.071-0.234,0.11c-0.26-0.262-0.512-0.486-0.746-0.646
				c-1.525-1.05-5.805-0.925-7.408,0c-1.604,0.926-3.85,4.569-3.704,6.416c0.03,0.373,0.134,0.82,0.294,1.302
				c-1.05,1.461-1.908,3.338-1.816,4.502c0.146,1.846,2.102,5.488,3.704,6.416c0.542,0.314,1.374,0.505,2.301,0.593
				c0.571,1.035,1.247,1.932,1.89,2.356c1.544,1.021,5.686,1.15,7.395,0.439c0.555-0.23,1.152-0.769,1.717-1.453
				c1.203-0.07,2.344-0.285,3.043-0.626c1.664-0.812,3.576-4.569,3.703-6.417C128.435,19.248,128.026,18.122,127.421,17.022z"/>
		</g>
		<g>
			<path fill="#41D118" d="M125.187,17.311c0.326-0.556,0.564-1.094,0.66-1.518c0.311-1.403-1.051-4.371-2.1-5.353
				c-1.049-0.983-4.346-1.385-5.684-0.859c-0.061,0.022-0.123,0.054-0.184,0.085c-0.201-0.203-0.396-0.377-0.578-0.502
				c-1.184-0.814-4.505-0.718-5.75,0c-1.244,0.719-2.988,3.547-2.875,4.979c0.023,0.29,0.104,0.636,0.229,1.011
				c-0.814,1.134-1.48,2.591-1.409,3.494c0.113,1.433,1.631,4.259,2.874,4.979c0.42,0.243,1.066,0.392,1.786,0.46
				c0.444,0.804,0.968,1.499,1.466,1.829c1.199,0.792,4.412,0.893,5.74,0.341c0.43-0.179,0.895-0.597,1.332-1.128
				c0.934-0.054,1.818-0.223,2.361-0.487c1.293-0.629,2.775-3.545,2.875-4.979C125.974,19.038,125.657,18.165,125.187,17.311z"/>
		</g>
		<g>
			<path fill="#4BD81D" d="M122.931,17.147c0.248-0.424,0.432-0.833,0.502-1.156c0.238-1.069-0.799-3.329-1.598-4.078
				c-0.799-0.749-3.312-1.054-4.33-0.655c-0.045,0.018-0.094,0.042-0.141,0.065c-0.152-0.155-0.303-0.287-0.439-0.382
				c-0.902-0.621-3.434-0.547-4.381,0c-0.948,0.548-2.276,2.701-2.19,3.793c0.017,0.221,0.079,0.485,0.173,0.771
				c-0.619,0.864-1.127,1.974-1.072,2.662c0.086,1.091,1.242,3.244,2.189,3.793c0.32,0.185,0.812,0.298,1.361,0.351
				c0.338,0.612,0.736,1.142,1.115,1.393c0.914,0.604,3.363,0.679,4.373,0.259c0.328-0.136,0.682-0.455,1.016-0.859
				c0.711-0.042,1.385-0.169,1.799-0.371c0.984-0.48,2.115-2.701,2.189-3.794C123.53,18.463,123.29,17.798,122.931,17.147z"/>
		</g>
		<g>
			<path fill="#6DEA39" d="M121.188,17.374c0.174-0.299,0.303-0.587,0.355-0.814c0.166-0.753-0.564-2.346-1.127-2.873
				c-0.562-0.528-2.332-0.743-3.051-0.461c-0.031,0.012-0.066,0.03-0.098,0.046c-0.107-0.109-0.215-0.203-0.311-0.27
				c-0.637-0.437-2.419-0.386-3.086,0c-0.669,0.386-1.604,1.903-1.543,2.672c0.012,0.156,0.055,0.341,0.122,0.542
				c-0.437,0.608-0.796,1.391-0.756,1.876c0.062,0.769,0.874,2.285,1.542,2.672c0.226,0.129,0.572,0.209,0.959,0.247
				c0.238,0.431,0.52,0.804,0.786,0.981c0.644,0.425,2.368,0.479,3.081,0.183c0.23-0.096,0.479-0.32,0.715-0.604
				c0.5-0.029,0.975-0.119,1.268-0.262c0.691-0.338,1.49-1.902,1.543-2.672C121.612,18.3,121.44,17.832,121.188,17.374z"/>
		</g>
	</g>
	<g>
		<g>
			<path fill="#33BF11" d="M115.667,24.431c0.402-0.69,0.701-1.358,0.816-1.883c0.389-1.742-1.303-5.424-2.604-6.644
				c-1.303-1.22-5.396-1.718-7.057-1.066c-0.072,0.028-0.15,0.068-0.227,0.106c-0.25-0.252-0.492-0.468-0.718-0.623
				c-1.47-1.012-5.591-0.892-7.136,0c-1.546,0.892-3.709,4.401-3.568,6.18c0.028,0.359,0.129,0.79,0.281,1.254
				c-1.01,1.408-1.836,3.216-1.748,4.337c0.142,1.779,2.024,5.287,3.568,6.18c0.521,0.303,1.324,0.486,2.217,0.571
				c0.551,0.998,1.2,1.861,1.819,2.271c1.488,0.983,5.476,1.107,7.124,0.422c0.533-0.222,1.109-0.741,1.652-1.399
				c1.16-0.067,2.258-0.275,2.932-0.603c1.604-0.783,3.445-4.401,3.568-6.181C116.644,26.575,116.249,25.491,115.667,24.431z"/>
		</g>
		<g>
			<path fill="#41D118" d="M113.515,24.709c0.312-0.536,0.543-1.054,0.635-1.462c0.301-1.352-1.012-4.21-2.021-5.156
				c-1.011-0.947-4.188-1.333-5.477-0.828c-0.057,0.022-0.117,0.052-0.176,0.083c-0.193-0.196-0.383-0.364-0.557-0.484
				c-1.141-0.785-4.34-0.692-5.539,0c-1.199,0.692-2.878,3.417-2.77,4.796c0.021,0.279,0.1,0.613,0.219,0.974
				c-0.783,1.092-1.426,2.496-1.356,3.365c0.11,1.381,1.571,4.103,2.77,4.797c0.404,0.234,1.026,0.377,1.72,0.443
				c0.428,0.774,0.932,1.444,1.412,1.761c1.155,0.763,4.25,0.86,5.528,0.329c0.415-0.173,0.862-0.575,1.284-1.087
				c0.899-0.052,1.751-0.214,2.274-0.468c1.245-0.607,2.675-3.416,2.77-4.797C114.272,26.373,113.966,25.531,113.515,24.709z"/>
		</g>
		<g>
			<path fill="#4BD81D" d="M111.342,24.552c0.238-0.408,0.415-0.803,0.483-1.113c0.229-1.03-0.77-3.208-1.54-3.929
				c-0.771-0.722-3.19-1.016-4.173-0.631c-0.043,0.017-0.089,0.041-0.133,0.063c-0.148-0.149-0.291-0.277-0.426-0.369
				c-0.869-0.597-3.305-0.527-4.219,0c-0.914,0.528-2.193,2.603-2.109,3.654c0.017,0.213,0.076,0.467,0.167,0.742
				c-0.597,0.833-1.087,1.902-1.034,2.565c0.083,1.051,1.196,3.125,2.109,3.654c0.309,0.178,0.783,0.287,1.311,0.338
				c0.326,0.59,0.711,1.1,1.076,1.342c0.88,0.581,3.238,0.654,4.211,0.25c0.316-0.131,0.658-0.438,0.979-0.828
				c0.685-0.04,1.334-0.163,1.734-0.356c0.947-0.462,2.036-2.602,2.109-3.655C111.919,25.819,111.687,25.178,111.342,24.552z"/>
		</g>
		<g>
			<path fill="#6DEA39" d="M109.663,24.77c0.168-0.288,0.291-0.566,0.34-0.785c0.162-0.725-0.542-2.259-1.084-2.767
				c-0.543-0.508-2.247-0.715-2.938-0.445c-0.03,0.013-0.062,0.029-0.095,0.045c-0.104-0.105-0.205-0.195-0.299-0.259
				c-0.612-0.421-2.33-0.372-2.973,0c-0.644,0.371-1.545,1.833-1.486,2.574c0.012,0.149,0.055,0.328,0.118,0.521
				c-0.421,0.586-0.767,1.34-0.729,1.807c0.059,0.74,0.843,2.202,1.485,2.574c0.217,0.125,0.551,0.202,0.924,0.238
				c0.23,0.415,0.5,0.774,0.758,0.945c0.619,0.41,2.281,0.461,2.967,0.176c0.223-0.092,0.463-0.308,0.689-0.582
				c0.482-0.028,0.938-0.115,1.221-0.252c0.667-0.326,1.435-1.833,1.486-2.574C110.069,25.663,109.906,25.211,109.663,24.77z"/>
		</g>
	</g>
	<g>
		<g>
			<path fill="#33BF11" d="M115.667,10.825c0.402-0.69,0.701-1.358,0.816-1.883c0.389-1.742-1.303-5.425-2.604-6.644
				c-1.303-1.22-5.396-1.718-7.057-1.067c-0.072,0.028-0.15,0.068-0.227,0.106c-0.25-0.252-0.492-0.468-0.718-0.622
				c-1.47-1.012-5.591-0.893-7.136,0c-1.546,0.891-3.709,4.401-3.568,6.18c0.028,0.359,0.129,0.79,0.281,1.254
				c-1.01,1.407-1.836,3.216-1.748,4.336c0.142,1.779,2.024,5.287,3.568,6.181c0.521,0.302,1.324,0.486,2.217,0.571
				c0.551,0.998,1.2,1.861,1.819,2.27c1.488,0.984,5.476,1.108,7.124,0.423c0.533-0.222,1.109-0.74,1.652-1.399
				c1.16-0.067,2.258-0.275,2.932-0.603c1.604-0.783,3.445-4.402,3.568-6.181C116.644,12.969,116.249,11.885,115.667,10.825z"/>
		</g>
		<g>
			<path fill="#41D118" d="M113.515,11.103c0.312-0.536,0.543-1.054,0.635-1.462c0.301-1.351-1.012-4.21-2.021-5.156
				c-1.011-0.947-4.188-1.333-5.477-0.828c-0.057,0.022-0.117,0.053-0.176,0.083c-0.193-0.196-0.383-0.364-0.557-0.484
				c-1.141-0.785-4.34-0.692-5.539,0c-1.199,0.692-2.878,3.416-2.77,4.796c0.021,0.28,0.1,0.613,0.219,0.974
				c-0.783,1.092-1.426,2.496-1.356,3.365c0.11,1.38,1.571,4.103,2.77,4.797c0.404,0.234,1.026,0.377,1.72,0.443
				c0.428,0.774,0.932,1.444,1.412,1.761c1.155,0.763,4.25,0.86,5.528,0.329c0.415-0.172,0.862-0.575,1.284-1.086
				c0.899-0.052,1.751-0.214,2.274-0.468c1.245-0.606,2.675-3.416,2.77-4.797C114.272,12.766,113.966,11.925,113.515,11.103z"/>
		</g>
		<g>
			<path fill="#4BD81D" d="M111.342,10.946c0.238-0.409,0.415-0.804,0.483-1.114c0.229-1.03-0.77-3.208-1.54-3.929
				s-3.19-1.016-4.173-0.631c-0.043,0.017-0.089,0.041-0.133,0.062c-0.148-0.148-0.291-0.276-0.426-0.368
				c-0.869-0.598-3.305-0.527-4.219,0c-0.914,0.528-2.193,2.603-2.109,3.654c0.017,0.212,0.076,0.467,0.167,0.742
				c-0.597,0.833-1.087,1.902-1.034,2.564c0.083,1.052,1.196,3.125,2.109,3.654c0.309,0.178,0.783,0.287,1.311,0.338
				c0.326,0.589,0.711,1.1,1.076,1.342c0.88,0.581,3.238,0.654,4.211,0.25c0.316-0.131,0.658-0.438,0.979-0.828
				c0.685-0.04,1.334-0.162,1.734-0.356c0.947-0.462,2.036-2.602,2.109-3.654C111.919,12.213,111.687,11.572,111.342,10.946z"/>
		</g>
		<g>
			<path fill="#6DEA39" d="M109.663,11.163c0.168-0.288,0.291-0.565,0.34-0.784c0.162-0.726-0.542-2.26-1.084-2.768
				c-0.543-0.509-2.247-0.716-2.938-0.445c-0.03,0.012-0.062,0.029-0.095,0.044c-0.104-0.104-0.205-0.195-0.299-0.259
				c-0.612-0.421-2.33-0.372-2.973,0c-0.644,0.372-1.545,1.833-1.486,2.574c0.012,0.149,0.055,0.329,0.118,0.522
				c-0.421,0.586-0.767,1.339-0.729,1.807c0.059,0.74,0.843,2.201,1.485,2.574c0.217,0.125,0.551,0.202,0.924,0.238
				c0.23,0.415,0.5,0.774,0.758,0.944c0.619,0.41,2.281,0.462,2.967,0.176c0.223-0.092,0.463-0.308,0.689-0.582
				c0.482-0.028,0.938-0.115,1.221-0.252c0.667-0.326,1.435-1.833,1.486-2.574C110.069,12.056,109.906,11.604,109.663,11.163z"/>
		</g>
	</g>
	<g>
		<g>
			<path fill="#33BF11" d="M45.309,48.844c0.466-0.796,0.808-1.566,0.943-2.171c0.447-2.009-1.502-6.256-3.003-7.663
				c-1.502-1.407-6.222-1.981-8.138-1.23c-0.084,0.033-0.174,0.078-0.261,0.122c-0.288-0.291-0.569-0.54-0.829-0.718
				c-1.694-1.167-6.447-1.029-8.229,0c-1.783,1.029-4.278,5.076-4.116,7.127c0.033,0.414,0.149,0.911,0.326,1.446
				c-1.166,1.623-2.119,3.708-2.017,5.001c0.163,2.052,2.335,6.097,4.114,7.127c0.602,0.35,1.528,0.562,2.557,0.66
				c0.636,1.15,1.385,2.146,2.099,2.618c1.716,1.133,6.315,1.277,8.215,0.487c0.616-0.256,1.281-0.854,1.906-1.614
				c1.337-0.078,2.604-0.317,3.381-0.696c1.849-0.902,3.973-5.077,4.115-7.128C46.435,51.317,45.981,50.067,45.309,48.844z"/>
		</g>
		<g>
			<path fill="#41D118" d="M42.827,49.165c0.362-0.618,0.628-1.215,0.732-1.686c0.348-1.558-1.165-4.855-2.331-5.947
				c-1.165-1.092-4.83-1.538-6.316-0.955c-0.065,0.026-0.134,0.061-0.203,0.095c-0.223-0.225-0.44-0.418-0.642-0.557
				c-1.316-0.905-5.004-0.798-6.388,0c-1.383,0.798-3.319,3.94-3.194,5.532c0.026,0.322,0.116,0.708,0.253,1.123
				c-0.904,1.259-1.644,2.878-1.565,3.881c0.126,1.592,1.812,4.731,3.193,5.533c0.466,0.27,1.184,0.435,1.983,0.511
				c0.494,0.893,1.075,1.666,1.629,2.032c1.332,0.879,4.901,0.992,6.376,0.379c0.479-0.2,0.994-0.664,1.48-1.253
				c1.037-0.06,2.02-0.247,2.624-0.541c1.436-0.7,3.084-3.939,3.194-5.532C43.702,51.083,43.349,50.113,42.827,49.165z"/>
		</g>
		<g>
			<path fill="#4BD81D" d="M40.321,48.983c0.276-0.471,0.479-0.926,0.558-1.284c0.266-1.188-0.888-3.699-1.775-4.53
				c-0.888-0.833-3.679-1.172-4.811-0.729c-0.051,0.019-0.103,0.047-0.155,0.073c-0.169-0.171-0.336-0.319-0.49-0.425
				c-1.001-0.688-3.812-0.607-4.865,0c-1.053,0.609-2.529,3.002-2.434,4.215c0.02,0.245,0.089,0.538,0.193,0.856
				c-0.689,0.959-1.253,2.193-1.192,2.957c0.095,1.212,1.379,3.604,2.434,4.213c0.355,0.206,0.902,0.331,1.511,0.391
				c0.376,0.68,0.819,1.269,1.24,1.548c1.015,0.67,3.735,0.754,4.857,0.288c0.364-0.151,0.758-0.505,1.128-0.955
				c0.79-0.046,1.539-0.188,2-0.411c1.093-0.533,2.349-3.001,2.433-4.214C40.987,50.445,40.719,49.705,40.321,48.983z"/>
		</g>
		<g>
			<path fill="#6DEA39" d="M38.385,49.234c0.193-0.331,0.337-0.652,0.393-0.904c0.187-0.836-0.626-2.605-1.25-3.191
				c-0.626-0.586-2.593-0.825-3.389-0.513c-0.035,0.015-0.072,0.034-0.109,0.052c-0.12-0.122-0.237-0.225-0.345-0.299
				c-0.706-0.485-2.686-0.429-3.427,0c-0.743,0.429-1.782,2.114-1.714,2.969c0.014,0.172,0.062,0.379,0.136,0.603
				c-0.486,0.675-0.884,1.544-0.841,2.084c0.068,0.853,0.972,2.539,1.714,2.968c0.25,0.144,0.635,0.233,1.064,0.275
				c0.266,0.479,0.577,0.893,0.875,1.089c0.715,0.473,2.63,0.533,3.421,0.203c0.258-0.105,0.534-0.354,0.794-0.67
				c0.557-0.032,1.084-0.133,1.409-0.291c0.77-0.376,1.654-2.113,1.714-2.968C38.855,50.264,38.666,49.744,38.385,49.234z"/>
		</g>
	</g>
	<g>
		<g>
			<path fill="#33BF11" d="M72.6,23.817c0.466-0.796,0.808-1.566,0.943-2.172c0.447-2.008-1.501-6.256-3.003-7.663
				s-6.222-1.981-8.138-1.23c-0.084,0.033-0.174,0.079-0.26,0.122c-0.289-0.29-0.569-0.539-0.83-0.717
				c-1.694-1.167-6.447-1.029-8.229,0c-1.782,1.028-4.278,5.076-4.116,7.127c0.033,0.414,0.149,0.911,0.326,1.446
				c-1.165,1.624-2.118,3.709-2.016,5.001c0.163,2.052,2.335,6.097,4.115,7.127c0.601,0.35,1.527,0.562,2.556,0.66
				c0.636,1.15,1.386,2.146,2.099,2.619c1.716,1.133,6.316,1.277,8.216,0.487c0.615-0.256,1.279-0.855,1.906-1.614
				c1.337-0.079,2.604-0.317,3.381-0.696c1.849-0.902,3.974-5.077,4.115-7.128C73.728,26.291,73.273,25.04,72.6,23.817z"/>
		</g>
		<g>
			<path fill="#41D118" d="M70.119,24.139c0.361-0.619,0.627-1.216,0.731-1.687c0.348-1.558-1.165-4.855-2.33-5.946
				c-1.165-1.091-4.83-1.538-6.316-0.955c-0.066,0.025-0.135,0.061-0.204,0.095c-0.223-0.225-0.441-0.419-0.642-0.558
				c-1.316-0.905-5.004-0.798-6.388,0c-1.382,0.798-3.319,3.94-3.194,5.532c0.026,0.322,0.116,0.708,0.253,1.123
				c-0.905,1.259-1.644,2.878-1.565,3.881c0.126,1.592,1.811,4.731,3.194,5.532c0.465,0.27,1.183,0.435,1.983,0.511
				c0.493,0.893,1.075,1.667,1.628,2.032c1.332,0.88,4.901,0.992,6.376,0.379c0.479-0.199,0.993-0.664,1.48-1.253
				c1.038-0.06,2.019-0.247,2.624-0.54c1.436-0.7,3.084-3.939,3.193-5.533C70.993,26.057,70.641,25.086,70.119,24.139z"/>
		</g>
		<g>
			<path fill="#4BD81D" d="M67.613,23.957c0.275-0.471,0.479-0.926,0.558-1.284c0.265-1.188-0.888-3.7-1.776-4.53
				c-0.888-0.833-3.679-1.171-4.812-0.729c-0.05,0.019-0.103,0.047-0.156,0.073c-0.169-0.172-0.334-0.319-0.489-0.425
				c-1.001-0.689-3.812-0.608-4.865,0c-1.054,0.609-2.529,3.001-2.434,4.214c0.02,0.245,0.089,0.539,0.193,0.856
				c-0.689,0.959-1.254,2.193-1.192,2.957c0.095,1.212,1.379,3.604,2.433,4.214c0.355,0.206,0.902,0.331,1.511,0.391
				c0.376,0.68,0.819,1.268,1.241,1.547c1.015,0.671,3.735,0.754,4.857,0.288c0.365-0.151,0.758-0.505,1.128-0.955
				c0.79-0.046,1.539-0.187,2-0.411c1.093-0.534,2.349-3.001,2.433-4.215C68.279,25.418,68.011,24.679,67.613,23.957z"/>
		</g>
		<g>
			<path fill="#6DEA39" d="M65.678,24.208c0.193-0.331,0.336-0.652,0.393-0.905c0.187-0.835-0.625-2.605-1.251-3.191
				c-0.626-0.587-2.592-0.825-3.389-0.513c-0.035,0.015-0.072,0.034-0.109,0.052c-0.12-0.122-0.237-0.226-0.345-0.3
				c-0.707-0.485-2.686-0.428-3.427,0c-0.743,0.429-1.783,2.115-1.715,2.97c0.014,0.172,0.062,0.378,0.136,0.602
				c-0.485,0.676-0.883,1.545-0.841,2.084c0.068,0.854,0.973,2.539,1.715,2.969c0.25,0.144,0.635,0.232,1.064,0.274
				c0.265,0.479,0.577,0.893,0.874,1.089c0.716,0.473,2.63,0.532,3.422,0.203c0.257-0.106,0.533-0.354,0.793-0.67
				c0.558-0.033,1.084-0.133,1.409-0.292c0.77-0.375,1.654-2.113,1.714-2.969C66.146,25.238,65.958,24.717,65.678,24.208z"/>
		</g>
	</g>
	<g>
		<g>
			<path fill="#33BF11" d="M53.635,20.878c0.327-0.559,0.567-1.098,0.662-1.524c0.313-1.409-1.054-4.389-2.107-5.375
				c-1.054-0.987-4.365-1.39-5.709-0.863c-0.059,0.023-0.122,0.056-0.183,0.086c-0.202-0.204-0.399-0.378-0.581-0.504
				c-1.189-0.818-4.523-0.722-5.774,0c-1.25,0.722-3.001,3.562-2.887,5.001c0.023,0.29,0.104,0.639,0.229,1.015
				c-0.818,1.139-1.487,2.602-1.415,3.509c0.115,1.439,1.638,4.277,2.887,5c0.422,0.245,1.071,0.394,1.793,0.463
				c0.446,0.807,0.972,1.506,1.472,1.837c1.205,0.794,4.431,0.896,5.765,0.342c0.431-0.18,0.898-0.6,1.337-1.133
				c0.938-0.054,1.827-0.222,2.372-0.488c1.298-0.634,2.788-3.562,2.888-5.001C54.425,22.613,54.107,21.736,53.635,20.878z"/>
		</g>
		<g>
			<path fill="#41D118" d="M51.894,21.104c0.254-0.434,0.44-0.854,0.513-1.183c0.244-1.093-0.817-3.406-1.635-4.172
				c-0.818-0.766-3.389-1.08-4.431-0.67c-0.046,0.018-0.095,0.042-0.143,0.066c-0.156-0.158-0.309-0.294-0.45-0.391
				c-0.923-0.635-3.511-0.56-4.481,0c-0.97,0.56-2.329,2.764-2.241,3.881c0.019,0.226,0.082,0.496,0.178,0.788
				c-0.634,0.883-1.153,2.02-1.098,2.723c0.088,1.117,1.271,3.32,2.24,3.881c0.327,0.189,0.831,0.305,1.392,0.359
				c0.346,0.626,0.754,1.169,1.143,1.425c0.935,0.617,3.439,0.696,4.474,0.267c0.335-0.14,0.697-0.466,1.038-0.879
				c0.728-0.042,1.417-0.173,1.841-0.379c1.007-0.491,2.164-2.764,2.241-3.881C52.507,22.45,52.26,21.769,51.894,21.104z"/>
		</g>
		<g>
			<path fill="#4BD81D" d="M50.135,20.976c0.193-0.331,0.335-0.65,0.392-0.901c0.186-0.833-0.623-2.596-1.246-3.178
				c-0.624-0.584-2.581-0.822-3.376-0.511c-0.035,0.014-0.072,0.033-0.109,0.051c-0.119-0.121-0.235-0.224-0.343-0.298
				c-0.702-0.483-2.674-0.426-3.413,0c-0.739,0.427-1.774,2.105-1.707,2.957c0.013,0.172,0.062,0.378,0.135,0.601
				c-0.484,0.673-0.879,1.539-0.836,2.075c0.067,0.85,0.968,2.528,1.707,2.956c0.25,0.145,0.633,0.232,1.06,0.273
				c0.264,0.478,0.575,0.891,0.871,1.086c0.712,0.471,2.621,0.529,3.408,0.202c0.256-0.106,0.532-0.354,0.791-0.67
				c0.555-0.032,1.08-0.131,1.404-0.288c0.767-0.374,1.647-2.105,1.707-2.957C50.603,22.001,50.415,21.482,50.135,20.976z"/>
		</g>
		<g>
			<path fill="#6DEA39" d="M48.778,21.152c0.135-0.232,0.236-0.458,0.275-0.635c0.131-0.586-0.439-1.827-0.877-2.239
				c-0.439-0.412-1.818-0.579-2.378-0.36c-0.025,0.01-0.05,0.024-0.077,0.037c-0.084-0.085-0.166-0.158-0.242-0.209
				c-0.496-0.341-1.885-0.301-2.404,0c-0.521,0.301-1.25,1.483-1.203,2.083c0.009,0.121,0.043,0.266,0.096,0.422
				c-0.342,0.474-0.62,1.084-0.59,1.462c0.047,0.599,0.682,1.781,1.203,2.083c0.175,0.101,0.445,0.163,0.747,0.192
				c0.186,0.336,0.404,0.626,0.614,0.764c0.501,0.332,1.845,0.374,2.4,0.142c0.181-0.074,0.375-0.249,0.558-0.47
				c0.39-0.023,0.76-0.094,0.987-0.205c0.541-0.263,1.161-1.482,1.203-2.083C49.107,21.875,48.974,21.51,48.778,21.152z"/>
		</g>
	</g>
	<g>
		<g>
			<path fill="#33BF11" d="M62.896,10.215c0.327-0.559,0.567-1.098,0.661-1.523c0.315-1.409-1.052-4.389-2.106-5.375
				c-1.053-0.987-4.365-1.391-5.709-0.863c-0.059,0.023-0.122,0.056-0.183,0.085c-0.202-0.203-0.399-0.378-0.582-0.503
				c-1.188-0.818-4.523-0.722-5.773,0c-1.25,0.722-3.001,3.562-2.887,5.001c0.022,0.29,0.104,0.639,0.229,1.014
				c-0.818,1.139-1.486,2.603-1.416,3.509c0.115,1.439,1.638,4.277,2.887,5c0.422,0.245,1.072,0.394,1.794,0.463
				c0.446,0.807,0.971,1.506,1.472,1.837c1.204,0.795,4.431,0.896,5.764,0.342c0.431-0.179,0.898-0.6,1.337-1.132
				c0.938-0.054,1.826-0.223,2.372-0.488c1.298-0.633,2.788-3.562,2.887-5.001C63.686,11.95,63.368,11.073,62.896,10.215z"/>
		</g>
		<g>
			<path fill="#41D118" d="M61.155,10.441c0.253-0.434,0.44-0.854,0.514-1.183c0.244-1.093-0.818-3.406-1.636-4.172
				c-0.816-0.766-3.388-1.079-4.43-0.67c-0.046,0.018-0.094,0.042-0.143,0.067c-0.157-0.158-0.31-0.294-0.451-0.392
				c-0.924-0.635-3.511-0.56-4.482,0c-0.97,0.561-2.329,2.765-2.241,3.881c0.019,0.226,0.082,0.496,0.178,0.788
				c-0.635,0.883-1.154,2.019-1.098,2.722c0.089,1.117,1.271,3.32,2.24,3.882c0.327,0.189,0.83,0.305,1.392,0.358
				c0.346,0.626,0.754,1.169,1.143,1.425c0.935,0.618,3.438,0.696,4.474,0.267c0.335-0.14,0.697-0.466,1.039-0.879
				c0.728-0.042,1.417-0.173,1.84-0.379c1.007-0.49,2.164-2.764,2.241-3.881C61.768,11.786,61.521,11.105,61.155,10.441z"/>
		</g>
		<g>
			<path fill="#4BD81D" d="M59.396,10.313c0.193-0.331,0.336-0.65,0.392-0.901c0.186-0.833-0.624-2.595-1.246-3.178
				c-0.623-0.584-2.581-0.822-3.376-0.511c-0.035,0.013-0.072,0.033-0.108,0.051c-0.12-0.121-0.236-0.224-0.344-0.298
				c-0.702-0.483-2.674-0.427-3.412,0c-0.74,0.427-1.775,2.106-1.708,2.957c0.014,0.172,0.062,0.377,0.135,0.6
				c-0.483,0.673-0.879,1.539-0.836,2.075c0.066,0.851,0.967,2.529,1.707,2.957c0.249,0.144,0.633,0.232,1.06,0.273
				c0.264,0.477,0.575,0.89,0.871,1.086c0.712,0.471,2.62,0.529,3.408,0.202c0.255-0.106,0.531-0.354,0.791-0.669
				c0.554-0.033,1.079-0.132,1.402-0.289c0.767-0.374,1.647-2.105,1.707-2.957C59.864,11.338,59.676,10.819,59.396,10.313z"/>
		</g>
		<g>
			<path fill="#6DEA39" d="M58.039,10.489c0.135-0.232,0.236-0.458,0.275-0.634c0.131-0.586-0.439-1.828-0.877-2.239
				c-0.439-0.412-1.819-0.579-2.378-0.36c-0.024,0.01-0.051,0.023-0.077,0.036c-0.084-0.084-0.166-0.158-0.242-0.209
				c-0.495-0.341-1.884-0.3-2.404,0c-0.522,0.301-1.25,1.484-1.203,2.083c0.009,0.121,0.043,0.266,0.096,0.423
				c-0.341,0.475-0.62,1.084-0.59,1.462c0.047,0.599,0.682,1.782,1.202,2.083c0.176,0.101,0.446,0.164,0.747,0.193
				c0.186,0.336,0.405,0.626,0.614,0.764c0.501,0.332,1.845,0.374,2.401,0.143c0.18-0.074,0.374-0.249,0.557-0.47
				c0.39-0.023,0.76-0.094,0.988-0.205c0.54-0.263,1.162-1.482,1.203-2.083C58.368,11.212,58.235,10.847,58.039,10.489z"/>
		</g>
	</g>
	<g>
		<g>
			<path fill="#33BF11" d="M6.461,135.925c-0.539,0.922-0.935,1.812-1.092,2.513c-0.517,2.323,1.738,7.236,3.474,8.863
				c1.737,1.628,7.198,2.292,9.414,1.423c0.097-0.037,0.2-0.09,0.303-0.141c0.333,0.335,0.657,0.624,0.958,0.83
				c1.96,1.35,7.458,1.19,9.52,0c2.062-1.189,4.948-5.871,4.76-8.244c-0.038-0.479-0.172-1.054-0.376-1.673
				c1.347-1.878,2.451-4.291,2.332-5.786c-0.188-2.372-2.7-7.053-4.76-8.244c-0.696-0.404-1.766-0.648-2.957-0.763
				c-0.735-1.331-1.602-2.482-2.427-3.028c-1.985-1.312-7.306-1.479-9.504-0.564c-0.712,0.297-1.481,0.988-2.206,1.868
				c-1.546,0.089-3.011,0.367-3.91,0.805c-2.14,1.043-4.596,5.872-4.76,8.245C5.158,133.066,5.683,134.513,6.461,135.925z"/>
		</g>
		<g>
			<path fill="#41D118" d="M9.331,135.554c-0.417,0.715-0.726,1.407-0.847,1.951c-0.401,1.803,1.349,5.615,2.696,6.879
				c1.348,1.263,5.586,1.778,7.305,1.104c0.076-0.029,0.156-0.07,0.235-0.109c0.258,0.262,0.511,0.484,0.744,0.645
				c1.521,1.047,5.788,0.924,7.388,0c1.599-0.924,3.84-4.557,3.694-6.398c-0.029-0.373-0.133-0.818-0.292-1.299
				c1.046-1.457,1.903-3.329,1.81-4.49c-0.146-1.842-2.095-5.473-3.694-6.398c-0.539-0.312-1.37-0.504-2.294-0.592
				c-0.571-1.033-1.244-1.926-1.884-2.351c-1.541-1.019-5.67-1.146-7.375-0.438c-0.553,0.23-1.149,0.768-1.712,1.45
				c-1.2,0.069-2.336,0.286-3.035,0.625c-1.66,0.809-3.567,4.558-3.694,6.399C8.32,133.335,8.728,134.458,9.331,135.554z"/>
		</g>
		<g>
			<path fill="#4BD81D" d="M12.229,135.765c-0.318,0.545-0.553,1.071-0.645,1.485c-0.306,1.374,1.027,4.279,2.053,5.241
				c1.028,0.961,4.257,1.355,5.567,0.842c0.057-0.023,0.119-0.055,0.179-0.084c0.196,0.199,0.389,0.369,0.566,0.49
				c1.158,0.798,4.41,0.703,5.629,0c1.218-0.703,2.925-3.471,2.814-4.873c-0.022-0.284-0.102-0.624-0.223-0.99
				c0.797-1.11,1.449-2.537,1.379-3.422c-0.111-1.401-1.597-4.169-2.815-4.875c-0.411-0.236-1.044-0.381-1.749-0.45
				c-0.434-0.786-0.947-1.468-1.435-1.79c-1.174-0.775-4.319-0.873-5.619-0.334c-0.421,0.176-0.875,0.585-1.304,1.104
				c-0.914,0.055-1.781,0.219-2.313,0.477c-1.265,0.617-2.717,3.471-2.814,4.876C11.459,134.074,11.77,134.93,12.229,135.765z"/>
		</g>
		<g>
			<path fill="#6DEA39" d="M14.469,135.474c-0.224,0.383-0.39,0.755-0.454,1.047c-0.216,0.967,0.724,3.015,1.447,3.69
				c0.724,0.679,2.998,0.955,3.92,0.595c0.041-0.018,0.083-0.039,0.126-0.061c0.139,0.141,0.274,0.261,0.399,0.347
				c0.816,0.562,3.106,0.495,3.965,0s2.062-2.445,1.983-3.434c-0.016-0.2-0.072-0.439-0.158-0.696
				c0.562-0.783,1.022-1.788,0.972-2.41c-0.078-0.988-1.125-2.938-1.982-3.435c-0.29-0.167-0.736-0.271-1.231-0.317
				c-0.306-0.555-0.667-1.033-1.011-1.262c-0.827-0.545-3.043-0.614-3.958-0.233c-0.296,0.122-0.616,0.41-0.918,0.776
				c-0.644,0.037-1.253,0.152-1.629,0.336c-0.89,0.435-1.915,2.444-1.983,3.434C13.926,134.283,14.146,134.885,14.469,135.474z"/>
		</g>
	</g>
	<g>
		<g>
			<path fill="#33BF11" d="M11.845,111.5c-0.539,0.922-0.935,1.812-1.091,2.512c-0.516,2.324,1.738,7.238,3.474,8.863
				c1.737,1.627,7.197,2.293,9.413,1.424c0.098-0.038,0.201-0.091,0.303-0.142c0.333,0.336,0.657,0.625,0.958,0.831
				c1.96,1.349,7.459,1.189,9.52,0c2.062-1.19,4.948-5.871,4.76-8.245c-0.038-0.479-0.171-1.054-0.376-1.673
				c1.348-1.877,2.452-4.29,2.333-5.785c-0.188-2.373-2.701-7.053-4.76-8.245c-0.696-0.403-1.767-0.649-2.957-0.762
				c-0.735-1.331-1.603-2.482-2.428-3.028c-1.985-1.312-7.306-1.479-9.503-0.564c-0.713,0.297-1.481,0.988-2.206,1.867
				c-1.546,0.089-3.011,0.367-3.911,0.805c-2.139,1.044-4.596,5.871-4.76,8.246C10.542,108.64,11.067,110.085,11.845,111.5z"/>
		</g>
		<g>
			<path fill="#41D118" d="M14.716,111.128c-0.418,0.715-0.726,1.406-0.847,1.95c-0.401,1.804,1.349,5.616,2.696,6.879
				c1.348,1.264,5.586,1.778,7.305,1.104c0.076-0.028,0.156-0.069,0.235-0.109c0.258,0.261,0.51,0.485,0.743,0.646
				c1.521,1.047,5.789,0.922,7.388,0c1.6-0.924,3.84-4.558,3.695-6.398c-0.029-0.373-0.134-0.818-0.293-1.299
				c1.047-1.457,1.904-3.33,1.811-4.49c-0.146-1.842-2.096-5.473-3.694-6.398c-0.539-0.314-1.37-0.504-2.294-0.593
				c-0.571-1.032-1.244-1.926-1.884-2.35c-1.542-1.018-5.67-1.147-7.376-0.438c-0.553,0.23-1.149,0.768-1.712,1.451
				c-1.2,0.067-2.336,0.283-3.035,0.624c-1.66,0.809-3.567,4.556-3.694,6.399C13.704,108.91,14.112,110.032,14.716,111.128z"/>
		</g>
		<g>
			<path fill="#4BD81D" d="M17.614,111.337c-0.318,0.547-0.553,1.072-0.645,1.487c-0.306,1.374,1.027,4.278,2.054,5.24
				c1.028,0.962,4.256,1.355,5.566,0.843c0.058-0.023,0.119-0.055,0.179-0.085c0.197,0.198,0.389,0.369,0.566,0.491
				c1.159,0.797,4.41,0.703,5.629,0c1.218-0.703,2.925-3.472,2.814-4.875c-0.022-0.283-0.103-0.623-0.223-0.989
				c0.797-1.11,1.449-2.537,1.378-3.422c-0.11-1.401-1.595-4.169-2.814-4.874c-0.411-0.236-1.043-0.383-1.748-0.45
				c-0.435-0.787-0.948-1.468-1.435-1.79c-1.174-0.775-4.32-0.875-5.619-0.334c-0.422,0.175-0.876,0.584-1.305,1.104
				c-0.914,0.054-1.78,0.218-2.313,0.477c-1.265,0.616-2.717,3.471-2.814,4.876C16.843,109.648,17.154,110.503,17.614,111.337z"/>
		</g>
		<g>
			<path fill="#6DEA39" d="M19.853,111.048c-0.224,0.383-0.39,0.755-0.455,1.046c-0.215,0.968,0.724,3.015,1.447,3.692
				c0.724,0.678,2.998,0.953,3.92,0.594c0.041-0.018,0.084-0.04,0.126-0.061c0.138,0.14,0.273,0.26,0.399,0.347
				c0.816,0.562,3.106,0.495,3.964,0c0.859-0.495,2.062-2.445,1.983-3.435c-0.016-0.2-0.071-0.438-0.157-0.696
				c0.562-0.782,1.021-1.787,0.972-2.409c-0.079-0.989-1.125-2.938-1.982-3.436c-0.29-0.167-0.735-0.271-1.232-0.317
				c-0.306-0.554-0.667-1.033-1.011-1.261c-0.827-0.546-3.043-0.614-3.958-0.234c-0.297,0.123-0.616,0.41-0.918,0.777
				c-0.644,0.036-1.253,0.152-1.629,0.335c-0.891,0.435-1.915,2.445-1.982,3.434C19.31,109.857,19.529,110.459,19.853,111.048z"/>
		</g>
	</g>
	<g>
		<g>
			<path fill="#33BF11" d="M1.038,119.491c-0.451,0.772-0.784,1.519-0.915,2.106c-0.434,1.947,1.457,6.066,2.913,7.432
				c1.457,1.363,6.034,1.921,7.893,1.193c0.082-0.033,0.168-0.077,0.253-0.119c0.279,0.281,0.551,0.523,0.804,0.696
				c1.644,1.132,6.253,0.997,7.981,0c1.728-0.997,4.148-4.924,3.991-6.913c-0.032-0.401-0.145-0.883-0.316-1.402
				c1.13-1.574,2.055-3.598,1.956-4.851c-0.158-1.99-2.264-5.913-3.991-6.913c-0.584-0.338-1.481-0.544-2.479-0.639
				c-0.617-1.116-1.343-2.082-2.035-2.54c-1.665-1.099-6.125-1.239-7.968-0.473c-0.598,0.248-1.242,0.829-1.85,1.565
				c-1.296,0.075-2.525,0.309-3.279,0.675c-1.794,0.876-3.854,4.923-3.991,6.914C-0.055,117.093,0.385,118.305,1.038,119.491z"/>
		</g>
		<g>
			<path fill="#41D118" d="M3.444,119.179c-0.35,0.6-0.608,1.178-0.71,1.635c-0.336,1.512,1.131,4.709,2.261,5.768
				c1.13,1.061,4.683,1.491,6.125,0.926c0.063-0.023,0.13-0.059,0.197-0.092c0.216,0.219,0.427,0.406,0.623,0.541
				c1.275,0.877,4.854,0.774,6.195,0c1.341-0.774,3.22-3.82,3.098-5.365c-0.025-0.312-0.112-0.685-0.246-1.09
				c0.877-1.221,1.595-2.791,1.518-3.764c-0.123-1.543-1.757-4.588-3.098-5.365c-0.452-0.263-1.149-0.422-1.924-0.496
				c-0.479-0.865-1.042-1.615-1.58-1.969c-1.292-0.855-4.753-0.964-6.184-0.369c-0.463,0.193-0.963,0.644-1.435,1.216
				c-1.006,0.058-1.958,0.238-2.544,0.522c-1.393,0.68-2.991,3.822-3.098,5.367C2.597,117.318,2.939,118.259,3.444,119.179z"/>
		</g>
		<g>
			<path fill="#4BD81D" d="M5.875,119.356c-0.268,0.457-0.464,0.898-0.541,1.245c-0.257,1.152,0.861,3.588,1.722,4.395
				c0.861,0.807,3.568,1.136,4.667,0.705c0.048-0.019,0.1-0.045,0.15-0.07c0.165,0.166,0.326,0.31,0.475,0.412
				c0.972,0.668,3.698,0.589,4.72,0c1.021-0.59,2.453-2.911,2.359-4.087c-0.019-0.237-0.085-0.522-0.187-0.831
				c0.668-0.93,1.215-2.126,1.156-2.867c-0.093-1.176-1.338-3.496-2.359-4.088c-0.345-0.199-0.875-0.32-1.466-0.378
				c-0.364-0.659-0.794-1.229-1.203-1.501c-0.984-0.649-3.622-0.732-4.711-0.279c-0.354,0.146-0.735,0.49-1.094,0.926
				c-0.767,0.044-1.493,0.182-1.939,0.398c-1.06,0.518-2.278,2.911-2.359,4.09C5.229,117.938,5.489,118.654,5.875,119.356z"/>
		</g>
		<g>
			<path fill="#6DEA39" d="M7.752,119.111c-0.188,0.322-0.327,0.634-0.381,0.878c-0.181,0.812,0.607,2.526,1.214,3.096
				c0.606,0.569,2.513,0.8,3.287,0.497c0.034-0.014,0.07-0.032,0.106-0.049c0.116,0.117,0.229,0.218,0.334,0.289
				c0.685,0.471,2.605,0.415,3.325,0c0.719-0.416,1.728-2.051,1.662-2.879c-0.014-0.167-0.06-0.368-0.132-0.586
				c0.472-0.654,0.857-1.496,0.815-2.019c-0.066-0.829-0.943-2.463-1.663-2.88c-0.243-0.139-0.617-0.226-1.032-0.267
				c-0.257-0.464-0.56-0.866-0.848-1.056c-0.693-0.459-2.551-0.517-3.319-0.197c-0.249,0.102-0.517,0.344-0.771,0.65
				c-0.54,0.031-1.051,0.129-1.366,0.282c-0.747,0.364-1.604,2.051-1.663,2.88C7.297,118.113,7.481,118.618,7.752,119.111z"/>
		</g>
	</g>
	<g>
		<g>
			<path fill="#33BF11" d="M35.226,145.98c-0.42,0.715-0.728,1.408-0.85,1.953c-0.402,1.809,1.353,5.633,2.704,6.898
				c1.352,1.266,5.601,1.783,7.325,1.107c0.076-0.03,0.156-0.07,0.235-0.109c0.259,0.26,0.511,0.484,0.746,0.645
				c1.525,1.051,5.804,0.927,7.408,0c1.604-0.926,3.85-4.568,3.703-6.416c-0.029-0.372-0.133-0.819-0.292-1.302
				c1.049-1.46,1.907-3.337,1.815-4.501c-0.146-1.847-2.102-5.488-3.704-6.416c-0.542-0.314-1.375-0.505-2.301-0.594
				c-0.572-1.035-1.248-1.932-1.889-2.356c-1.544-1.021-5.685-1.149-7.396-0.438c-0.554,0.23-1.152,0.768-1.716,1.452
				c-1.203,0.07-2.343,0.286-3.043,0.627c-1.666,0.812-3.577,4.569-3.704,6.416C34.212,143.754,34.621,144.878,35.226,145.98z"/>
		</g>
		<g>
			<path fill="#41D118" d="M37.459,145.69c-0.325,0.557-0.564,1.095-0.659,1.517c-0.312,1.403,1.049,4.371,2.098,5.354
				s4.346,1.385,5.685,0.859c0.059-0.023,0.121-0.055,0.182-0.086c0.201,0.203,0.397,0.377,0.579,0.502
				c1.184,0.815,4.505,0.719,5.75,0c1.244-0.719,2.987-3.546,2.875-4.979c-0.023-0.291-0.105-0.636-0.229-1.011
				c0.814-1.134,1.48-2.591,1.409-3.494c-0.114-1.433-1.631-4.259-2.875-4.979c-0.419-0.243-1.065-0.393-1.785-0.462
				c-0.444-0.803-0.968-1.498-1.466-1.828c-1.199-0.791-4.412-0.893-5.739-0.341c-0.43,0.179-0.896,0.597-1.333,1.127
				c-0.934,0.055-1.818,0.224-2.361,0.487c-1.292,0.63-2.777,3.546-2.875,4.979C36.672,143.963,36.989,144.836,37.459,145.69z"/>
		</g>
		<g>
			<path fill="#4BD81D" d="M39.715,145.853c-0.248,0.425-0.431,0.834-0.502,1.156c-0.239,1.069,0.799,3.33,1.598,4.079
				c0.8,0.748,3.312,1.054,4.332,0.653c0.045-0.017,0.093-0.041,0.139-0.064c0.153,0.154,0.302,0.287,0.441,0.381
				c0.901,0.622,3.432,0.549,4.38,0c0.949-0.547,2.276-2.699,2.19-3.791c-0.018-0.221-0.08-0.484-0.173-0.771
				c0.62-0.865,1.128-1.974,1.073-2.662c-0.086-1.092-1.242-3.244-2.19-3.793c-0.32-0.186-0.812-0.298-1.361-0.352
				c-0.338-0.611-0.737-1.142-1.116-1.394c-0.914-0.604-3.362-0.68-4.372-0.259c-0.328,0.136-0.682,0.454-1.015,0.858
				c-0.711,0.042-1.385,0.17-1.8,0.371c-0.984,0.48-2.114,2.701-2.19,3.794C39.115,144.538,39.357,145.203,39.715,145.853z"/>
		</g>
		<g>
			<path fill="#6DEA39" d="M41.458,145.628c-0.175,0.297-0.304,0.586-0.354,0.812c-0.167,0.754,0.563,2.346,1.126,2.873
				c0.563,0.528,2.333,0.742,3.051,0.462c0.032-0.013,0.066-0.03,0.099-0.046c0.107,0.108,0.213,0.202,0.311,0.269
				c0.635,0.438,2.417,0.386,3.085,0s1.604-1.903,1.543-2.672c-0.013-0.155-0.056-0.341-0.123-0.542
				c0.437-0.607,0.795-1.391,0.756-1.877c-0.061-0.768-0.875-2.283-1.542-2.67c-0.225-0.131-0.572-0.211-0.958-0.248
				c-0.239-0.432-0.52-0.805-0.787-0.981c-0.644-0.424-2.368-0.479-3.08-0.183c-0.231,0.096-0.48,0.32-0.715,0.604
				c-0.501,0.03-0.976,0.119-1.268,0.263c-0.693,0.337-1.49,1.901-1.543,2.672C41.036,144.7,41.205,145.169,41.458,145.628z"/>
		</g>
	</g>
	<g>
		<g>
			<path fill="#33BF11" d="M46.98,138.57c-0.404,0.689-0.701,1.357-0.818,1.883c-0.387,1.742,1.303,5.425,2.604,6.645
				c1.303,1.22,5.396,1.717,7.057,1.066c0.073-0.028,0.15-0.068,0.227-0.105c0.25,0.252,0.493,0.467,0.718,0.623
				c1.469,1.011,5.591,0.891,7.136,0c1.545-0.893,3.708-4.403,3.568-6.181c-0.028-0.358-0.129-0.79-0.282-1.254
				c1.011-1.408,1.837-3.217,1.75-4.338c-0.142-1.778-2.025-5.286-3.569-6.18c-0.521-0.304-1.325-0.486-2.216-0.571
				c-0.551-0.998-1.201-1.861-1.82-2.27c-1.487-0.984-5.476-1.108-7.124-0.423c-0.534,0.222-1.11,0.739-1.653,1.398
				c-1.159,0.067-2.257,0.275-2.932,0.604c-1.604,0.783-3.445,4.401-3.568,6.181C46.004,136.425,46.397,137.509,46.98,138.57z"/>
		</g>
		<g>
			<path fill="#41D118" d="M49.132,138.292c-0.314,0.536-0.544,1.054-0.635,1.462c-0.3,1.352,1.011,4.21,2.021,5.156
				c1.01,0.947,4.188,1.334,5.476,0.828c0.057-0.023,0.117-0.053,0.177-0.083c0.193,0.196,0.382,0.364,0.557,0.483
				c1.141,0.785,4.339,0.693,5.539,0c1.198-0.691,2.877-3.416,2.769-4.797c-0.021-0.278-0.1-0.612-0.219-0.973
				c0.785-1.092,1.426-2.496,1.357-3.365c-0.11-1.381-1.571-4.104-2.77-4.797c-0.404-0.234-1.026-0.378-1.72-0.443
				c-0.428-0.774-0.932-1.445-1.412-1.762c-1.156-0.764-4.25-0.859-5.528-0.329c-0.416,0.173-0.863,0.575-1.284,1.087
				c-0.899,0.052-1.751,0.214-2.274,0.468c-1.245,0.607-2.674,3.417-2.77,4.798C48.374,136.627,48.68,137.47,49.132,138.292z"/>
		</g>
		<g>
			<path fill="#4BD81D" d="M51.306,138.449c-0.239,0.408-0.416,0.803-0.484,1.113c-0.229,1.03,0.77,3.207,1.539,3.929
				c0.771,0.722,3.191,1.016,4.172,0.631c0.043-0.017,0.089-0.04,0.135-0.063c0.147,0.15,0.291,0.277,0.425,0.37
				c0.868,0.597,3.305,0.526,4.219,0c0.914-0.529,2.193-2.604,2.11-3.654c-0.017-0.214-0.077-0.468-0.167-0.742
				c0.597-0.833,1.086-1.902,1.034-2.565c-0.083-1.051-1.197-3.124-2.11-3.653c-0.308-0.179-0.782-0.286-1.31-0.339
				c-0.326-0.589-0.71-1.099-1.076-1.342c-0.879-0.581-3.238-0.654-4.212-0.25c-0.315,0.131-0.656,0.438-0.977,0.828
				c-0.686,0.04-1.335,0.162-1.734,0.356c-0.948,0.463-2.036,2.603-2.109,3.655C50.728,137.182,50.959,137.823,51.306,138.449z"/>
		</g>
		<g>
			<path fill="#6DEA39" d="M52.983,138.232c-0.168,0.287-0.292,0.564-0.34,0.783c-0.162,0.726,0.542,2.26,1.084,2.768
				c0.543,0.508,2.248,0.715,2.939,0.444c0.03-0.013,0.063-0.028,0.095-0.045c0.104,0.106,0.205,0.196,0.299,0.261
				c0.612,0.421,2.329,0.371,2.971,0c0.645-0.372,1.545-1.834,1.487-2.574c-0.012-0.15-0.054-0.328-0.118-0.522
				c0.421-0.587,0.766-1.34,0.729-1.808c-0.059-0.74-0.843-2.201-1.486-2.572c-0.217-0.127-0.551-0.203-0.922-0.239
				c-0.23-0.415-0.5-0.774-0.758-0.944c-0.62-0.41-2.282-0.462-2.968-0.178c-0.223,0.094-0.462,0.309-0.688,0.583
				c-0.483,0.028-0.94,0.116-1.222,0.253c-0.667,0.325-1.434,1.832-1.486,2.573C52.576,137.338,52.74,137.79,52.983,138.232z"/>
		</g>
	</g>
	<g>
		<g>
			<path fill="#33BF11" d="M46.759,149.415c-0.308,0.525-0.534,1.032-0.623,1.433c-0.295,1.324,0.991,4.125,1.981,5.053
				c0.99,0.928,4.104,1.307,5.367,0.812c0.056-0.023,0.115-0.053,0.173-0.082c0.19,0.191,0.375,0.356,0.547,0.475
				c1.118,0.769,4.252,0.678,5.427,0c1.175-0.679,2.821-3.348,2.713-4.701c-0.021-0.273-0.097-0.602-0.214-0.953
				c0.769-1.071,1.398-2.447,1.331-3.299c-0.108-1.354-1.54-4.021-2.715-4.701c-0.396-0.229-1.007-0.37-1.685-0.436
				c-0.42-0.758-0.914-1.414-1.384-1.725c-1.132-0.748-4.166-0.844-5.419-0.322c-0.406,0.168-0.845,0.562-1.257,1.064
				c-0.882,0.051-1.717,0.209-2.23,0.459c-1.22,0.596-2.621,3.347-2.714,4.701C46.016,147.784,46.315,148.608,46.759,149.415z"/>
		</g>
		<g>
			<path fill="#41D118" d="M48.395,149.203c-0.239,0.408-0.414,0.803-0.483,1.111c-0.229,1.028,0.769,3.203,1.537,3.923
				c0.769,0.72,3.186,1.015,4.166,0.63c0.043-0.016,0.089-0.04,0.134-0.062c0.146,0.147,0.291,0.275,0.423,0.367
				c0.868,0.598,3.3,0.526,4.212,0c0.912-0.526,2.189-2.599,2.106-3.648c-0.016-0.212-0.076-0.466-0.167-0.74
				c0.597-0.83,1.084-1.898,1.032-2.561c-0.083-1.049-1.195-3.121-2.106-3.647c-0.307-0.179-0.781-0.288-1.308-0.338
				c-0.326-0.589-0.709-1.099-1.075-1.34c-0.878-0.58-3.232-0.653-4.205-0.249c-0.315,0.131-0.656,0.438-0.976,0.826
				c-0.685,0.039-1.332,0.162-1.731,0.355c-0.946,0.462-2.033,2.6-2.106,3.648C47.818,147.938,48.051,148.578,48.395,149.203z"/>
		</g>
		<g>
			<path fill="#4BD81D" d="M50.047,149.322c-0.181,0.312-0.315,0.611-0.368,0.848c-0.175,0.783,0.586,2.439,1.171,2.988
				c0.586,0.549,2.427,0.771,3.174,0.479c0.033-0.013,0.067-0.03,0.102-0.048c0.112,0.113,0.221,0.211,0.323,0.281
				c0.661,0.454,2.515,0.4,3.209,0c0.695-0.402,1.667-1.98,1.604-2.779c-0.012-0.162-0.058-0.356-0.127-0.564
				c0.454-0.635,0.827-1.447,0.786-1.951c-0.062-0.8-0.91-2.377-1.604-2.779c-0.235-0.136-0.595-0.219-0.997-0.256
				c-0.248-0.449-0.54-0.838-0.818-1.021c-0.669-0.442-2.463-0.498-3.204-0.19c-0.24,0.101-0.5,0.333-0.743,0.63
				c-0.521,0.03-1.016,0.123-1.319,0.271c-0.721,0.351-1.549,1.979-1.604,2.779C49.608,148.359,49.785,148.845,50.047,149.322z"/>
		</g>
		<g>
			<path fill="#6DEA39" d="M51.325,149.158c-0.128,0.219-0.223,0.43-0.259,0.596c-0.124,0.552,0.412,1.719,0.824,2.105
				c0.414,0.385,1.71,0.543,2.235,0.338c0.024-0.011,0.048-0.022,0.072-0.035c0.079,0.081,0.156,0.15,0.227,0.198
				c0.466,0.321,1.772,0.284,2.26,0c0.49-0.283,1.176-1.394,1.131-1.958c-0.009-0.113-0.042-0.25-0.09-0.396
				c0.321-0.447,0.583-1.02,0.554-1.375c-0.044-0.563-0.641-1.674-1.13-1.957c-0.166-0.096-0.419-0.154-0.703-0.181
				c-0.175-0.315-0.38-0.59-0.576-0.72c-0.471-0.312-1.734-0.352-2.256-0.133c-0.169,0.068-0.352,0.232-0.524,0.441
				c-0.367,0.022-0.715,0.088-0.929,0.191c-0.508,0.248-1.091,1.395-1.13,1.959C51.015,148.478,51.14,148.822,51.325,149.158z"/>
		</g>
	</g>
	<g>
		<g>
			<path fill="#33BF11" d="M37.513,131.9c-0.308,0.523-0.533,1.032-0.623,1.431c-0.295,1.325,0.991,4.126,1.981,5.054
				c0.99,0.929,4.103,1.307,5.367,0.812c0.055-0.022,0.115-0.052,0.172-0.081c0.19,0.192,0.375,0.356,0.547,0.475
				c1.117,0.77,4.252,0.678,5.427,0c1.176-0.679,2.821-3.348,2.714-4.701c-0.021-0.273-0.098-0.6-0.214-0.954
				c0.768-1.07,1.398-2.446,1.33-3.298c-0.107-1.354-1.54-4.021-2.714-4.701c-0.396-0.23-1.007-0.371-1.686-0.436
				c-0.419-0.758-0.913-1.415-1.384-1.726c-1.132-0.747-4.166-0.843-5.418-0.321c-0.406,0.169-0.845,0.562-1.258,1.064
				c-0.882,0.051-1.716,0.209-2.229,0.459c-1.22,0.596-2.621,3.348-2.714,4.7C36.77,130.269,37.069,131.093,37.513,131.9z"/>
		</g>
		<g>
			<path fill="#41D118" d="M39.149,131.688c-0.238,0.407-0.414,0.802-0.482,1.11c-0.229,1.029,0.769,3.203,1.537,3.922
				c0.768,0.721,3.185,1.016,4.165,0.631c0.043-0.017,0.089-0.04,0.135-0.062c0.147,0.148,0.291,0.275,0.424,0.367
				c0.868,0.598,3.299,0.525,4.212,0c0.912-0.527,2.188-2.598,2.106-3.648c-0.017-0.212-0.076-0.467-0.167-0.74
				c0.597-0.831,1.085-1.898,1.032-2.559c-0.083-1.051-1.194-3.122-2.105-3.65c-0.308-0.178-0.782-0.285-1.309-0.337
				c-0.326-0.588-0.709-1.099-1.074-1.341c-0.878-0.578-3.233-0.653-4.206-0.249c-0.314,0.132-0.655,0.438-0.976,0.827
				c-0.684,0.039-1.332,0.163-1.731,0.356c-0.946,0.46-2.033,2.598-2.106,3.647C38.572,130.422,38.805,131.062,39.149,131.688z"/>
		</g>
		<g>
			<path fill="#4BD81D" d="M40.802,131.807c-0.182,0.311-0.315,0.611-0.367,0.847c-0.175,0.783,0.585,2.439,1.17,2.988
				c0.586,0.549,2.427,0.771,3.174,0.479c0.033-0.01,0.068-0.029,0.103-0.047c0.112,0.113,0.221,0.211,0.323,0.281
				c0.66,0.453,2.513,0.4,3.209,0c0.694-0.402,1.667-1.98,1.604-2.779c-0.011-0.162-0.057-0.355-0.126-0.564
				c0.454-0.635,0.826-1.447,0.786-1.951c-0.063-0.799-0.91-2.377-1.604-2.778c-0.235-0.136-0.595-0.218-0.998-0.258
				c-0.248-0.448-0.54-0.837-0.818-1.021c-0.669-0.441-2.462-0.497-3.203-0.19c-0.241,0.101-0.5,0.335-0.745,0.631
				c-0.521,0.029-1.014,0.123-1.318,0.271c-0.721,0.351-1.549,1.979-1.604,2.778C40.362,130.843,40.539,131.332,40.802,131.807z"/>
		</g>
		<g>
			<path fill="#6DEA39" d="M42.078,131.642c-0.128,0.219-0.222,0.43-0.259,0.596c-0.123,0.552,0.413,1.719,0.825,2.105
				c0.413,0.386,1.708,0.544,2.235,0.338c0.023-0.01,0.047-0.023,0.071-0.035c0.079,0.081,0.156,0.149,0.227,0.198
				c0.466,0.32,1.772,0.284,2.261,0c0.49-0.282,1.175-1.395,1.131-1.958c-0.009-0.113-0.042-0.25-0.09-0.396
				c0.32-0.445,0.583-1.02,0.555-1.375c-0.045-0.562-0.642-1.674-1.131-1.957c-0.165-0.096-0.419-0.154-0.702-0.182
				c-0.175-0.315-0.38-0.589-0.576-0.719c-0.472-0.312-1.735-0.351-2.257-0.134c-0.169,0.069-0.352,0.233-0.523,0.444
				c-0.368,0.02-0.715,0.086-0.929,0.19c-0.508,0.247-1.091,1.394-1.13,1.958C41.769,130.962,41.894,131.306,42.078,131.642z"/>
		</g>
	</g>
	<g>
		<g>
			<path fill="#33BF11" d="M35.521,32.537c0.273-0.466,0.473-0.917,0.552-1.271c0.262-1.176-0.879-3.662-1.757-4.486
				c-0.879-0.823-3.643-1.159-4.764-0.72c-0.049,0.02-0.102,0.046-0.153,0.071c-0.168-0.17-0.333-0.315-0.484-0.42
				c-0.992-0.683-3.774-0.602-4.817,0s-2.504,2.972-2.409,4.172c0.019,0.243,0.087,0.533,0.191,0.847
				c-0.682,0.95-1.24,2.171-1.181,2.928c0.095,1.201,1.367,3.569,2.409,4.172c0.352,0.204,0.894,0.328,1.496,0.386
				c0.373,0.673,0.811,1.256,1.229,1.533c1.005,0.663,3.697,0.748,4.809,0.285c0.361-0.15,0.75-0.5,1.117-0.945
				c0.783-0.045,1.524-0.186,1.979-0.407c1.083-0.528,2.326-2.972,2.409-4.173C36.18,33.984,35.914,33.253,35.521,32.537z"/>
		</g>
		<g>
			<path fill="#41D118" d="M34.067,32.725c0.212-0.362,0.368-0.712,0.429-0.987c0.203-0.912-0.683-2.842-1.364-3.481
				c-0.682-0.639-2.827-0.9-3.697-0.559c-0.038,0.015-0.078,0.036-0.119,0.056c-0.131-0.132-0.258-0.246-0.375-0.327
				c-0.771-0.53-2.93-0.467-3.74,0c-0.81,0.467-1.943,2.307-1.87,3.238c0.015,0.189,0.067,0.414,0.148,0.657
				c-0.53,0.737-0.963,1.685-0.917,2.272c0.074,0.932,1.061,2.77,1.87,3.238c0.273,0.158,0.693,0.255,1.161,0.299
				c0.289,0.522,0.629,0.976,0.953,1.189c0.78,0.516,2.869,0.581,3.732,0.222c0.28-0.117,0.582-0.389,0.866-0.733
				c0.607-0.035,1.183-0.145,1.537-0.316c0.84-0.41,1.805-2.307,1.869-3.239C34.58,33.848,34.373,33.28,34.067,32.725z"/>
		</g>
		<g>
			<path fill="#4BD81D" d="M32.601,32.618c0.161-0.275,0.28-0.542,0.327-0.751c0.155-0.695-0.52-2.166-1.04-2.652
				c-0.521-0.487-2.154-0.686-2.817-0.426c-0.029,0.011-0.06,0.028-0.091,0.042c-0.099-0.101-0.196-0.187-0.287-0.249
				c-0.586-0.403-2.231-0.355-2.848,0c-0.618,0.356-1.481,1.757-1.425,2.467c0.011,0.144,0.052,0.315,0.112,0.501
				c-0.403,0.562-0.733,1.284-0.697,1.731c0.056,0.71,0.807,2.11,1.424,2.467c0.208,0.121,0.528,0.194,0.884,0.229
				c0.22,0.398,0.48,0.742,0.727,0.906c0.594,0.393,2.186,0.442,2.843,0.169c0.214-0.089,0.443-0.296,0.66-0.559
				c0.462-0.026,0.901-0.109,1.171-0.241c0.64-0.312,1.375-1.757,1.424-2.467C32.991,33.474,32.834,33.042,32.601,32.618z"/>
		</g>
		<g>
			<path fill="#6DEA39" d="M31.468,32.765c0.113-0.194,0.197-0.382,0.23-0.529c0.109-0.49-0.366-1.525-0.732-1.868
				c-0.366-0.343-1.517-0.483-1.984-0.301c-0.021,0.009-0.042,0.02-0.064,0.031c-0.07-0.071-0.139-0.132-0.202-0.176
				c-0.413-0.284-1.572-0.25-2.006,0c-0.435,0.251-1.043,1.238-1.003,1.738c0.008,0.101,0.036,0.222,0.08,0.352
				c-0.285,0.396-0.517,0.905-0.492,1.22c0.04,0.5,0.569,1.486,1.004,1.737c0.146,0.084,0.372,0.137,0.623,0.161
				c0.155,0.28,0.338,0.522,0.512,0.638c0.419,0.276,1.54,0.312,2.003,0.119c0.151-0.062,0.312-0.208,0.464-0.393
				c0.327-0.019,0.635-0.078,0.825-0.17c0.451-0.22,0.969-1.237,1.003-1.738C31.742,33.368,31.632,33.064,31.468,32.765z"/>
		</g>
	</g>
	<g>
		<g>
			<path fill="#33BF11" d="M27.078,42.883c0.273-0.466,0.474-0.917,0.553-1.271c0.262-1.176-0.879-3.662-1.758-4.485
				c-0.879-0.824-3.642-1.16-4.764-0.72c-0.049,0.019-0.101,0.046-0.152,0.071c-0.168-0.17-0.333-0.316-0.485-0.42
				c-0.992-0.683-3.774-0.603-4.818,0c-1.043,0.602-2.504,2.971-2.409,4.172c0.019,0.242,0.087,0.533,0.19,0.847
				c-0.682,0.95-1.24,2.171-1.18,2.928c0.095,1.201,1.366,3.569,2.409,4.172c0.352,0.205,0.894,0.329,1.497,0.386
				c0.372,0.673,0.811,1.256,1.228,1.533c1.004,0.664,3.697,0.748,4.81,0.285c0.36-0.15,0.75-0.5,1.116-0.945
				c0.782-0.045,1.523-0.186,1.979-0.407c1.083-0.528,2.326-2.972,2.409-4.172C27.738,44.331,27.472,43.599,27.078,42.883z"/>
		</g>
		<g>
			<path fill="#41D118" d="M25.626,43.071c0.211-0.362,0.367-0.712,0.428-0.987c0.204-0.912-0.682-2.842-1.364-3.48
				c-0.683-0.639-2.827-0.901-3.697-0.559c-0.039,0.015-0.079,0.036-0.119,0.056c-0.131-0.132-0.259-0.246-0.376-0.327
				c-0.771-0.53-2.93-0.467-3.74,0c-0.809,0.468-1.942,2.307-1.869,3.239c0.015,0.188,0.067,0.414,0.148,0.657
				c-0.529,0.738-0.963,1.685-0.917,2.272c0.074,0.932,1.06,2.77,1.87,3.239c0.273,0.158,0.693,0.254,1.161,0.299
				c0.289,0.522,0.629,0.975,0.953,1.189c0.78,0.515,2.869,0.581,3.732,0.222c0.28-0.117,0.582-0.389,0.867-0.733
				c0.607-0.036,1.182-0.145,1.536-0.316c0.84-0.41,1.806-2.306,1.87-3.239C26.138,44.194,25.931,43.626,25.626,43.071z"/>
		</g>
		<g>
			<path fill="#4BD81D" d="M24.159,42.965c0.161-0.276,0.28-0.542,0.326-0.751c0.155-0.695-0.52-2.166-1.039-2.652
				c-0.52-0.487-2.154-0.686-2.817-0.426c-0.029,0.011-0.06,0.027-0.091,0.042c-0.099-0.101-0.196-0.187-0.287-0.249
				c-0.586-0.403-2.231-0.356-2.848,0c-0.617,0.356-1.48,1.757-1.424,2.467c0.011,0.143,0.052,0.315,0.112,0.5
				c-0.403,0.562-0.733,1.284-0.697,1.731c0.056,0.709,0.808,2.11,1.424,2.466c0.208,0.12,0.528,0.194,0.885,0.229
				c0.219,0.398,0.479,0.743,0.726,0.906c0.594,0.393,2.186,0.442,2.844,0.169c0.212-0.088,0.443-0.295,0.659-0.559
				c0.462-0.027,0.901-0.11,1.171-0.241c0.64-0.312,1.375-1.756,1.425-2.467C24.549,43.82,24.392,43.388,24.159,42.965z"/>
		</g>
		<g>
			<path fill="#6DEA39" d="M23.026,43.112c0.113-0.194,0.197-0.382,0.23-0.53c0.109-0.489-0.366-1.525-0.732-1.868
				c-0.366-0.343-1.517-0.483-1.984-0.3c-0.021,0.008-0.042,0.02-0.064,0.03c-0.07-0.07-0.138-0.132-0.202-0.175
				c-0.413-0.284-1.572-0.251-2.006,0c-0.435,0.251-1.043,1.237-1.004,1.738c0.009,0.101,0.037,0.222,0.08,0.353
				c-0.285,0.396-0.517,0.905-0.492,1.22c0.04,0.5,0.569,1.486,1.003,1.738c0.146,0.084,0.372,0.136,0.623,0.161
				c0.155,0.281,0.338,0.523,0.512,0.638c0.418,0.277,1.54,0.312,2.003,0.119c0.15-0.062,0.312-0.208,0.464-0.393
				c0.326-0.019,0.635-0.078,0.825-0.17c0.451-0.22,0.969-1.237,1.004-1.738C23.301,43.715,23.19,43.41,23.026,43.112z"/>
		</g>
	</g>
</g>
</svg>
