<?xml version="1.0" encoding="utf-8"?>
<!-- Generator: Adobe Illustrator 16.0.0, SVG Export Plug-In . SVG Version: 6.00 Build 0)  -->
<!DOCTYPE svg PUBLIC "-//W3C//DTD SVG 1.1//EN" "http://www.w3.org/Graphics/SVG/1.1/DTD/svg11.dtd">
<svg version="1.1" id="Layer_1" xmlns="http://www.w3.org/2000/svg" xmlns:xlink="http://www.w3.org/1999/xlink" x="0px" y="0px"
	 width="143.667px" height="269px" viewBox="0 0 143.667 269" enable-background="new 0 0 143.667 269" xml:space="preserve">
<rect x="19.327" y="11" opacity="0.2" enable-background="new    " width="124.34" height="258"/>
<path fill="#27AAE1" d="M121.351,217.744v-44.562h1.541c4.061-0.001,7.342-5.243,7.342-11.718h-8.883V83.194V70.067v-7.251V31.554
	V3.767h-0.094C120.808,1.616,118.91,0,116.623,0h-4.688H15.687h-4.859C8.545,0,6.644,1.615,6.192,3.767h-0.16v47.397v32.031v78.27H0
	c0,5.75,2.606,10.509,6.032,11.502v44.777c0,27,13.668,34.861,30.533,34.861h54.262
	C107.685,252.605,121.351,244.744,121.351,217.744z"/>
<path fill="#FFF200" d="M121.351,217.744v-44.562h1.541c4.061-0.001,7.342-5.243,7.342-11.718h-8.883V83.194V70.067v-7.251V31.554
	V3.767h-0.094C120.808,1.616,118.91,0,116.623,0h-4.688H15.687h-4.859C8.545,0,6.644,1.615,6.192,3.767h-0.16v47.397v32.031v78.27H0
	c0,5.75,2.606,10.509,6.032,11.502v44.777c0,27,13.668,34.861,30.533,34.861h54.262
	C107.685,252.605,121.351,244.744,121.351,217.744z M92.812,119.962v3.287H37.424v-3.287H92.812z M25.483,108.941
	c-4.873,0-8.822-3.961-8.822-8.848V80.182l0,0c5.789,0,10.484-4.695,10.484-10.486V31.924c0-5.774-4.682-10.463-10.459-10.479
	c0.121-2.758,1.319-6.923,3.151-10.148h87.886c1.836,3.227,3.029,7.392,3.164,10.148c-5.785,0.016-10.461,4.704-10.461,10.479
	v37.771c0,5.791,4.693,10.486,10.48,10.486v19.912c0,4.887-3.949,8.848-8.826,8.848H25.483z M19.019,123.25v-3.287h8.764v3.287
	v23.541c0,5.207-3.924,9.414-8.764,9.414V123.25z M100.253,123.25v-3.287h8.764v3.287v23.541c0,5.207-3.924,9.414-8.764,9.414
	V123.25z M61.047,189.699v-0.025c-12.772-0.2-21.079-1.25-26.467-2.586c-5.933-1.491-8.333-3.33-9.235-4.817
	c-0.021-0.017-0.031-0.037-0.043-0.058c-0.16-0.284-0.277-0.547-0.354-0.793c-0.31-1.032,0.061-1.733,0.061-1.733l10.582-17.821
	c2.85,2.424,21.188,3.186,28.109,3.391c6.924-0.205,25.253-0.975,28.103-3.391l10.582,17.82c0,0,0.357,0.701,0.053,1.734
	c-0.072,0.244-0.186,0.496-0.346,0.768c-0.01,0.041-0.027,0.066-0.043,0.082c-0.914,1.488-3.311,3.326-9.246,4.818
	c-5.387,1.336-13.699,2.385-26.461,2.586v0.024c-0.905,0.011-1.78,0-2.652,0C62.827,189.699,61.95,189.709,61.047,189.699z"/>
<path fill="#D2C529" d="M25.483,108.941c-4.873,0-8.822-3.961-8.822-8.848V80.182l0,0c5.789,0,10.484-4.695,10.484-10.486V31.924
	c0-5.774-4.682-10.463-10.459-10.479c0.121-2.758,1.319-6.923,3.151-10.148h87.886c1.836,3.227,3.029,7.392,3.164,10.148
	c-5.785,0.016-10.461,4.704-10.461,10.479v37.771c0,5.791,4.693,10.486,10.48,10.486v19.912c0,4.887-3.949,8.848-8.826,8.848H25.483
	z"/>
</svg>
