<?xml version="1.0" encoding="utf-8"?>
<!-- Generator: Adobe Illustrator 16.0.0, SVG Export Plug-In . SVG Version: 6.00 Build 0)  -->
<!DOCTYPE svg PUBLIC "-//W3C//DTD SVG 1.1//EN" "http://www.w3.org/Graphics/SVG/1.1/DTD/svg11.dtd">
<svg version="1.1" id="Layer_1" xmlns="http://www.w3.org/2000/svg" xmlns:xlink="http://www.w3.org/1999/xlink" x="0px" y="0px"
	 width="127.904px" height="244.436px" viewBox="0 0 127.904 244.436" enable-background="new 0 0 127.904 244.436"
	 xml:space="preserve">
<rect x="20.904" y="22.436" opacity="0.2" width="107" height="222"/>
<path fill="#27AAE1" d="M114.164,194.639l-2.749-61.216h1.454c3.81,0,9.667-4.931,9.667-11.039h-9.667v4.205h-1.454v-4.205v-8.632
	V37.664c0-9.611-14.324-28.59-17.013-29.974c-0.892-0.461-1.812-0.862-2.728-1.22V0h-4.366v5.278
	c-1.52-0.283-3.071-0.476-4.654-0.476h-3.687V1.779H37.08v3.023h-5.555c-1.172,0-2.297,0.104-3.415,0.252V0h-4.373v6.047
	c-3.179,1.021-6.132,2.634-8.758,4.749c-0.066,0.06-12.24,21.652-12.24,26.868v80.738v3.981v10.851v0.502H2.721L0,194.639
	c0,25.451,15.63,32.865,31.525,32.865h51.129C98.527,227.504,114.164,220.09,114.164,194.639z"/>
<path fill="#FFFFFF" d="M114.164,194.639l-2.749-61.216h1.454c3.81,0,9.667-4.931,9.667-11.039h-9.667v4.205h-1.454v-4.205v-8.632
	V37.664c0-9.611-14.324-28.59-17.013-29.974c-0.892-0.461-1.812-0.862-2.728-1.22V0h-4.366v5.278
	c-1.52-0.283-3.071-0.476-4.654-0.476h-3.687V1.779H37.08v3.023h-5.555c-1.172,0-2.297,0.104-3.415,0.252V0h-4.373v6.047
	c-3.179,1.021-6.132,2.634-8.758,4.749c-0.066,0.06-12.24,21.652-12.24,26.868v80.738v3.981v10.851v0.502H2.721L0,194.639
	c0,25.451,15.63,32.865,31.525,32.865h51.129C98.527,227.504,114.164,220.09,114.164,194.639z M79.881,43.683H62.096H51.189H32.686
	h-5.267c0,0-4.496-3.817,4.868-11.58h0.398h29.41h17.785h1.115c9.354,7.762,4.872,11.58,4.872,11.58H79.881z M99.798,61.104V83.28
	v3.09v22.192c0,4.89-3.696,8.862-8.269,8.862V86.37v-3.09V52.229C96.102,52.229,99.798,56.203,99.798,61.104z M14.979,86.374V83.28
	V52.229c4.568,0,8.262,3.975,8.262,8.876V83.28v3.094v22.188c0,4.89-3.693,8.868-8.262,8.868V86.374z M54.59,148.999v-0.035
	c-12.028-0.176-19.863-1.172-24.944-2.441c-5.595-1.393-7.851-3.141-8.701-4.523c-0.019-0.02-0.028-0.041-0.044-0.07
	c-0.146-0.256-0.256-0.506-0.331-0.743c-0.284-0.967,0.059-1.633,0.059-1.633l9.969-16.79c2.689,2.283,19.961,3.005,26.492,3.191
	c6.521-0.187,23.797-0.913,26.482-3.191l9.974,16.79c0,0,0.335,0.666,0.044,1.633c-0.069,0.236-0.173,0.471-0.318,0.733
	c-0.021,0.029-0.038,0.051-0.047,0.08c-0.851,1.383-3.119,3.131-8.715,4.523c-5.074,1.27-12.899,2.266-24.931,2.441v0.035
	c-0.855,0-1.685,0-2.496-0.01C56.271,148.999,55.449,148.999,54.59,148.999z M41.561,217.745c-1.716,0-3.106-0.926-3.106-2.059
	c0-1.139,1.391-2.061,3.106-2.061h37.482c1.716,0,3.116,0.922,3.116,2.061c0,1.133-1.4,2.059-3.116,2.059H41.561z"/>
<path d="M41.561,217.745c-1.716,0-3.106-0.926-3.106-2.059c0-1.139,1.391-2.061,3.106-2.061h37.482c1.716,0,3.116,0.922,3.116,2.061
	c0,1.133-1.4,2.059-3.116,2.059H41.561z"/>
</svg>
