<?xml version="1.0" encoding="utf-8"?>
<!-- Generator: Adobe Illustrator 16.0.0, SVG Export Plug-In . SVG Version: 6.00 Build 0)  -->
<!DOCTYPE svg PUBLIC "-//W3C//DTD SVG 1.1//EN" "http://www.w3.org/Graphics/SVG/1.1/DTD/svg11.dtd">
<svg version="1.1" id="Layer_1" xmlns="http://www.w3.org/2000/svg" xmlns:xlink="http://www.w3.org/1999/xlink" x="0px" y="0px"
	 width="143.667px" height="269px" viewBox="0 0 143.667 269" enable-background="new 0 0 143.667 269" xml:space="preserve">
<rect x="19.327" y="11" opacity="0.2" width="124.34" height="258"/>
<path fill="#27AAE1" d="M8.883,34.861v44.562h-1.54C3.282,79.424,0,84.666,0,91.141h8.883v78.27v13.127v7.251v31.263v27.787h0.095
	c0.449,2.15,2.346,3.766,4.635,3.766H18.3h96.248h4.859c2.283,0,4.184-1.615,4.635-3.766h0.161v-47.397V169.41v-78.27h6.032
	c0-5.75-2.607-10.508-6.032-11.502V34.861C124.203,7.861,110.534,0,93.67,0H39.406C22.549,0,8.883,7.861,8.883,34.861z"/>
<path fill="#FFF200" d="M8.883,34.861v44.562h-1.54C3.282,79.424,0,84.666,0,91.141h8.883v78.27v13.127v7.251v31.263v27.787h0.095
	c0.449,2.15,2.346,3.766,4.635,3.766H18.3h96.248h4.859c2.283,0,4.184-1.615,4.635-3.766h0.161v-47.397V169.41v-78.27h6.032
	c0-5.75-2.607-10.508-6.032-11.502V34.861C124.203,7.861,110.534,0,93.67,0H39.406C22.549,0,8.883,7.861,8.883,34.861z
	 M37.423,132.643v-3.287h55.388v3.287H37.423z M104.752,143.664c4.873,0,8.822,3.961,8.822,8.848v19.912l0,0
	c-5.789,0-10.484,4.695-10.484,10.486v37.771c0,5.775,4.681,10.464,10.459,10.479c-0.122,2.758-1.32,6.923-3.152,10.148H22.511
	c-1.837-3.226-3.03-7.391-3.164-10.148c5.785-0.016,10.46-4.704,10.46-10.479V182.91c0-5.791-4.693-10.486-10.48-10.486v-19.912
	c0-4.887,3.949-8.848,8.827-8.848H104.752z M111.217,129.355v3.287h-8.764v-3.287v-23.541c0-5.207,3.923-9.414,8.764-9.414V129.355z
	 M29.982,129.355v3.287h-8.765v-3.287v-23.541c0-5.207,3.924-9.414,8.765-9.414V129.355z M69.188,62.906v0.025
	c12.773,0.201,21.079,1.25,26.467,2.586c5.932,1.492,8.333,3.33,9.235,4.818c0.022,0.016,0.032,0.037,0.043,0.057
	c0.16,0.285,0.277,0.547,0.354,0.793c0.309,1.033-0.061,1.734-0.061,1.734L94.644,90.74c-2.849-2.424-21.187-3.186-28.109-3.391
	c-6.924,0.205-25.253,0.975-28.102,3.391L27.851,72.92c0,0-0.358-0.701-0.053-1.734c0.072-0.244,0.186-0.496,0.346-0.768
	c0.01-0.041,0.027-0.066,0.042-0.082c0.915-1.488,3.31-3.326,9.246-4.818c5.388-1.336,13.699-2.385,26.462-2.586v-0.025
	c0.905-0.01,1.78,0,2.652,0C67.408,62.906,68.285,62.896,69.188,62.906z"/>
<path fill="#D2C529" d="M104.752,143.664c4.873,0,8.822,3.961,8.822,8.848v19.912l0,0c-5.789,0-10.484,4.695-10.484,10.486v37.771
	c0,5.775,4.681,10.464,10.459,10.479c-0.122,2.758-1.32,6.923-3.152,10.148H22.511c-1.837-3.226-3.03-7.391-3.164-10.148
	c5.785-0.016,10.46-4.704,10.46-10.479V182.91c0-5.791-4.693-10.486-10.48-10.486v-19.912c0-4.887,3.949-8.848,8.827-8.848H104.752z
	"/>
</svg>
