<?xml version="1.0" encoding="utf-8"?>
<!-- Generator: Adobe Illustrator 16.0.0, SVG Export Plug-In . SVG Version: 6.00 Build 0)  -->
<!DOCTYPE svg PUBLIC "-//W3C//DTD SVG 1.1//EN" "http://www.w3.org/Graphics/SVG/1.1/DTD/svg11.dtd">
<svg version="1.1" id="Layer_1" xmlns="http://www.w3.org/2000/svg" xmlns:xlink="http://www.w3.org/1999/xlink" x="0px" y="0px"
	 width="285.53px" height="301.381px" viewBox="0 0 285.53 301.381" enable-background="new 0 0 285.53 301.381"
	 xml:space="preserve">
<radialGradient id="SVGID_1_" cx="145.9424" cy="17.8643" r="21.898" gradientUnits="userSpaceOnUse">
	<stop  offset="0.7461" style="stop-color:#FEFEFE"/>
	<stop  offset="1" style="stop-color:#F5F5F5"/>
</radialGradient>
<circle fill="url(#SVGID_1_)" cx="152.102" cy="25.392" r="21.898"/>
<radialGradient id="SVGID_2_" cx="19.4512" cy="35.769" r="27.0628" gradientUnits="userSpaceOnUse">
	<stop  offset="0.7461" style="stop-color:#FEFEFE"/>
	<stop  offset="1" style="stop-color:#F5F5F5"/>
</radialGradient>
<circle fill="url(#SVGID_2_)" cx="27.063" cy="45.072" r="27.063"/>
<radialGradient id="SVGID_3_" cx="47.9146" cy="34.7085" r="31.8298" gradientUnits="userSpaceOnUse">
	<stop  offset="0.7461" style="stop-color:#FEFEFE"/>
	<stop  offset="1" style="stop-color:#F5F5F5"/>
</radialGradient>
<circle fill="url(#SVGID_3_)" cx="56.867" cy="45.65" r="31.83"/>
<radialGradient id="SVGID_4_" cx="83.1045" cy="21.4683" r="31.8306" gradientTransform="matrix(0.9999 0.012 -0.012 0.9999 -0.4094 -1.6821)" gradientUnits="userSpaceOnUse">
	<stop  offset="0.7461" style="stop-color:#FEFEFE"/>
	<stop  offset="1" style="stop-color:#F5F5F5"/>
</radialGradient>
<circle fill="url(#SVGID_4_)" cx="91.249" cy="31.83" r="31.83"/>
<radialGradient id="SVGID_5_" cx="83.2915" cy="60.5962" r="42.7803" gradientUnits="userSpaceOnUse">
	<stop  offset="0.7461" style="stop-color:#FEFEFE"/>
	<stop  offset="1" style="stop-color:#F5F5F5"/>
</radialGradient>
<circle fill="url(#SVGID_5_)" cx="91.25" cy="68.172" r="42.78"/>
<radialGradient id="SVGID_6_" cx="75.7422" cy="93.835" r="34.2503" fx="44.4285" fy="79.9591" gradientUnits="userSpaceOnUse">
	<stop  offset="0.7461" style="stop-color:#FEFEFE"/>
	<stop  offset="1" style="stop-color:#F5F5F5"/>
</radialGradient>
<circle fill="url(#SVGID_6_)" cx="74.954" cy="97.964" r="29.793"/>
<radialGradient id="SVGID_7_" cx="39.3765" cy="85.6719" r="45.4698" fx="70.7256" fy="74.821" gradientUnits="userSpaceOnUse">
	<stop  offset="0.7461" style="stop-color:#FEFEFE"/>
	<stop  offset="1" style="stop-color:#F5F5F5"/>
</radialGradient>
<circle fill="url(#SVGID_7_)" cx="37.946" cy="85.791" r="35.952"/>
<radialGradient id="SVGID_8_" cx="122.7788" cy="41.77" r="36.2222" fx="122.1046" fy="41.5315" gradientUnits="userSpaceOnUse">
	<stop  offset="0.7461" style="stop-color:#FEFEFE"/>
	<stop  offset="1" style="stop-color:#F5F5F5"/>
</radialGradient>
<circle fill="url(#SVGID_8_)" cx="130.204" cy="45.072" r="31.83"/>
<radialGradient id="SVGID_9_" cx="162.6255" cy="41.3726" r="21.1341" gradientUnits="userSpaceOnUse">
	<stop  offset="0.7461" style="stop-color:#FEFEFE"/>
	<stop  offset="1" style="stop-color:#F5F5F5"/>
</radialGradient>
<circle fill="url(#SVGID_9_)" cx="166.023" cy="42.525" r="21.134"/>
<path opacity="0.2" d="M272.227,196.521c-1.238-10.918-10.501-19.402-21.753-19.402c-7.684,0-14.438,3.961-18.347,9.95
	c-1.166-0.13-2.35-0.202-3.55-0.202c-3.985,0-7.797,0.739-11.313,2.077c-4.17-12.503-15.889-21.587-29.811-21.755
	c-13.66-0.165-25.411,8.304-30.071,20.336c-0.708-0.047-1.421-0.08-2.142-0.08c-7.176,0-13.796,2.377-19.12,6.384
	c-3.278-1.41-6.889-2.194-10.684-2.194c-14.946,0-27.062,12.116-27.062,27.063c0,7.846,3.342,14.909,8.678,19.853
	c-4.203,5.884-6.684,13.082-6.684,20.866c0,19.855,16.096,35.951,35.952,35.951c5.465,0,10.641-1.225,15.279-3.406
	c5.435,5.796,13.156,9.42,21.728,9.42c12.378,0,22.991-7.549,27.49-18.294c15.486-4.188,27.492-16.847,30.723-32.703
	c10.206-0.943,19.015-6.7,24.132-14.985c2.66,1.207,5.611,1.885,8.725,1.885c11.671,0,21.133-9.461,21.133-21.134
	C285.53,207.245,280.021,199.633,272.227,196.521z"/>
</svg>
