<?xml version="1.0" encoding="utf-8"?>
<!-- Generator: Adobe Illustrator 16.0.0, SVG Export Plug-In . SVG Version: 6.00 Build 0)  -->
<!DOCTYPE svg PUBLIC "-//W3C//DTD SVG 1.1//EN" "http://www.w3.org/Graphics/SVG/1.1/DTD/svg11.dtd">
<svg version="1.1" id="Layer_1" xmlns="http://www.w3.org/2000/svg" xmlns:xlink="http://www.w3.org/1999/xlink" x="0px" y="0px"
	 width="366.733px" height="402.223px" viewBox="0 0 366.733 402.223" enable-background="new 0 0 366.733 402.223"
	 xml:space="preserve">
<path opacity="0.2" fill="#020202" d="M331.309,258.35c-3.707,0-7.279,0.571-10.637,1.627c-7.627-8.509-18.7-13.866-31.028-13.866
	c-11.663,0-22.201,4.798-29.764,12.522c-7.827-4.158-16.751-6.522-26.232-6.522c-12.74,0-24.48,4.262-33.889,11.427
	c-4.501-1.665-9.368-2.577-14.448-2.577c-23.01,0-41.663,18.653-41.663,41.663c0,2.842,0.287,5.617,0.829,8.3
	c-18.077,6.567-30.991,23.896-30.991,44.241c0,25.99,21.069,47.059,47.059,47.059c20.544,0,38.003-13.169,44.422-31.523
	c7.126,7.734,17.335,12.583,28.681,12.583c14.167,0,26.567-7.555,33.396-18.854c6.512,4.215,14.266,6.67,22.6,6.67
	c23.01,0,41.665-18.652,41.665-41.662c0-0.081-0.006-0.16-0.006-0.24c0.002,0,0.004,0,0.006,0c19.564,0,35.424-15.859,35.424-35.423
	C366.733,274.209,350.874,258.35,331.309,258.35z"/>
<radialGradient id="SVGID_1_" cx="60.1064" cy="42.1909" r="41.6627" gradientUnits="userSpaceOnUse">
	<stop  offset="0.7245" style="stop-color:#FFFFFF"/>
	<stop  offset="1" style="stop-color:#F5F5F5"/>
</radialGradient>
<circle fill="url(#SVGID_1_)" cx="71.824" cy="56.513" r="41.663"/>
<radialGradient id="SVGID_2_" cx="164.2866" cy="27.9448" r="41.6642" gradientTransform="matrix(0.9999 0.012 -0.012 0.9999 0.6776 -2.7123)" gradientUnits="userSpaceOnUse">
	<stop  offset="0.7245" style="stop-color:#FFFFFF"/>
	<stop  offset="1" style="stop-color:#F5F5F5"/>
</radialGradient>
<circle fill="url(#SVGID_2_)" cx="176.158" cy="41.663" r="41.663"/>
<radialGradient id="SVGID_3_" cx="207.8574" cy="35.4854" r="35.4234" gradientUnits="userSpaceOnUse">
	<stop  offset="0.7245" style="stop-color:#FFFFFF"/>
	<stop  offset="1" style="stop-color:#F5F5F5"/>
</radialGradient>
<circle fill="url(#SVGID_3_)" cx="217.821" cy="47.663" r="35.423"/>
<radialGradient id="SVGID_4_" cx="95.7451" cy="46.7456" r="90.1166" fx="92.8027" fy="43.0086" gradientUnits="userSpaceOnUse">
	<stop  offset="0.7245" style="stop-color:#FFFFFF"/>
	<stop  offset="1" style="stop-color:#F5F5F5"/>
</radialGradient>
<circle fill="url(#SVGID_4_)" cx="120.162" cy="61.996" r="55.996"/>
<radialGradient id="SVGID_5_" cx="164.4395" cy="69.0034" r="50.9262" fx="163.3862" fy="67.2657" gradientUnits="userSpaceOnUse">
	<stop  offset="0.7245" style="stop-color:#FFFFFF"/>
	<stop  offset="1" style="stop-color:#F5F5F5"/>
</radialGradient>
<circle fill="url(#SVGID_5_)" cx="176.158" cy="83.325" r="41.663"/>
<radialGradient id="SVGID_6_" cx="34.0986" cy="100.231" r="71.6515" fx="20.8264" fy="77.5894" gradientUnits="userSpaceOnUse">
	<stop  offset="0.7245" style="stop-color:#FFFFFF"/>
	<stop  offset="1" style="stop-color:#F5F5F5"/>
</radialGradient>
<circle fill="url(#SVGID_6_)" cx="47.059" cy="109.054" r="47.059"/>
<radialGradient id="SVGID_7_" cx="117.1938" cy="88.77" r="51.3744" fx="115.2265" fy="84.5437" gradientUnits="userSpaceOnUse">
	<stop  offset="0.7245" style="stop-color:#FFFFFF"/>
	<stop  offset="1" style="stop-color:#F5F5F5"/>
</radialGradient>
<circle fill="url(#SVGID_7_)" cx="120.162" cy="98.176" r="38.996"/>
</svg>
